<svg id="Layer_1" enable-background="new 0 0 512 512" height="512" viewBox="0 0 512 512" width="512" xmlns="http://www.w3.org/2000/svg"><g><g><path d="m87.385 328.498h37.436c14.16 0 25.679-11.52 25.679-25.68 0-23.888-19.434-43.321-43.32-43.321h-15.911c-16.415 0-29.769 13.354-29.769 29.77v13.347c0 14.272 11.612 25.884 25.885 25.884zm-10.885-39.231c0-8.144 6.625-14.77 14.769-14.77h15.911c15.616 0 28.32 12.705 28.32 28.321 0 5.889-4.791 10.68-10.679 10.68h-37.436c-6.002 0-10.885-4.883-10.885-10.885z"/><path d="m387.18 328.498h37.436c14.272 0 25.885-11.612 25.885-25.885v-13.347c0-16.415-13.354-29.77-29.77-29.77h-15.91c-23.887 0-43.32 19.434-43.32 43.321-.001 14.162 11.519 25.681 25.679 25.681zm17.64-54.001h15.91c8.144 0 14.77 6.626 14.77 14.77v13.347c0 6.002-4.883 10.885-10.885 10.885h-37.435c-5.889 0-10.68-4.791-10.68-10.68 0-15.617 12.704-28.322 28.32-28.322z"/><path d="m215.5 339.498h81c21.78 0 39.5-17.72 39.5-39.5 0-21.781-17.72-39.501-39.5-39.501h-81c-21.78 0-39.5 17.72-39.5 39.501 0 21.78 17.72 39.5 39.5 39.5zm0-64.001h81c13.51 0 24.5 10.991 24.5 24.501s-10.99 24.5-24.5 24.5h-81c-13.509 0-24.5-10.99-24.5-24.5s10.991-24.501 24.5-24.501z"/><path d="m489.5 437.5h-41.545c.344-1.447.545-2.949.545-4.5v-30.382h10.5c11.855 0 21.5-9.645 21.5-21.5v-12c0-6.228-2.678-11.829-6.924-15.759 4.302-4.823 6.924-11.175 6.924-18.131v-72.885c0-8.541-1.964-16.63-5.462-23.845h5.862c9.704 0 17.6-7.896 17.6-17.6v-17.811c0-9.699-7.896-17.59-17.6-17.59h-26.05c-4.096 0-8.052.929-11.632 2.613l-11.248-95.77c1.089-.648 2.114-1.42 3.034-2.34 2.899-2.9 4.496-6.755 4.496-10.854 0-15.246-12.404-27.65-27.65-27.65h-13.406l-.126-1.855c-.764-11.295-10.23-20.143-21.552-20.143h-24.278c-4.143 0-7.5 3.357-7.5 7.5s3.357 7.5 7.5 7.5h24.278c3.46 0 6.353 2.704 6.587 6.156l.613 9.049c.002.024.002.048.005.072l10.004 147.72h-224.268l20.25-134.76h167.043c4.143 0 7.5-3.357 7.5-7.5s-3.357-7.5-7.5-7.5h-202c-4.142 0-7.5 3.357-7.5 7.5s3.358 7.5 7.5 7.5h19.789l-20.25 134.76h-36.514l10.006-147.731c0-.002 0-.005 0-.007l.616-9.103c.234-3.452 3.127-6.156 6.587-6.156h184.74c4.143 0 7.5-3.357 7.5-7.5s-3.357-7.5-7.5-7.5h-184.74c-11.32 0-20.788 8.848-21.553 20.143l-.126 1.855h-13.405c-7.373 0-14.314 2.873-19.561 8.104-5.216 5.234-8.089 12.175-8.089 19.548 0 5.607 3.031 10.507 7.532 13.186l-6.615 56.328c-.483 4.114 2.46 7.841 6.574 8.324.297.034.592.052.884.052 3.751 0 6.991-2.81 7.439-6.626l6.567-55.914h15.763l-7.653 112.999h-16.645c-1.606 0-3.192.084-4.763.22l3-25.539c.483-4.114-2.46-7.841-6.574-8.324-4.118-.47-7.84 2.461-8.324 6.574l-.903 7.685c-3.58-1.685-7.536-2.613-11.633-2.613h-26.049c-9.705 0-17.6 7.891-17.6 17.59v17.811c0 9.704 7.896 17.6 17.6 17.6h5.862c-3.497 7.214-5.462 15.304-5.462 23.845v72.885c0 6.956 2.622 13.308 6.924 18.131-4.246 3.93-6.924 9.531-6.924 15.759v12c0 11.855 9.645 21.5 21.5 21.5h4.5v30.379c0 1.551.201 3.053.545 4.5h-35.545c-12.407 0-22.5 10.094-22.5 22.5s10.093 22.5 22.5 22.5h467c12.406 0 22.5-10.094 22.5-22.5s-10.094-22.5-22.5-22.5zm-401.65-358.002c-.2 0-.35-.15-.35-.35 0-3.375 1.318-6.555 3.696-8.939 2.4-2.393 5.58-3.711 8.954-3.711h12.391l-.88 13zm345.65 353.502c0 2.481-2.019 4.5-4.5 4.5h-38c-2.481 0-4.5-2.019-4.5-4.5v-30.382h47zm-347.242-210.501 15.312 20.335c4.557 6.053 11.801 9.667 19.378 9.667h35.535c.004 0 .009.001.013.001.007 0 .014-.001.021-.001h234.534c7.577 0 14.821-3.613 19.378-9.666l15.313-20.336c21.93.048 39.758 17.902 39.758 39.844v72.885c0 6.766-5.504 12.27-12.27 12.27h-394.461c-6.765 0-12.269-5.504-12.269-12.27v-72.885c0-21.941 17.827-39.796 39.758-39.844zm34.69 15.002c-2.892 0-5.656-1.379-7.395-3.689l-8.517-11.311h47.248l-2.254 15zm46.504-15h239.512l-8.517 11.312c-1.739 2.31-4.504 3.688-7.396 3.688h-225.853zm287.398-22.002h26.05c1.434 0 2.6 1.162 2.6 2.59v17.811c0 1.434-1.166 2.6-2.6 2.6h-16.567c-5.206-5.184-11.449-9.319-18.38-12.091l-.737-6.274c2.32-2.898 5.848-4.636 9.634-4.636zm-43-134.001c6.976 0 12.65 5.675 12.65 12.65 0 .043 0 .144-.104.246-.103.104-.203.104-.246.104h-23.811l-.88-13zm-10.495 28h15.764l13.297 113.219c-1.571-.136-3.156-.22-4.762-.22h-16.646zm-372.855 126.401v-17.811c0-1.428 1.167-2.59 2.6-2.59h26.05c3.787 0 7.315 1.737 9.634 4.635l-.737 6.273c-6.931 2.772-13.175 6.908-18.38 12.092h-16.567c-1.433.001-2.6-1.165-2.6-2.599zm18 160.219v-12c0-3.584 2.916-6.5 6.5-6.5h406c3.584 0 6.5 2.916 6.5 6.5v12c0 3.584-2.916 6.5-6.5 6.5h-106.205c-4.143 0-7.5 3.357-7.5 7.5s3.357 7.5 7.5 7.5h18.705v30.382c0 1.551.201 3.053.545 4.5h-238.09c.344-1.447.545-2.949.545-4.5v-30.382h186.09c4.143 0 7.5-3.357 7.5-7.5s-3.357-7.5-7.5-7.5h-267.59c-3.584 0-6.5-2.916-6.5-6.5zm26 51.882v-30.382h47v30.382c0 2.481-2.019 4.5-4.5 4.5h-38c-2.481 0-4.5-2.019-4.5-4.5zm417 34.5h-467c-4.136 0-7.5-3.364-7.5-7.5s3.364-7.5 7.5-7.5h467c4.136 0 7.5 3.364 7.5 7.5s-3.364 7.5-7.5 7.5z"/></g></g></svg>