<svg id="Layer_1" enable-background="new 0 0 512 512" height="512" viewBox="0 0 512 512" width="512" xmlns="http://www.w3.org/2000/svg"><g><g><path d="m494.4 245h-26.05c-4.097 0-8.053.929-11.633 2.613l-11.248-95.769c1.09-.648 2.115-1.421 3.035-2.342 2.899-2.9 4.496-6.754 4.496-10.853 0-15.246-12.404-27.65-27.65-27.65h-9.295c-4.142 0-7.5 3.358-7.5 7.5s3.358 7.5 7.5 7.5h9.295c6.975 0 12.65 5.675 12.65 12.65 0 .043 0 .144-.102.246-.104.105-.205.105-.248.105h-262.428c-.138-1.555-.222-3.119-.222-4.696v-8.304h209.055c4.142 0 7.5-3.358 7.5-7.5s-3.358-7.5-7.5-7.5h-209.055v-68.115c0-23.647-19.238-42.885-42.885-42.885h-89.23c-23.647 0-42.885 19.238-42.885 42.885v89.23c0 23.647 19.238 42.885 42.885 42.885h47.924l-2.497 21.265c-.483 4.114 2.46 7.84 6.574 8.323.297.035.592.052.884.052 3.751 0 6.991-2.809 7.439-6.626l2.703-23.014h22.961c8.764 0 17.464 2.216 25.161 6.409l17.846 9.722c1.828.996 3.793 1.484 5.738 1.484 2.895 0 5.743-1.082 8.022-3.18 3.811-3.509 4.919-8.837 2.824-13.575l-8.97-20.281c-.231-.522-.437-1.051-.65-1.578h251.775l13.297 113.22c-1.571-.136-3.157-.22-4.763-.22h-33.099c-7.361-21.178-27.722-36-50.555-36s-43.194 14.822-50.555 36h-205.098c-1.606 0-3.192.084-4.763.22l4.334-36.91c.483-4.114-2.46-7.84-6.574-8.323-4.117-.484-7.84 2.46-8.323 6.574l-2.237 19.052c-3.581-1.685-7.537-2.614-11.633-2.614h-26.05c-9.705 0-17.6 7.896-17.6 17.6v17.8c0 9.705 7.896 17.6 17.6 17.6h5.862c-3.497 7.215-5.462 15.305-5.462 23.846v72.885c0 6.924 2.598 13.249 6.865 18.063-4.212 3.928-6.865 9.506-6.865 15.706v12c0 11.855 9.645 21.5 21.5 21.5h4.5v30.5c0 10.752 8.748 19.5 19.5 19.5h38c10.752 0 19.5-8.748 19.5-19.5v-30.5h191.683c4.142 0 7.5-3.358 7.5-7.5s-3.358-7.5-7.5-7.5h-273.183c-3.584 0-6.5-2.916-6.5-6.5v-12c0-3.584 2.916-6.5 6.5-6.5h406c3.584 0 6.5 2.916 6.5 6.5v12c0 3.584-2.916 6.5-6.5 6.5h-100.119c-4.142 0-7.5 3.358-7.5 7.5s3.358 7.5 7.5 7.5h12.619v30.5c0 10.752 8.748 19.5 19.5 19.5h38c10.752 0 19.5-8.748 19.5-19.5v-30.5h10.5c11.855 0 21.5-9.645 21.5-21.5v-12c0-6.2-2.653-11.778-6.865-15.706 4.267-4.814 6.865-11.14 6.865-18.063v-72.885c0-8.541-1.965-16.632-5.462-23.846h5.862c9.705 0 17.6-7.896 17.6-17.6v-17.8c0-9.704-7.896-17.6-17.6-17.6zm-333.191-76.763c-9.891-5.389-21.073-8.237-32.336-8.237h-85.988c-15.376 0-27.885-12.509-27.885-27.885v-89.23c0-15.376 12.509-27.885 27.885-27.885h89.23c15.376 0 27.885 12.509 27.885 27.885v91.419c0 9.475 1.943 18.674 5.776 27.34l5.291 11.962zm-28.209 324.263c0 2.481-2.019 4.5-4.5 4.5h-38c-2.481 0-4.5-2.019-4.5-4.5v-30.5h47zm314 0c0 2.481-2.019 4.5-4.5 4.5h-38c-2.481 0-4.5-2.019-4.5-4.5v-30.5h47zm-26.536-210.497-8.518 11.312c-1.739 2.31-4.503 3.688-7.395 3.688h-270.103c-2.892 0-5.656-1.379-7.395-3.689l-8.517-11.311zm-64.964-36.003c14.61 0 27.816 8.426 34.288 21h-68.577c6.473-12.574 19.679-21 34.289-21zm-313.5 34.4v-17.8c0-1.434 1.167-2.6 2.6-2.6h26.05c3.787 0 7.315 1.738 9.634 4.635l-.737 6.276c-6.93 2.772-13.173 6.907-18.378 12.089h-16.569c-1.433 0-2.6-1.167-2.6-2.6zm30.269 126.6c-6.765 0-12.269-5.504-12.269-12.269v-72.885c0-21.942 17.828-39.796 39.758-39.844l15.312 20.335c4.557 6.052 11.801 9.666 19.378 9.666h270.104c7.577 0 14.821-3.614 19.377-9.666l15.312-20.336c21.931.049 39.759 17.903 39.759 39.845v72.885c0 6.765-5.504 12.269-12.269 12.269zm424.731-126.6c0 1.434-1.167 2.6-2.6 2.6h-16.568c-5.205-5.183-11.448-9.318-18.378-12.09l-.737-6.275c2.319-2.898 5.847-4.635 9.634-4.635h26.05c1.434 0 2.6 1.167 2.6 2.6v17.8z"/><path d="m120.68 319h-15.911c-16.415 0-29.769 13.354-29.769 29.769v13.346c0 14.273 11.612 25.885 25.885 25.885h37.436c14.159 0 25.679-11.52 25.679-25.68 0-23.886-19.434-43.32-43.32-43.32zm17.641 54h-37.436c-6.002 0-10.885-4.883-10.885-10.885v-13.346c0-8.144 6.625-14.769 14.769-14.769h15.911c15.616 0 28.32 12.705 28.32 28.321 0 5.888-4.791 10.679-10.679 10.679z"/><path d="m434.231 319h-15.911c-23.887 0-43.32 19.434-43.32 43.321 0 14.159 11.52 25.679 25.679 25.679h37.436c14.273 0 25.885-11.612 25.885-25.885v-13.346c0-16.415-13.354-29.769-29.769-29.769zm14.769 43.115c0 6.002-4.883 10.885-10.885 10.885h-37.436c-5.889 0-10.679-4.791-10.679-10.68 0-15.616 12.705-28.32 28.32-28.32h15.911c8.144 0 14.769 6.625 14.769 14.769z"/><path d="m310 320h-81c-21.78 0-39.5 17.72-39.5 39.5s17.72 39.5 39.5 39.5h81c21.78 0 39.5-17.72 39.5-39.5s-17.72-39.5-39.5-39.5zm0 64h-81c-13.509 0-24.5-10.991-24.5-24.5s10.991-24.5 24.5-24.5h81c13.509 0 24.5 10.991 24.5 24.5s-10.991 24.5-24.5 24.5z"/><path d="m85.5 64.752c-12.958 0-23.5 10.542-23.5 23.5s10.542 23.5 23.5 23.5 23.5-10.542 23.5-23.5-10.542-23.5-23.5-23.5zm0 32c-4.687 0-8.5-3.813-8.5-8.5s3.813-8.5 8.5-8.5 8.5 3.813 8.5 8.5-3.813 8.5-8.5 8.5z"/><path d="m136.107 67.29c1.992-8.128-.234-17.054-6.413-23.232-6.179-6.179-15.106-8.404-23.232-6.413-4.339-7.155-12.225-11.893-20.962-11.893s-16.623 4.738-20.962 11.893c-8.125-1.991-17.053.235-23.232 6.413-6.178 6.178-8.403 15.104-6.413 23.232-7.155 4.339-11.893 12.225-11.893 20.962s4.738 16.623 11.893 20.962c-1.991 8.127.235 17.054 6.413 23.232 6.179 6.178 15.104 8.403 23.232 6.412 4.339 7.154 12.226 11.893 20.962 11.893s16.623-4.739 20.962-11.893c8.129 1.991 17.055-.235 23.232-6.413 6.178-6.178 8.404-15.104 6.413-23.232 7.155-4.338 11.893-12.224 11.893-20.961 0-8.736-4.739-16.623-11.893-20.962zm-11.184 30.335c-2.602.39-4.81 2.116-5.817 4.547s-.666 5.212.898 7.328c2.768 3.744 2.374 9.049-.917 12.339-3.29 3.29-8.595 3.684-12.339.917-2.116-1.563-4.896-1.905-7.328-.898-2.431 1.007-4.157 3.214-4.547 5.816-.691 4.605-4.721 8.077-9.374 8.077s-8.683-3.472-9.374-8.077c-.39-2.602-2.116-4.81-4.547-5.817-.924-.383-1.899-.571-2.869-.571-1.581 0-3.148.5-4.459 1.469-3.745 2.767-9.049 2.374-12.339-.917-3.291-3.291-3.685-8.595-.917-12.339 1.564-2.116 1.905-4.897.898-7.328s-3.215-4.157-5.817-4.547c-4.603-.689-8.075-4.719-8.075-9.372s3.472-8.683 8.077-9.374c2.602-.39 4.81-2.116 5.816-4.547s.666-5.212-.898-7.328c-2.768-3.744-2.374-9.049.917-12.339 3.292-3.29 8.596-3.684 12.339-.917 2.116 1.564 4.897 1.905 7.328.898s4.157-3.215 4.547-5.817c.69-4.604 4.72-8.077 9.374-8.077 4.653 0 8.683 3.472 9.374 8.077.39 2.602 2.116 4.81 4.547 5.816 2.432 1.007 5.213.666 7.328-.898 3.744-2.768 9.048-2.374 12.339.917 3.291 3.29 3.685 8.594.917 12.338-1.564 2.116-1.905 4.897-.898 7.328s3.214 4.157 5.816 4.547c4.605.691 8.077 4.721 8.077 9.374 0 4.655-3.472 8.685-8.077 9.375z"/></g></g></svg>