<svg id="Layer_1" enable-background="new 0 0 512 512" height="512" viewBox="0 0 512 512" width="512" xmlns="http://www.w3.org/2000/svg"><g><g><path d="m494.96 368.167v-15.735c0-.01.001-.019.001-.029v-40.003c0-.01-.001-.019-.001-.029v-3.971c0-15.463-11.587-28.428-26.948-30.155l-98.893-11.172-25.885-77.79c1.7-2.031 2.728-4.644 2.728-7.494v-4.693c0-14.677-11.939-26.617-26.615-26.617h-127.618c-4.142 0-7.5 3.358-7.5 7.501s3.358 7.501 7.5 7.501h127.617c6.405 0 11.615 5.211 11.615 11.616v1.385h-195v-1.385c0-6.405 5.21-11.616 11.615-11.616h12.478c4.142 0 7.5-3.358 7.5-7.501s-3.358-7.501-7.5-7.501h-12.478c-14.676 0-26.615 11.94-26.615 26.617v4.693c0 3.104 1.224 5.923 3.205 8.018l-25.206 77.105-35.23 2.837v-18.071c0-6.766-5.504-12.27-12.27-12.27h-24.46c-6.765 0-12.269 5.504-12.269 12.27v28.91c0 .007-.001.013-.001.019v88.285c-3.02 1.111-5.793 2.849-8.124 5.188-4.26 4.247-6.606 9.898-6.606 15.916 0 12.408 10.093 22.502 22.5 22.502h26.359c4.075 24.921 25.747 44.003 51.802 44.003s47.726-19.082 51.802-44.003h134.847c4.142 0 7.5-3.358 7.5-7.501s-3.358-7.501-7.5-7.501h-134.566c-.656-5.283-2.097-10.322-4.206-15.001h207.585c-2.11 4.679-3.551 9.718-4.206 15.001h-31.677c-4.142 0-7.5 3.358-7.5 7.501s3.358 7.501 7.5 7.501h31.958c4.076 24.92 25.748 44.002 51.802 44.002s47.726-19.082 51.802-44.003h33.698c6.017 0 11.668-2.346 15.894-6.587 4.26-4.245 6.606-9.897 6.606-15.914 0-10.525-7.264-19.382-17.04-21.829zm-15-23.264h-14.319c-9.197 0-16.68-7.483-16.68-16.68v-5.795c0-1.393 1.133-2.526 2.526-2.526h28.473zm-126.845-78.416h-97.615v-73.005h73.322zm-112.615-73.005v73.005h-15v-73.005zm-101.753 0h71.753v73.005h-95.619zm-109.016 60.928h19v29.502c0 10.586-8.478 19.229-19 19.495zm-14.731 135.586c0-2 .779-3.878 2.213-5.307 1.409-1.415 3.287-2.194 5.287-2.194h30.284c-2.11 4.679-3.551 9.718-4.206 15.001h-26.078c-4.136 0-7.5-3.364-7.5-7.5zm85.661 51.503c-20.678 0-37.5-16.823-37.5-37.503s16.822-37.503 37.5-37.503 37.5 16.823 37.5 37.503-16.822 37.503-37.5 37.503zm0-90.006c-14.775 0-28.134 6.144-37.683 16.001h-33.248v-49.093c18.496-.265 33.508-15.153 33.978-33.601l41.133-3.312h121.12v86.006h-87.617c-9.549-9.857-22.908-16.001-37.683-16.001zm140.3 16.001v-86.006h122.126l103.244 11.664c6.573.739 11.763 5.551 13.21 11.748h-28.055c-9.664 0-17.526 7.863-17.526 17.527v5.795c0 17.469 14.211 31.681 31.68 31.681h14.319v7.59h-38.277c-9.549-9.857-22.909-16.001-37.683-16.001s-28.134 6.144-37.683 16.001h-125.355zm163.039 74.005c-20.678 0-37.5-16.823-37.5-37.503s16.822-37.503 37.5-37.503 37.5 16.823 37.5 37.503-16.822 37.503-37.5 37.503zm90.787-46.197c-1.409 1.415-3.287 2.194-5.287 2.194h-33.417c-.656-5.283-2.097-10.322-4.206-15.001h37.623c4.136 0 7.5 3.365 7.5 7.501 0 2-.779 3.878-2.213 5.306z"/><path d="m404 380.495c-12.958 0-23.5 10.543-23.5 23.502s10.542 23.502 23.5 23.502 23.5-10.543 23.5-23.502-10.542-23.502-23.5-23.502zm0 32.002c-4.687 0-8.5-3.813-8.5-8.501 0-4.687 3.813-8.501 8.5-8.501s8.5 3.813 8.5 8.501-3.813 8.501-8.5 8.501z"/><path d="m100.661 380.495c-12.958 0-23.5 10.543-23.5 23.502s10.542 23.502 23.5 23.502 23.5-10.543 23.5-23.502-10.542-23.502-23.5-23.502zm0 32.002c-4.687 0-8.5-3.813-8.5-8.501 0-4.687 3.813-8.501 8.5-8.501s8.5 3.813 8.5 8.501-3.813 8.501-8.5 8.501z"/><path d="m299.154 300.797h-14.769c-4.142 0-7.5 3.358-7.5 7.501s3.358 7.5 7.5 7.5h14.769c4.142 0 7.5-3.358 7.5-7.5s-3.358-7.501-7.5-7.501z"/><path d="m196.333 300.797h-14.769c-4.142 0-7.5 3.358-7.5 7.501s3.358 7.5 7.5 7.5h14.769c4.142 0 7.5-3.358 7.5-7.5s-3.357-7.501-7.5-7.501z"/><path d="m278.566 120.497h48.575c1.583 12.14 7.015 23.869 16.32 33.175 11.213 11.214 25.943 16.821 40.672 16.821 7.383 0 14.765-1.41 21.705-4.227l39.613 39.617c4.251 4.259 9.905 6.604 15.918 6.604s11.667-2.345 15.913-6.6c8.774-8.775 8.774-23.053 0-31.829l-39.754-39.757c3.842-9.644 5.088-20.287 3.341-30.787-.68-4.087-4.548-6.848-8.629-6.168-4.086.68-6.847 4.544-6.167 8.63 2.252 13.536-2.187 27.401-11.874 37.089-16.578 16.579-43.554 16.579-60.132 0-6.377-6.378-10.291-14.296-11.762-22.567h14.772c2.39 0 4.637-1.139 6.05-3.068l3.983-5.436 8.665 21.959c1.036 2.626 3.459 4.448 6.269 4.714.237.023.474.034.709.034 2.552 0 4.95-1.303 6.333-3.486l9.326-14.717h7.036c4.142 0 7.5-3.358 7.5-7.501 0-4.142-3.358-7.501-7.5-7.501h-11.163c-2.569 0-4.96 1.315-6.335 3.486l-3.638 5.742-8.241-20.884c-1.003-2.541-3.308-4.336-6.018-4.686-2.707-.351-5.394.802-7.009 3.006l-9.771 13.336h-10.97c1.471-8.271 5.385-16.189 11.762-22.567 16.578-16.579 43.554-16.579 60.132 0 2.929 2.929 7.678 2.929 10.606 0 2.929-2.929 2.929-7.678 0-10.607-22.427-22.428-58.918-22.428-81.345 0-9.305 9.306-14.737 21.035-16.32 33.175h-48.575c-4.142 0-7.5 3.358-7.5 7.501.003 4.141 3.361 7.499 7.503 7.499zm188.11 64.168c2.926 2.926 2.926 7.688-.004 10.619-1.417 1.42-3.3 2.201-5.302 2.201s-3.885-.782-5.307-2.206l-36.771-36.774c1.912-1.479 3.76-3.08 5.514-4.833 1.832-1.832 3.51-3.785 5.059-5.821z"/></g></g></svg>