<svg id="Layer_1" enable-background="new 0 0 512 512" height="512" viewBox="0 0 512 512" width="512" xmlns="http://www.w3.org/2000/svg"><g><g><path d="m449.029 87.841c-2.723-3.123-7.461-3.446-10.582-.724-3.122 2.722-3.446 7.459-.725 10.582 8.601 9.865 16.325 20.362 23.143 31.362l-14.87 8.585c-3.587 2.071-4.816 6.658-2.745 10.245 1.39 2.406 3.91 3.751 6.502 3.751 1.272 0 2.563-.324 3.743-1.006l14.879-8.59c17.496 32.607 27.332 69.018 28.495 106.454h-17.151c-4.143 0-7.5 3.358-7.5 7.5s3.357 7.5 7.5 7.5h17.155c-1.146 37.75-10.929 74.01-28.418 106.501l-14.959-8.637c-3.59-2.072-8.176-.842-10.245 2.745-2.071 3.587-.842 8.174 2.745 10.245l14.93 8.62c-9.689 15.571-21.221 30.148-34.512 43.439s-27.868 24.824-43.439 34.513l-8.62-14.93c-2.071-3.587-6.66-4.816-10.245-2.745-3.587 2.071-4.816 6.658-2.745 10.245l8.635 14.959c-32.49 17.489-68.75 27.272-106.5 28.418v-17.155c0-4.142-3.357-7.5-7.5-7.5s-7.5 3.358-7.5 7.5v17.155c-37.75-1.146-74.01-10.929-106.5-28.418l8.637-14.959c2.071-3.587.842-8.174-2.745-10.245-3.586-2.072-8.175-.843-10.245 2.745l-8.62 14.93c-15.571-9.689-30.148-21.222-43.439-34.513s-24.823-27.868-34.512-43.439l14.93-8.62c3.587-2.071 4.816-6.658 2.745-10.245-2.072-3.588-6.659-4.816-10.245-2.745l-14.959 8.637c-17.49-32.491-27.273-68.751-28.42-106.501h17.155c4.143 0 7.5-3.358 7.5-7.5s-3.357-7.5-7.5-7.5h-17.155c1.146-37.75 10.929-74.01 28.418-106.501l14.959 8.637c1.182.682 2.471 1.006 3.743 1.006 2.592 0 5.113-1.346 6.502-3.751 2.071-3.587.842-8.174-2.745-10.245l-14.93-8.62c9.689-15.571 21.221-30.148 34.512-43.439s27.868-24.824 43.439-34.513l8.62 14.93c1.39 2.406 3.91 3.751 6.502 3.751 1.272 0 2.563-.324 3.743-1.006 3.587-2.071 4.816-6.658 2.745-10.245l-8.635-14.959c32.49-17.489 68.75-27.272 106.5-28.418v17.155c0 4.142 3.357 7.5 7.5 7.5s7.5-3.358 7.5-7.5v-17.151c37.465 1.162 73.855 11 106.453 28.497l-8.589 14.877c-2.071 3.587-.842 8.174 2.745 10.245 1.181.682 2.471 1.006 3.743 1.006 2.592 0 5.113-1.345 6.502-3.751l8.585-14.869c11.456 7.103 22.369 15.184 32.595 24.222 3.104 2.743 7.844 2.451 10.587-.653 2.742-3.104 2.45-7.843-.653-10.586-46.782-41.348-106.967-64.119-169.468-64.119-68.38 0-132.668 26.629-181.02 74.98-48.351 48.353-74.98 112.64-74.98 181.02s26.629 132.667 74.98 181.02c48.352 48.351 112.64 74.98 181.02 74.98s132.668-26.629 181.02-74.98c48.351-48.353 74.98-112.64 74.98-181.02 0-61.864-22.363-121.584-62.971-168.159z"/><path d="m131.911 162.802c-3.426-2.326-8.091-1.437-10.419 1.99-18.312 26.957-27.992 58.496-27.992 91.208 0 89.603 72.897 162.5 162.5 162.5s162.5-72.897 162.5-162.5-72.897-162.5-162.5-162.5c-42.141 0-82.09 16.062-112.488 45.228-2.989 2.868-3.087 7.616-.22 10.604 2.867 2.989 7.615 3.087 10.604.22 27.592-26.473 63.853-41.052 102.104-41.052 81.332 0 147.5 66.168 147.5 147.5s-66.168 147.5-147.5 147.5-147.5-66.168-147.5-147.5c0-29.694 8.783-58.319 25.4-82.78 2.328-3.426 1.437-8.091-1.989-10.418z"/><path d="m256 388.5c73.061 0 132.5-59.439 132.5-132.5s-59.439-132.5-132.5-132.5-132.5 59.439-132.5 132.5 59.439 132.5 132.5 132.5zm-111.108-94.264c35.268 11.243 63.37 38.716 75.412 73.715-35.277-11.275-63.359-38.79-75.412-73.715zm222.217-76.468c-35.283-11.242-63.375-38.705-75.416-73.719 35.28 11.274 63.364 38.791 75.416 73.719zm-92.321-77.759c12.45 46.727 49.742 83.185 96.748 94.568 1.286 6.949 1.964 14.108 1.964 21.423 0 7.316-.678 14.476-1.964 21.425-27.111 6.582-51.814 21.831-69.944 43.278-2.674 3.163-2.277 7.896.886 10.569 1.408 1.191 3.128 1.772 4.838 1.772 2.131 0 4.248-.903 5.731-2.658 14.284-16.898 33.169-29.437 54.051-36.123-12.058 34.912-40.134 62.416-75.402 73.687 1.446-4.203 3.125-8.327 5.04-12.335 1.785-3.738.202-8.215-3.535-10-3.737-1.786-8.215-.203-10 3.535-3.5 7.327-6.315 14.993-8.407 22.839-6.122.988-12.398 1.51-18.794 1.51-6.395 0-12.67-.521-18.79-1.509-12.448-46.706-49.761-83.184-96.746-94.565-1.286-6.95-1.964-14.11-1.964-21.426 0-7.315.678-14.475 1.964-21.424 46.958-11.376 84.29-47.863 96.741-94.566 6.122-.988 12.398-1.51 18.795-1.51 6.394.001 12.668.522 18.788 1.51zm-54.49 4.042c-12.046 34.996-40.157 62.474-75.407 73.715 12.052-34.924 40.132-62.439 75.407-73.715z"/><path d="m188.5 256c0 37.22 30.28 67.5 67.5 67.5s67.5-30.28 67.5-67.5-30.28-67.5-67.5-67.5-67.5 30.28-67.5 67.5zm120 0c0 28.949-23.552 52.5-52.5 52.5s-52.5-23.551-52.5-52.5 23.552-52.5 52.5-52.5 52.5 23.551 52.5 52.5z"/><path d="m234.5 228c0 2.864.574 5.594 1.595 8.095-2.501-1.021-5.231-1.595-8.095-1.595-11.855 0-21.5 9.645-21.5 21.5s9.645 21.5 21.5 21.5c2.864 0 5.594-.574 8.095-1.595-1.021 2.501-1.595 5.231-1.595 8.095 0 11.855 9.645 21.5 21.5 21.5s21.5-9.645 21.5-21.5c0-2.864-.574-5.594-1.595-8.095 2.501 1.021 5.231 1.595 8.095 1.595 11.855 0 21.5-9.645 21.5-21.5s-9.645-21.5-21.5-21.5c-2.864 0-5.594.574-8.095 1.595 1.021-2.501 1.595-5.231 1.595-8.095 0-11.855-9.645-21.5-21.5-21.5s-21.5 9.645-21.5 21.5zm13.405 19.905c2.501 1.021 5.231 1.595 8.095 1.595s5.594-.574 8.095-1.595c-1.021 2.501-1.595 5.231-1.595 8.095s.574 5.594 1.595 8.095c-2.501-1.021-5.231-1.595-8.095-1.595s-5.594.574-8.095 1.595c1.021-2.501 1.595-5.231 1.595-8.095s-.574-5.594-1.595-8.095zm-19.905 14.595c-3.584 0-6.5-2.916-6.5-6.5s2.916-6.5 6.5-6.5 6.5 2.916 6.5 6.5-2.916 6.5-6.5 6.5zm28 28c-3.584 0-6.5-2.916-6.5-6.5s2.916-6.5 6.5-6.5 6.5 2.916 6.5 6.5-2.916 6.5-6.5 6.5zm28-41c3.584 0 6.5 2.916 6.5 6.5s-2.916 6.5-6.5 6.5-6.5-2.916-6.5-6.5 2.916-6.5 6.5-6.5zm-21.5-21.5c0 3.584-2.916 6.5-6.5 6.5s-6.5-2.916-6.5-6.5 2.916-6.5 6.5-6.5 6.5 2.916 6.5 6.5z"/></g></g></svg>