<svg id="Layer_1" enable-background="new 0 0 512 512" height="512" viewBox="0 0 512 512" width="512" xmlns="http://www.w3.org/2000/svg"><g><g><path d="m97 95.326c4.143 0 7.5-3.358 7.5-7.5v-16.49c0-7.905 6.443-14.336 14.362-14.336h135.467c17.32 0 34.063 6.244 47.146 17.581 3.13 2.712 7.867 2.375 10.58-.756 2.713-3.13 2.374-7.867-.756-10.58-15.81-13.7-36.042-21.245-56.97-21.245h-27.665v-26.495c0-8.549-6.955-15.505-15.505-15.505h-54.074c-8.55 0-15.505 6.956-15.505 15.505v26.495h-22.718c-16.19 0-29.362 13.16-29.362 29.336v16.49c0 4.142 3.357 7.5 7.5 7.5zm59.58-79.821c0-.278.227-.505.505-.505h54.074c.278 0 .505.227.505.505v26.495h-55.084z"/><path d="m333.98 497h-215.118c-7.919 0-14.362-6.431-14.362-14.336v-15.164h168.726c17.377 0 31.514-14.137 31.514-31.514v-275.972c0-17.377-14.137-31.514-31.514-31.514h-168.726v-8.302c0-4.142-3.357-7.5-7.5-7.5s-7.5 3.358-7.5 7.5v362.466c0 16.176 13.172 29.336 29.362 29.336h215.118c4.143 0 7.5-3.358 7.5-7.5s-3.357-7.5-7.5-7.5zm-60.754-353.5c9.105 0 16.514 7.408 16.514 16.514v275.972c0 9.106-7.408 16.514-16.514 16.514h-168.726v-309z"/><path d="m392.536 133.646-56.468-48.936c-3.13-2.712-7.867-2.375-10.58.756-2.713 3.13-2.374 7.867.756 10.58l56.468 48.936c15.753 13.652 24.788 33.428 24.788 54.257v283.424c0 7.905-6.443 14.336-14.362 14.336h-27.025c-4.143 0-7.5 3.358-7.5 7.5s3.357 7.5 7.5 7.5h27.025c16.19 0 29.362-13.16 29.362-29.336v-283.423c0-25.183-10.922-49.091-29.964-65.594z"/><path d="m361.923 339.5h.027c16.825 0 30.514-13.688 30.514-30.514v-89.973c0-16.825-13.688-30.514-30.541-30.514-16.825 0-30.514 13.688-30.514 30.514v89.973c0 16.826 13.689 30.514 30.514 30.514zm-15.514-120.486c0-8.554 6.959-15.514 15.541-15.514 8.555 0 15.514 6.959 15.514 15.514v89.973c0 8.554-6.959 15.514-15.514 15.514h-.027c-8.555 0-15.514-6.959-15.514-15.514z"/><path d="m145.97 242.5h96.329c7.941 0 14.401-6.46 14.401-14.401v-30.197c0-7.941-6.46-14.401-14.401-14.401h-96.329c-7.941 0-14.401 6.46-14.401 14.401v30.197c-.001 7.941 6.459 14.401 14.401 14.401zm.598-44h95.132v29h-95.132z"/><path d="m139.068 287h110.132c4.143 0 7.5-3.358 7.5-7.5s-3.357-7.5-7.5-7.5h-110.132c-4.143 0-7.5 3.358-7.5 7.5s3.358 7.5 7.5 7.5z"/><path d="m139.068 323.5h110.132c4.143 0 7.5-3.358 7.5-7.5s-3.357-7.5-7.5-7.5h-110.132c-4.143 0-7.5 3.358-7.5 7.5s3.358 7.5 7.5 7.5z"/><path d="m139.068 360h110.132c4.143 0 7.5-3.358 7.5-7.5s-3.357-7.5-7.5-7.5h-110.132c-4.143 0-7.5 3.358-7.5 7.5s3.358 7.5 7.5 7.5z"/></g></g></svg>