<svg id="Layer_1" enable-background="new 0 0 512 512" height="512" viewBox="0 0 512 512" width="512" xmlns="http://www.w3.org/2000/svg"><g><g><path d="m421.04 196.304c-.019-.05-.034-.102-.053-.151-24.523-67.393-89.223-115.653-164.987-115.653-75.763 0-140.463 48.26-164.986 115.651-.021.052-.036.106-.056.159-6.763 18.642-10.458 38.742-10.458 59.69 0 .43.013.857.016 1.286-.01.269-.008.537.01.803.905 77.06 51.718 142.329 121.561 164.928.229.087.462.163.7.228 16.793 5.355 34.669 8.255 53.213 8.255s36.421-2.901 53.213-8.256c.23-.062.456-.137.677-.22 69.855-22.592 120.678-87.867 121.583-164.935.018-.266.021-.534.01-.803.003-.429.016-.856.016-1.286.001-20.951-3.695-41.053-10.459-59.696zm-165.04-100.804c66.494 0 123.67 40.647 147.995 98.398-23.324 6.292-46.268 11.329-68.399 15.029-16.131-27.172-45.77-45.427-79.596-45.427s-63.465 18.255-79.596 45.427c-22.131-3.7-45.075-8.737-68.399-15.029 24.325-57.751 81.501-98.398 147.995-98.398zm0 83c42.733 0 77.5 34.767 77.5 77.5s-34.767 77.5-77.5 77.5-77.5-34.767-77.5-77.5 34.767-77.5 77.5-77.5zm-44.903 231.599c-1.577-6.792-3.363-13.52-5.352-20.048-1.207-3.962-5.396-6.195-9.36-4.989-3.962 1.207-6.196 5.397-4.989 9.36.968 3.178 1.878 6.413 2.748 9.674-53.771-22.543-92.757-73.547-98.024-134.064 37.261 20.249 65.662 52.223 84.52 95.217 1.234 2.813 3.985 4.489 6.872 4.489 1.006 0 2.028-.204 3.009-.634 3.793-1.664 5.52-6.087 3.855-9.881-21.521-49.068-54.759-84.83-98.836-106.371.301-15.579 2.827-30.622 7.284-44.821 22.71 6.165 45.1 11.193 66.768 14.966-3.93 10.256-6.091 21.381-6.091 33.003 0 51.005 41.495 92.5 92.5 92.5s92.5-41.495 92.5-92.5c0-11.622-2.161-22.747-6.091-33.003 21.667-3.772 44.058-8.801 66.768-14.966 4.459 14.209 6.985 29.263 7.284 44.853-33.564 16.419-61.071 41.308-81.777 74.088-15.237 24.121-26.585 52.074-33.782 83.127-14.255 4.16-29.321 6.401-44.902 6.401-15.582 0-30.649-2.241-44.904-6.401zm106.741-5.996c12.355-46.453 39.337-102.165 98.042-134.069-5.269 60.523-44.263 111.531-98.042 134.069z"/><path d="m474.637 122.762c-2.159-3.535-6.774-4.651-10.31-2.492-3.535 2.159-4.651 6.774-2.492 10.31 23.005 37.672 35.165 81.042 35.165 125.42 0 64.374-25.068 124.894-70.587 170.413s-106.039 70.587-170.413 70.587-124.894-25.068-170.413-70.587-70.587-106.039-70.587-170.413 25.068-124.894 70.587-170.413 106.039-70.587 170.413-70.587c73.456 0 141.991 32.891 188.033 90.239 2.593 3.23 7.314 3.747 10.543 1.153 3.23-2.593 3.746-7.313 1.153-10.543-48.903-60.914-121.702-95.849-199.729-95.849-68.38 0-132.667 26.629-181.02 74.98-48.351 48.353-74.98 112.64-74.98 181.02s26.629 132.667 74.98 181.02c48.353 48.351 112.64 74.98 181.02 74.98s132.667-26.629 181.02-74.98c48.351-48.353 74.98-112.64 74.98-181.02 0-47.138-12.92-93.211-37.363-133.238z"/><path d="m106.799 114.687c-36.305 38.319-56.299 88.505-56.299 141.313 0 113.313 92.187 205.5 205.5 205.5s205.5-92.187 205.5-205.5-92.187-205.5-205.5-205.5c-45.47 0-88.557 14.549-124.604 42.073-3.292 2.514-3.923 7.221-1.409 10.513s7.221 3.922 10.513 1.409c33.409-25.511 73.348-38.995 115.5-38.995 105.042 0 190.5 85.458 190.5 190.5s-85.458 190.5-190.5 190.5-190.5-85.458-190.5-190.5c0-48.954 18.534-95.476 52.188-130.997 2.849-3.007 2.721-7.754-.286-10.603s-7.755-2.72-10.603.287z"/><path d="m256 313.5c31.706 0 57.5-25.794 57.5-57.5s-25.794-57.5-57.5-57.5-57.5 25.794-57.5 57.5 25.794 57.5 57.5 57.5zm0-100c23.435 0 42.5 19.065 42.5 42.5s-19.065 42.5-42.5 42.5-42.5-19.065-42.5-42.5 19.065-42.5 42.5-42.5z"/></g></g></svg>