<svg id="Layer_1" enable-background="new 0 0 512 512" height="512" viewBox="0 0 512 512" width="512" xmlns="http://www.w3.org/2000/svg"><g><path d="m504.5 120.5h-9v-52.5c0-4.142-3.358-7.5-7.5-7.5h-72.436c-4.142 0-7.5 3.358-7.5 7.5s3.358 7.5 7.5 7.5h64.936v45h-16.614l-5.942-24.283c-.821-3.356-3.83-5.717-7.285-5.717h-45.317c-3.456 0-6.464 2.361-7.285 5.717l-5.942 24.283h-26.615v-45h18.474c4.142 0 7.5-3.358 7.5-7.5s-3.358-7.5-7.5-7.5h-359.974c-4.142 0-7.5 3.358-7.5 7.5v52.5h-9c-4.142 0-7.5 3.358-7.5 7.5v63.974c0 4.142 3.358 7.5 7.5 7.5s7.5-3.358 7.5-7.5v-26.474h482v252.5c0 10.201-8.299 18.5-18.5 18.5h-29.331v-20.32c0-4.142-3.358-7.5-7.5-7.5s-7.5 3.358-7.5 7.5v20.32h-53v-92.5c0-14.612 11.888-26.5 26.5-26.5s26.5 11.888 26.5 26.5v39.302c0 4.142 3.358 7.5 7.5 7.5s7.5-3.358 7.5-7.5v-39.302c0-22.883-18.617-41.5-41.5-41.5s-41.5 18.617-41.5 41.5v92.5h-68.669v-92.5c0-22.883-18.617-41.5-41.5-41.5s-41.5 18.617-41.5 41.5v92.5h-68.669v-92.5c0-22.883-18.617-41.5-41.5-41.5s-41.5 18.617-41.5 41.5v92.5h-29.331c-10.201 0-18.5-8.299-18.5-18.5v-193.82c0-4.142-3.358-7.5-7.5-7.5s-7.5 3.358-7.5 7.5v193.82c0 18.472 15.028 33.5 33.5 33.5h445c18.472 0 33.5-15.028 33.5-33.5v-290c0-4.142-3.358-7.5-7.5-7.5zm-426.669 316v-92.5c0-14.612 11.888-26.5 26.5-26.5s26.5 11.888 26.5 26.5v92.5zm151.669 0v-92.5c0-14.612 11.888-26.5 26.5-26.5s26.5 11.888 26.5 26.5v92.5zm181.727-331h33.546l3.67 15h-40.887zm-60.727-30v45h-189v-45zm-319 0h115v45h-26.614l-5.942-24.283c-.821-3.356-3.83-5.717-7.285-5.717h-45.318c-3.456 0-6.464 2.361-7.285 5.717l-5.942 24.283h-16.614zm72.943 45h-40.886l3.67-15h33.546zm-89.443 30v-15h482v15z"/></g></svg>