<svg id="Layer_1" enable-background="new 0 0 512 512" height="512" viewBox="0 0 512 512" width="512" xmlns="http://www.w3.org/2000/svg"><g><g><path d="m188 287.354c17.289 0 31.354-14.065 31.354-31.354s-14.065-31.354-31.354-31.354-31.354 14.065-31.354 31.354 14.065 31.354 31.354 31.354zm0-47.708c9.018 0 16.354 7.336 16.354 16.354s-7.336 16.354-16.354 16.354-16.354-7.336-16.354-16.354 7.336-16.354 16.354-16.354z"/><path d="m124.714 319.286c8.97 8.97 22.262 11.723 33.836 7.813 5.417 10.949 16.765 18.401 29.45 18.401s24.033-7.452 29.45-18.401c11.572 3.913 24.866 1.158 33.836-7.813 8.971-8.971 11.725-22.264 7.813-33.836 10.949-5.417 18.401-16.765 18.401-29.45s-7.452-24.033-18.401-29.45c3.912-11.572 1.158-24.865-7.813-33.836-8.971-8.97-22.263-11.726-33.836-7.813-5.417-10.949-16.764-18.401-29.45-18.401s-24.033 7.452-29.45 18.401c-11.571-3.912-24.866-1.157-33.836 7.813-8.97 8.971-11.725 22.264-7.813 33.836-10.949 5.417-18.401 16.764-18.401 29.45s7.452 24.033 18.401 29.45c-3.912 11.572-1.157 24.865 7.813 33.836zm-11.214-63.286c0-8.745 6.525-16.318 15.178-17.616 2.602-.39 4.81-2.116 5.816-4.547s.666-5.212-.898-7.328c-5.201-7.036-4.459-17.004 1.724-23.188 6.184-6.183 16.152-6.926 23.188-1.724 2.116 1.564 4.897 1.905 7.328.898s4.157-3.214 4.547-5.816c1.298-8.653 8.871-15.178 17.616-15.178s16.318 6.525 17.616 15.178c.39 2.602 2.116 4.81 4.547 5.816 2.433 1.007 5.212.666 7.328-.898 7.035-5.201 17.003-4.459 23.188 1.724 6.184 6.184 6.925 16.153 1.724 23.188-1.564 2.116-1.905 4.897-.898 7.328s3.214 4.157 5.816 4.547c8.653 1.298 15.178 8.871 15.178 17.616s-6.525 16.318-15.178 17.616c-2.602.39-4.81 2.116-5.816 4.547s-.666 5.212.898 7.328c5.201 7.036 4.459 17.004-1.724 23.188-6.185 6.183-16.153 6.924-23.188 1.724-2.116-1.563-4.897-1.905-7.328-.898s-4.157 3.214-4.547 5.816c-1.298 8.653-8.871 15.178-17.616 15.178s-16.318-6.525-17.616-15.178c-.39-2.602-2.116-4.81-4.547-5.816-.925-.383-1.899-.571-2.869-.571-1.581 0-3.147.5-4.459 1.469-7.036 5.2-17.004 4.459-23.188-1.724-6.184-6.184-6.925-16.153-1.724-23.188 1.564-2.116 1.905-4.897.898-7.328s-3.214-4.157-5.816-4.547c-8.653-1.298-15.178-8.871-15.178-17.616z"/><path d="m96.385 412.5h-55.885c-1.378 0-2.5-1.122-2.5-2.5v-4.198h8.5c12.407 0 22.5-10.093 22.5-22.5s-10.093-22.5-22.5-22.5h-8.5v-18.651h8.5c12.407 0 22.5-10.093 22.5-22.5s-10.093-22.5-22.5-22.5h-8.5v-18.651h8.5c12.407 0 22.5-10.093 22.5-22.5s-10.093-22.5-22.5-22.5h-8.5v-18.651h8.5c12.407 0 22.5-10.093 22.5-22.5s-10.093-22.5-22.5-22.5h-8.5v-18.651h8.5c12.407 0 22.5-10.093 22.5-22.5s-10.093-22.5-22.5-22.5h-8.5v-4.198c0-1.378 1.122-2.5 2.5-2.5h375.27c4.143 0 7.5-3.358 7.5-7.5s-3.357-7.5-7.5-7.5h-375.27c-9.649 0-17.5 7.851-17.5 17.5v4.198h-.5c-12.407 0-22.5 10.093-22.5 22.5s10.093 22.5 22.5 22.5h.5v18.651h-.5c-12.407 0-22.5 10.093-22.5 22.5s10.093 22.5 22.5 22.5h.5v18.651h-.5c-12.407 0-22.5 10.093-22.5 22.5s10.093 22.5 22.5 22.5h.5v18.651h-.5c-12.407 0-22.5 10.093-22.5 22.5s10.093 22.5 22.5 22.5h.5v18.651h-.5c-12.407 0-22.5 10.093-22.5 22.5s10.093 22.5 22.5 22.5h.5v4.198c0 9.649 7.851 17.5 17.5 17.5h55.885c4.142 0 7.5-3.358 7.5-7.5s-3.358-7.5-7.5-7.5zm-81.385-283.802c0-4.136 3.364-7.5 7.5-7.5h7.961c.013 0 .026.002.039.002s.026-.002.039-.002h15.961c4.136 0 7.5 3.364 7.5 7.5s-3.364 7.5-7.5 7.5h-24c-4.136 0-7.5-3.364-7.5-7.5zm0 63.651c0-4.136 3.364-7.5 7.5-7.5h7.981c.006 0 .013.001.019.001s.013-.001.019-.001h15.981c4.136 0 7.5 3.364 7.5 7.5s-3.364 7.5-7.5 7.5h-24c-4.136 0-7.5-3.364-7.5-7.5zm0 63.651c0-4.136 3.364-7.5 7.5-7.5h24c4.136 0 7.5 3.364 7.5 7.5s-3.364 7.5-7.5 7.5h-24c-4.136 0-7.5-3.364-7.5-7.5zm0 63.651c0-4.136 3.364-7.5 7.5-7.5h24c4.136 0 7.5 3.364 7.5 7.5s-3.364 7.5-7.5 7.5h-15.981c-.006 0-.013-.001-.019-.001s-.013.001-.019.001h-7.981c-4.136 0-7.5-3.364-7.5-7.5zm0 63.651c0-4.136 3.364-7.5 7.5-7.5h24c4.136 0 7.5 3.364 7.5 7.5s-3.364 7.5-7.5 7.5h-15.961c-.013 0-.026-.002-.039-.002s-.026.002-.039.002h-7.961c-4.136 0-7.5-3.364-7.5-7.5z"/><path d="m504.5 359.68c4.143 0 7.5-3.358 7.5-7.5v-250.18c0-9.649-7.851-17.5-17.5-17.5h-46.115c-4.143 0-7.5 3.358-7.5 7.5s3.357 7.5 7.5 7.5h18.615v313h-338.82c-4.142 0-7.5 3.358-7.5 7.5s3.358 7.5 7.5 7.5h366.32c9.649 0 17.5-7.851 17.5-17.5v-25.82c0-4.142-3.357-7.5-7.5-7.5s-7.5 3.358-7.5 7.5v25.82c0 1.378-1.121 2.5-2.5 2.5h-12.5v-313h12.5c1.379 0 2.5 1.122 2.5 2.5v250.18c0 4.142 3.357 7.5 7.5 7.5z"/><path d="m305.5 175c0 4.142 3.357 7.5 7.5 7.5h120c4.143 0 7.5-3.358 7.5-7.5s-3.357-7.5-7.5-7.5h-120c-4.143 0-7.5 3.358-7.5 7.5z"/><path d="m433 221.5h-120c-4.143 0-7.5 3.358-7.5 7.5s3.357 7.5 7.5 7.5h120c4.143 0 7.5-3.358 7.5-7.5s-3.357-7.5-7.5-7.5z"/><path d="m433 275.5h-120c-4.143 0-7.5 3.358-7.5 7.5s3.357 7.5 7.5 7.5h120c4.143 0 7.5-3.358 7.5-7.5s-3.357-7.5-7.5-7.5z"/><path d="m433 329.5h-120c-4.143 0-7.5 3.358-7.5 7.5s3.357 7.5 7.5 7.5h120c4.143 0 7.5-3.358 7.5-7.5s-3.357-7.5-7.5-7.5z"/></g></g></svg>