<svg id="Layer_1" enable-background="new 0 0 512 512" height="512" viewBox="0 0 512 512" width="512" xmlns="http://www.w3.org/2000/svg"><g><g><path d="m179.005 437c-12.405 0-22.499 10.093-22.499 22.5s10.093 22.5 22.499 22.5 22.499-10.093 22.499-22.5-10.094-22.5-22.499-22.5zm0 30c-4.135 0-7.5-3.364-7.5-7.5s3.364-7.5 7.5-7.5c4.135 0 7.5 3.364 7.5 7.5s-3.365 7.5-7.5 7.5z"/><path d="m310.497 459.5c0 12.407 10.093 22.5 22.499 22.5s22.499-10.093 22.499-22.5-10.094-22.5-22.5-22.5-22.498 10.093-22.498 22.5zm29.998 0c0 4.136-3.364 7.5-7.5 7.5-4.135 0-7.5-3.364-7.5-7.5s3.364-7.5 7.5-7.5 7.5 3.364 7.5 7.5z"/><path d="m218.64 160.06c6.028-2.171 10.849-6.561 13.576-12.358 2.726-5.798 3.032-12.311.861-18.339-2.172-6.028-6.56-10.85-12.358-13.577-3.251-1.53-6.728-2.297-10.217-2.294v-5.949c5.827-2.153 9.999-7.747 9.999-14.312v-14.462c0-6.565-4.173-12.16-9.999-14.312v-13.457h7.5c4.142 0 7.5-3.358 7.5-7.5v-36c0-4.142-3.357-7.5-7.5-7.5h-77.995c-4.142 0-7.5 3.358-7.5 7.5v36c0 4.142 3.357 7.5 7.5 7.5h7.5v13.457c-5.827 2.153-9.999 7.747-9.999 14.312v14.462c0 6.565 4.173 12.16 9.999 14.312v27.149l-8.137 2.931c-6.028 2.171-10.849 6.561-13.576 12.358-2.726 5.798-3.032 12.311-.861 18.339 2.172 6.028 6.56 10.85 12.358 13.577 3.244 1.526 6.712 2.294 10.194 2.294.008 0 .016-.001.023-.001v20.498l-8.137 2.931c-6.028 2.171-10.849 6.561-13.576 12.358-2.726 5.798-3.032 12.311-.861 18.339 2.172 6.028 6.56 10.85 12.358 13.577 3.244 1.526 6.712 2.293 10.194 2.293.008 0 .016-.001.023-.001v20.498l-8.137 2.931c-6.028 2.171-10.849 6.561-13.576 12.359-2.726 5.798-3.032 12.311-.86 18.339 3.517 9.763 12.75 15.852 22.574 15.858v20.509l-8.137 2.931c-6.028 2.171-10.849 6.561-13.576 12.358-2.726 5.798-3.032 12.311-.861 18.339 2.172 6.028 6.56 10.85 12.358 13.577 3.244 1.526 6.712 2.294 10.193 2.294.008 0 .016-.001.024-.001v23.349c-12.742 9.588-20.999 24.832-20.999 41.971 0 28.949 23.55 52.5 52.497 52.5s52.497-23.551 52.497-52.5c0-17.139-8.257-32.383-20.999-41.971v-44.546l8.137-2.931c6.028-2.171 10.849-6.561 13.576-12.359 2.726-5.798 3.032-12.311.86-18.339-3.517-9.763-12.751-15.85-22.574-15.856v-20.511l8.137-2.931c6.028-2.171 10.849-6.561 13.576-12.358 2.726-5.798 3.032-12.311.861-18.339-2.172-6.028-6.56-10.85-12.358-13.577-3.252-1.53-6.728-2.297-10.217-2.293v-20.498l8.137-2.931c6.028-2.171 10.849-6.561 13.576-12.359 2.726-5.798 3.032-12.311.861-18.339-2.172-6.028-6.56-10.85-12.358-13.577-3.251-1.529-6.727-2.296-10.217-2.293v-20.498zm-65.864-66.56c-.148 0-.27-.121-.27-.269v-14.462c0-.148.121-.269.27-.269h52.458c.148 0 .27.121.27.269v14.462c0 .148-.121.269-.27.269zm-5.269-78.5h62.996v21h-62.996zm47.997 36v12.5h-32.998v-12.5zm-32.998 57.5h32.998v8.902l-32.998 11.887zm-18.832 59.825c-2.173-1.022-3.816-2.829-4.63-5.087s-.699-4.699.322-6.871 2.828-3.816 5.087-4.63l63.013-22.7c.994-.358 2.024-.537 3.051-.537 1.305 0 2.604.288 3.819.859 2.173 1.022 3.816 2.829 4.63 5.087s.699 4.699-.322 6.871-2.828 3.816-5.087 4.63l-63.013 22.7c-2.257.815-4.699.699-6.87-.322zm72.828 291.175c0 20.678-16.821 37.5-37.498 37.5s-37.498-16.822-37.498-37.5 16.821-37.5 37.498-37.5 37.498 16.822 37.498 37.5zm-20.998-49.829c-5.192-1.724-10.736-2.671-16.499-2.671s-11.307.947-16.499 2.671v-19.401l32.998-11.887zm23.461-65.236c.814 2.259.699 4.699-.322 6.872s-2.828 3.817-5.087 4.63l-63.013 22.7c-2.258.813-4.698.699-6.87-.322-2.173-1.022-3.816-2.829-4.63-5.087s-.699-4.699.322-6.871 2.828-3.816 5.087-4.63l63.013-22.7c1.003-.361 2.027-.532 3.037-.532 3.683-.002 7.146 2.28 8.463 5.94zm-4.629-75.083c2.173 1.022 3.816 2.829 4.63 5.087s.699 4.699-.322 6.871-2.828 3.816-5.087 4.63l-19.938 7.183c-3.896 1.404-5.918 5.701-4.514 9.598 1.023 2.839 3.581 4.674 6.4 4.923v19.747l-32.998 11.887v-19.004l6.126-2.207c3.896-1.404 5.918-5.701 4.514-9.598s-5.7-5.917-9.598-4.515l-13.004 4.685c-2.257.814-4.699.698-6.87-.323-2.173-1.022-3.816-2.829-4.631-5.087-.813-2.258-.698-4.699.323-6.871s2.828-3.817 5.087-4.63l63.013-22.7c2.257-.812 4.697-.698 6.869.324zm-18.832-11.957-32.998 11.887v-19.004l32.998-11.887zm18.832-58.04c2.173 1.021 3.816 2.828 4.63 5.087.814 2.258.699 4.699-.322 6.871s-2.828 3.817-5.087 4.63l-63.013 22.7c-2.258.813-4.698.7-6.87-.323-2.173-1.021-3.816-2.828-4.63-5.086-.814-2.259-.699-4.699.322-6.872 1.021-2.172 2.828-3.816 5.087-4.63l63.013-22.7c.995-.358 2.024-.537 3.052-.537 1.303.001 2.603.289 3.818.86zm-18.832-11.957-32.998 11.887v-19.004l32.998-11.887z"/><path d="m372.631 230.056c6.028-2.171 10.849-6.561 13.576-12.359 2.726-5.798 3.032-12.311.861-18.339-2.172-6.028-6.56-10.85-12.358-13.577-3.251-1.529-6.727-2.296-10.217-2.293v-20.498l8.137-2.931c6.028-2.171 10.849-6.561 13.576-12.358 2.726-5.798 3.032-12.311.861-18.339-2.172-6.028-6.56-10.85-12.358-13.577-3.251-1.53-6.728-2.297-10.217-2.294v-5.949c5.827-2.153 9.999-7.747 9.999-14.312v-14.461c0-6.565-4.173-12.16-9.999-14.312v-13.457h7.5c4.142 0 7.5-3.358 7.5-7.5v-36c0-4.142-3.357-7.5-7.5-7.5h-27.614c-4.142 0-7.5 3.358-7.5 7.5s3.357 7.5 7.5 7.5h20.114v21h-62.996v-21h10.422c4.142 0 7.5-3.358 7.5-7.5s-3.357-7.5-7.5-7.5h-17.922c-4.142 0-7.5 3.358-7.5 7.5v36c0 4.142 3.357 7.5 7.5 7.5h7.5v13.457c-5.827 2.153-9.999 7.747-9.999 14.312v14.462c0 6.565 4.173 12.16 9.999 14.312v27.149l-8.137 2.931c-6.028 2.171-10.849 6.561-13.576 12.358-2.726 5.798-3.032 12.311-.861 18.339 2.172 6.028 6.56 10.85 12.358 13.577 3.244 1.526 6.712 2.294 10.194 2.294.008 0 .016-.001.023-.001v20.498l-8.137 2.931c-6.028 2.171-10.849 6.561-13.576 12.358-2.726 5.798-3.032 12.311-.861 18.339 2.172 6.028 6.56 10.85 12.358 13.577 3.244 1.526 6.712 2.293 10.194 2.293.008 0 .016-.001.023-.001v20.498l-8.137 2.931c-6.028 2.171-10.849 6.561-13.576 12.359-2.726 5.798-3.032 12.311-.86 18.339 3.517 9.763 12.75 15.852 22.574 15.858v20.509l-8.137 2.931c-6.028 2.171-10.849 6.561-13.576 12.358-2.726 5.798-3.032 12.311-.861 18.339 2.172 6.028 6.56 10.85 12.358 13.577 3.244 1.526 6.712 2.294 10.193 2.294.008 0 .016-.001.024-.001v23.349c-12.742 9.588-20.999 24.832-20.999 41.971 0 28.949 23.55 52.5 52.497 52.5 10.266 0 20.213-2.966 28.765-8.577 3.463-2.272 4.428-6.922 2.156-10.385-2.27-3.462-6.919-4.429-10.384-2.157-6.101 4.003-13.202 6.119-20.537 6.119-20.676 0-37.498-16.822-37.498-37.5s16.821-37.5 37.498-37.5c20.676 0 37.498 16.822 37.498 37.5 0 3.526-.487 7.014-1.449 10.367-1.143 3.981 1.159 8.135 5.14 9.277 3.979 1.142 8.135-1.159 9.277-5.142 1.348-4.698 2.031-9.578 2.031-14.503 0-17.139-8.257-32.383-20.999-41.971v-44.545l8.137-2.931c6.028-2.171 10.849-6.561 13.576-12.359 2.726-5.798 3.032-12.311.86-18.339-3.517-9.763-12.751-15.85-22.574-15.856v-20.511l8.137-2.931c6.028-2.171 10.849-6.561 13.576-12.358 2.726-5.798 3.032-12.311.861-18.339-2.172-6.028-6.56-10.85-12.358-13.577-3.252-1.53-6.728-2.297-10.217-2.293v-20.498zm-65.865-136.556c-.148 0-.27-.121-.27-.269v-14.462c0-.148.121-.269.27-.269h52.458c.148 0 .27.121.27.269v14.462c0 .148-.121.269-.27.269zm42.728-42.5v12.5h-32.998v-12.5zm-32.998 57.5h32.998v8.902l-32.998 11.887zm-18.832 59.825c-2.173-1.022-3.816-2.829-4.63-5.087s-.699-4.699.322-6.871 2.828-3.816 5.087-4.63l63.013-22.7c.994-.358 2.024-.537 3.051-.537 1.305 0 2.604.288 3.819.859 2.173 1.022 3.816 2.829 4.63 5.087s.699 4.699-.322 6.871-2.828 3.816-5.087 4.63l-63.013 22.7c-2.258.815-4.699.699-6.87-.322zm18.832 11.957 32.998-11.887v19.004l-32.998 11.887zm-18.832 58.039c-2.173-1.021-3.816-2.828-4.63-5.086-.814-2.259-.699-4.699.322-6.872 1.021-2.172 2.828-3.816 5.087-4.63l63.013-22.7c.995-.358 2.024-.537 3.052-.537 1.304 0 2.603.288 3.818.859 2.173 1.021 3.816 2.828 4.63 5.087.814 2.258.699 4.699-.322 6.871s-2.828 3.817-5.087 4.63l-63.013 22.7c-2.258.814-4.698.7-6.87-.322zm51.83 171.35c-5.192-1.724-10.736-2.671-16.499-2.671s-11.307.947-16.499 2.671v-19.401l32.998-11.887zm23.462-65.236c.814 2.259.699 4.699-.322 6.872s-2.828 3.817-5.087 4.63l-63.013 22.7c-2.258.813-4.698.699-6.87-.322-2.173-1.022-3.816-2.829-4.63-5.087s-.699-4.699.322-6.871 2.828-3.816 5.087-4.63l63.013-22.7c1.003-.361 2.027-.532 3.037-.532 3.683-.002 7.145 2.28 8.463 5.94zm-23.462-17.044-32.998 11.887v-19.004l32.998-11.887zm18.832-58.039c2.173 1.022 3.816 2.829 4.63 5.087s.699 4.699-.322 6.871-2.828 3.816-5.087 4.63l-63.013 22.7c-2.258.814-4.699.698-6.87-.323-2.173-1.022-3.816-2.829-4.631-5.087-.813-2.258-.698-4.699.323-6.871s2.828-3.817 5.087-4.63l63.013-22.7c.995-.358 2.024-.537 3.052-.537 1.304.001 2.603.288 3.818.86zm-18.832-11.957-32.998 11.887v-19.004l32.998-11.887z"/></g></g></svg>