<svg id="Layer_1" enable-background="new 0 0 512 512" height="512" viewBox="0 0 512 512" width="512" xmlns="http://www.w3.org/2000/svg"><g><path d="m356 230.626c4.142 0 7.5-3.358 7.5-7.5v-22.626c0-17.369-14.131-31.5-31.5-31.5h-38.5v-39.353c15.265-6.471 26-21.608 26-39.204v-66.693c0-13.096-10.654-23.75-23.75-23.75h-79.5c-13.096 0-23.75 10.654-23.75 23.75v7.749c0 4.142 3.358 7.5 7.5 7.5s7.5-3.358 7.5-7.5v-7.749c0-4.825 3.925-8.75 8.75-8.75h79.5c4.825 0 8.75 3.925 8.75 8.75v66.692c0 15.195-12.362 27.558-27.558 27.558h-41.885c-15.195 0-27.558-12.362-27.558-27.558v-26.572c0-4.142-3.358-7.5-7.5-7.5s-7.5 3.358-7.5 7.5v26.572c0 17.597 10.735 32.733 26 39.204v39.354h-38.499c-17.369 0-31.5 14.131-31.5 31.5v280c0 17.369 14.131 31.5 31.5 31.5h152c17.369 0 31.5-14.131 31.5-31.5v-224.5c0-4.142-3.358-7.5-7.5-7.5s-7.5 3.358-7.5 7.5v224.5c0 9.098-7.402 16.5-16.5 16.5h-152c-9.098 0-16.5-7.402-16.5-16.5v-280c0-9.098 7.402-16.5 16.5-16.5h38.5v15h-28.5c-6.341 0-11.5 5.159-11.5 11.5v260c0 6.341 5.159 11.5 11.5 11.5h34.056c4.142 0 7.5-3.358 7.5-7.5s-3.358-7.5-7.5-7.5h-30.556v-253h25v182c0 20.678 16.822 37.5 37.5 37.5s37.5-16.822 37.5-37.5v-182h25v253h-62.5c-4.142 0-7.5 3.358-7.5 7.5s3.358 7.5 7.5 7.5h66c6.341 0 11.5-5.159 11.5-11.5v-260c0-6.341-5.159-11.5-11.5-11.5h-28.5v-15h38.5c9.098 0 16.5 7.402 16.5 16.5v22.626c0 4.142 3.358 7.5 7.5 7.5zm-120.942-97.626h41.885c.522 0 1.04-.021 1.558-.04v142.22c0 6.006-2.341 11.655-6.593 15.906-4.252 4.252-9.901 6.594-15.907 6.594-12.407 0-22.5-10.093-22.5-22.5v-142.22c.517.019 1.034.04 1.557.04zm20.942 285.5c-12.407 0-22.5-10.093-22.5-22.5v-90.84c6.272 4.719 14.064 7.52 22.5 7.52 8.223 0 16.042-2.637 22.5-7.504v90.824c0 12.407-10.093 22.5-22.5 22.5z"/></g></svg>