<svg id="Layer_1" enable-background="new 0 0 512 512" height="512" viewBox="0 0 512 512" width="512" xmlns="http://www.w3.org/2000/svg"><g><g><path d="m430.5 454.961c4.142 0 7.5-3.358 7.5-7.5v-17.321c0-35.799-19.09-68.094-50.119-85.392-.131-4.98-3.362-9.307-8.141-10.828l-20.924-6.634c-3.537-1.114-7.438-.469-10.43 1.724-.913.669-1.697 1.474-2.368 2.359-.087-.062-.168-.129-.256-.188l-27.762-18.826v-17.755c31.411-11.765 55.865-37.888 65.333-70.341 3.184 1.172 6.512 1.781 9.907 1.781 18.107 0 31.25-19.283 31.25-45.85 0-21.549-9.152-36.504-23.872-40.187 1.507-4.871 2.861-10.584 3.921-17.306 2.798-17.77.115-37.409-7.554-55.301-1.632-3.807-6.042-5.569-9.849-3.938-3.807 1.632-5.57 6.042-3.938 9.849 6.476 15.107 8.854 32.259 6.523 47.056-1.473 9.34-3.518 16.182-5.566 21.138-.071-.271-.143-.544-.216-.818-3.739-13.972-8.959-23.685-15.515-28.869-4.466-3.533-9.663-5.054-15.025-4.408-28.213 3.41-52.059 5.148-72.9 5.315-9.385-.075-19.595-.482-30.35-1.21-4.127-.288-7.71 2.843-7.989 6.977-.28 4.132 2.844 7.709 6.977 7.989 11.073.75 21.605 1.168 31.303 1.244.04.001.079.001.118 0 21.422-.168 45.837-1.943 74.641-5.424.985-.119 2.221-.06 3.916 1.278 7.347 5.803 12.133 25.529 13.484 36.894v33.851c0 50.751-41.285 92.04-92.03 92.04h-.14c-50.746 0-92.03-41.289-92.03-92.04v-33.851c1.353-11.37 6.138-31.092 13.484-36.894 1.695-1.339 2.934-1.396 3.917-1.278 3.791.458 7.473.883 11.052 1.275 4.121.447 7.821-2.521 8.272-6.639s-2.521-7.821-6.639-8.272c-3.525-.386-7.152-.804-10.886-1.255-5.363-.645-10.558.876-15.025 4.408-8.096 6.402-12.95 19.003-15.747 29.647-2.042-4.952-4.08-11.781-5.549-21.096-2.943-18.691 1.002-46.957 20.9-70.232 19.648-22.985 50.189-35.133 88.322-35.133 37.124 0 67.147 11.557 86.823 33.423 2.772 3.079 7.513 3.329 10.592.558s3.329-7.513.558-10.592c-15.759-17.513-45.549-38.389-97.973-38.389-53.888 0-83.974 21.961-99.723 40.384-23.208 27.148-27.778 60.321-24.315 82.314 1.06 6.721 2.413 12.434 3.921 17.304-14.721 3.683-23.873 18.638-23.873 40.188 0 26.567 13.143 45.85 31.25 45.85 3.395 0 6.723-.609 9.907-1.781 9.469 32.453 33.922 58.576 65.333 70.341v17.755l-27.761 18.826c-.089.06-.171.128-.258.19-.673-.887-1.46-1.694-2.376-2.365-2.992-2.192-6.887-2.833-10.428-1.715l-20.905 6.628c-4.777 1.51-8.011 5.834-8.146 10.819-3.519 1.969-6.898 4.152-10.126 6.524v-21.185c0-2.667-1.084-5.273-2.973-7.15l-15.881-15.798c-2.894-2.88-7.201-3.729-10.973-2.162-3.773 1.569-6.211 5.224-6.211 9.312v16.831c0 4.687-3.798 8.5-8.467 8.5s-8.468-3.813-8.468-8.5v-16.829c0-4.088-2.438-7.744-6.212-9.312-3.772-1.569-8.079-.718-10.972 2.163l-15.874 15.798c-1.915 1.907-2.969 4.445-2.969 7.147v28.605c0 3.168 1.516 6.19 4.053 8.083l16.977 12.668v39.725c-8.997 1.479-15.891 9.288-15.891 18.697v45.452c0 15.821 12.872 28.693 28.693 28.693h322.668c4.142 0 7.5-3.358 7.5-7.5v-24.885c0-4.142-3.358-7.5-7.5-7.5s-7.5 3.358-7.5 7.5v17.385h-35.107v-134.567c21.916 15.368 35.107 40.327 35.107 67.707v17.321c0 4.143 3.358 7.5 7.5 7.5zm-21.01-274.771c0 15.165-6.078 30.85-16.25 30.85-2.587 0-4.837-.765-6.69-1.762.687-4.89 1.05-9.882 1.05-14.958v-30.665c2.042-1.932 4.562-4.923 7.104-9.464 7.4.815 14.786 7.961 14.786 25.999zm-241.73 30.85c-10.172 0-16.25-15.686-16.25-30.85 0-18.038 7.387-25.184 14.787-26 2.542 4.541 5.062 7.533 7.104 9.464v30.665c0 5.076.363 10.068 1.05 14.958-1.855.998-4.104 1.763-6.691 1.763zm49.623 159.519c8.21 18.038 17.416 24.048 23.037 26.019 3.458 1.212 6.87 1.731 10.182 1.73 12.521-.001 23.57-7.415 29.897-12.747 6.327 5.332 17.375 12.747 29.898 12.747 3.311 0 6.726-.519 10.182-1.73 5.621-1.971 14.826-7.98 23.034-26.01v48.273c0 6.158-5.01 11.168-11.168 11.168h-103.893c-6.158 0-11.168-5.01-11.168-11.168v-48.282zm98.233 11.864c-8.201 2.875-17.127-2.012-22.996-6.423 17.183-13.881 22.855-33.051 24.655-46.013l19.801 13.427c-5.355 21.015-13.764 36.311-21.46 39.009zm-35.186-81.063h.14c7.692 0 15.194-.823 22.43-2.372v22.562c0 .081.01.159.012.239-.444 9.68-3.664 31.234-22.512 44.542-18.851-13.311-22.069-34.869-22.512-44.546.002-.079.012-.156.012-.235v-22.562c7.236 1.549 14.738 2.372 22.43 2.372zm-36.705 28.627c1.799 12.962 7.471 32.131 24.654 46.013-5.872 4.413-14.799 9.298-22.996 6.423-7.694-2.698-16.104-17.995-21.459-39.009zm-70.612 32.465v134.548h-19.325c.764-2.238 1.184-4.633 1.184-7.126v-48.863c0-8.952-5.347-16.673-13.012-20.154v-16.029c5.5-17.131 16.541-32.049 31.153-42.376zm-63.083 20.718h16.93v20.426.082 15.207h-16.93zm-21.03-51.051 6.027-5.998v4.989c0 12.958 10.528 23.5 23.468 23.5s23.467-10.542 23.467-23.5v-4.995l6.038 6.005v24.097l-16.026 11.953h-26.957l-16.017-11.952zm18.832 164.881c-7.55 0-13.693-6.143-13.693-13.693v-45.452c0-2.189 1.781-3.97 3.97-3.97h34.737c3.929 0 7.126 3.197 7.126 7.126v48.863c0 3.929-3.197 7.126-7.126 7.126zm80.281 0v-149.515l14.27-4.524v75.88c0 14.429 11.739 26.168 26.168 26.168h103.893c14.429 0 26.168-11.739 26.168-26.168v-75.883l14.28 4.528v149.514z"/><path d="m280.5 251.399c5.479 0 10.959-.683 15.847-2.047 3.99-1.114 6.321-5.251 5.207-9.241-1.114-3.989-5.25-6.321-9.241-5.207-7.065 1.973-16.56 1.973-23.625 0-3.992-1.115-8.126 1.218-9.241 5.207-1.114 3.989 1.217 8.126 5.207 9.241 4.887 1.364 10.367 2.047 15.846 2.047z"/><path d="m231 190c0 4.142 3.358 7.5 7.5 7.5s7.5-3.358 7.5-7.5v-6c0-4.142-3.358-7.5-7.5-7.5s-7.5 3.358-7.5 7.5z"/><path d="m330 190v-6c0-4.142-3.358-7.5-7.5-7.5s-7.5 3.358-7.5 7.5v6c0 4.142 3.358 7.5 7.5 7.5s7.5-3.358 7.5-7.5z"/><path d="m333.5 466.424h-106c-4.142 0-7.5 3.358-7.5 7.5s3.358 7.5 7.5 7.5h106c4.142 0 7.5-3.358 7.5-7.5s-3.358-7.5-7.5-7.5z"/></g></g></svg>