<svg id="Layer_1" enable-background="new 0 0 512 512" height="512" viewBox="0 0 512 512" width="512" xmlns="http://www.w3.org/2000/svg"><g><g><path d="m504.5 376.269c-4.143 0-7.5 3.358-7.5 7.5v68.853c0 8.755-7.159 15.878-15.959 15.878h-450.082c-8.8 0-15.959-7.123-15.959-15.878v-164.853c0-4.142-3.358-7.5-7.5-7.5s-7.5 3.358-7.5 7.5v164.853c0 17.026 13.888 30.878 30.959 30.878h450.082c17.071 0 30.959-13.852 30.959-30.878v-68.853c0-4.142-3.357-7.5-7.5-7.5z"/><path d="m479.385 28.5h-287.854c-13.594 0-26.549 5.829-35.543 15.993l-139.957 158.169c-10.338 11.683-16.031 26.697-16.031 42.276v11.062c0 4.142 3.358 7.5 7.5 7.5s7.5-3.358 7.5-7.5v-11.062c0-11.914 4.356-23.398 12.265-32.336l139.956-158.168c6.148-6.948 15.009-10.934 24.31-10.934h287.854c9.713 0 17.615 7.863 17.615 17.528v290.433c0 4.142 3.357 7.5 7.5 7.5s7.5-3.358 7.5-7.5v-290.433c0-17.936-14.631-32.528-32.615-32.528z"/><path d="m189.689 74.313c.458-.517 1.129-.813 1.842-.813h190.469c4.143 0 7.5-3.358 7.5-7.5s-3.357-7.5-7.5-7.5h-190.469c-5.007 0-9.773 2.141-13.076 5.874l-126.651 143.131c-3.97 4.488-4.908 10.669-2.447 16.132s7.712 8.857 13.704 8.857h401.863c9.416 0 17.077-7.661 17.077-17.077v-139.84c0-9.417-7.661-17.077-17.077-17.077h-47.924c-4.143 0-7.5 3.358-7.5 7.5s3.357 7.5 7.5 7.5h47.923c1.146 0 2.077.932 2.077 2.077v139.84c0 1.145-.932 2.077-2.077 2.077l-401.858.034c-.021-.021-.048-.08-.027-.083z"/><path d="m425.5 292.737c0-8.377-6.815-15.192-15.192-15.192h-56.615c-8.377 0-15.192 6.815-15.192 15.192v9.385c0 12.364 10.059 22.423 22.423 22.423h42.154c12.364 0 22.423-10.059 22.423-22.423v-9.385zm-15 9.385c0 4.093-3.33 7.423-7.423 7.423h-42.154c-4.093 0-7.423-3.33-7.423-7.423v-9.385c0-.106.086-.192.192-.192h56.615c.106 0 .192.086.192.192v9.385z"/><path d="m402 340c-12.406 0-22.5 10.093-22.5 22.5s10.094 22.5 22.5 22.5 22.5-10.093 22.5-22.5-10.094-22.5-22.5-22.5zm0 30c-4.136 0-7.5-3.364-7.5-7.5s3.364-7.5 7.5-7.5 7.5 3.364 7.5 7.5-3.364 7.5-7.5 7.5z"/><path d="m48.016 432.18c0 4.142 3.358 7.5 7.5 7.5h394.687c4.143 0 7.5-3.358 7.5-7.5s-3.357-7.5-7.5-7.5h-394.687c-4.142 0-7.5 3.358-7.5 7.5z"/></g></g></svg>