<svg id="Layer_1" enable-background="new 0 0 512 512" height="512" viewBox="0 0 512 512" width="512" xmlns="http://www.w3.org/2000/svg"><g><path d="m374 127h36c10.752 0 19.5-8.748 19.5-19.5v-88c0-10.752-8.748-19.5-19.5-19.5h-36c-10.752 0-19.5 8.748-19.5 19.5v21.5h-10.402c-4.143 0-7.5 3.358-7.5 7.5s3.357 7.5 7.5 7.5h10.402v15h-58.708c.458-2.432.708-4.937.708-7.5s-.25-5.068-.708-7.5h16.63c4.143 0 7.5-3.358 7.5-7.5s-3.357-7.5-7.5-7.5h-22.767c-7.273-10.846-19.643-18-33.655-18s-26.382 7.154-33.656 18h-64.844v-21.5c0-10.752-8.748-19.5-19.5-19.5h-36c-10.752 0-19.5 8.748-19.5 19.5v12.185c0 4.142 3.357 7.5 7.5 7.5s7.5-3.358 7.5-7.5v-12.185c0-2.481 2.019-4.5 4.5-4.5h36c2.481 0 4.5 2.019 4.5 4.5v88c0 2.481-2.019 4.5-4.5 4.5h-36c-2.481 0-4.5-2.019-4.5-4.5v-44c0-4.142-3.357-7.5-7.5-7.5s-7.5 3.358-7.5 7.5v44c0 10.752 8.748 19.5 19.5 19.5h36c10.752 0 19.5-8.748 19.5-19.5v-21.5h64.844c2.955 4.406 6.75 8.201 11.156 11.156v317.688c-4.406 2.955-8.201 6.75-11.156 11.156h-64.844v-21.5c0-10.752-8.748-19.5-19.5-19.5h-36c-10.752 0-19.5 8.748-19.5 19.5v88c0 10.752 8.748 19.5 19.5 19.5h36c10.752 0 19.5-8.748 19.5-19.5v-21.5h64.844c7.274 10.846 19.644 18 33.656 18s26.382-7.154 33.656-18h64.844v21.5c0 10.752 8.748 19.5 19.5 19.5h36c10.752 0 19.5-8.748 19.5-19.5v-88c0-10.752-8.748-19.5-19.5-19.5h-36c-10.752 0-19.5 8.748-19.5 19.5v21.5h-64.844c-2.955-4.406-6.75-8.201-11.156-11.156v-30.23c0-4.142-3.357-7.5-7.5-7.5s-7.5 3.358-7.5 7.5v24.094c-2.432-.458-4.937-.708-7.5-.708s-5.068.25-7.5.708v-305.416c2.432.458 4.937.708 7.5.708s5.068-.25 7.5-.708v247.833c0 4.142 3.357 7.5 7.5 7.5s7.5-3.358 7.5-7.5v-253.969c4.406-2.955 8.201-6.75 11.156-11.156h64.844v21.5c0 10.752 8.748 19.5 19.5 19.5zm-231.5 365.5c0 2.481-2.019 4.5-4.5 4.5h-36c-2.481 0-4.5-2.019-4.5-4.5v-88c0-2.481 2.019-4.5 4.5-4.5h36c2.481 0 4.5 2.019 4.5 4.5zm15-36.5v-15h58.708c-.458 2.432-.708 4.937-.708 7.5s.25 5.068.708 7.5zm212-51.5c0-2.481 2.019-4.5 4.5-4.5h36c2.481 0 4.5 2.019 4.5 4.5v88c0 2.481-2.019 4.5-4.5 4.5h-36c-2.481 0-4.5-2.019-4.5-4.5zm-15 36.5v15h-58.708c.458-2.432.708-4.937.708-7.5s-.25-5.068-.708-7.5zm-73 7.5c0 14.061-11.439 25.5-25.5 25.5s-25.5-11.439-25.5-25.5 11.439-25.5 25.5-25.5 25.5 11.439 25.5 25.5zm-124-377.5v-15h58.708c-.458 2.432-.708 4.937-.708 7.5s.25 5.068.708 7.5zm73-7.5c0-14.061 11.439-25.5 25.5-25.5s25.5 11.439 25.5 25.5-11.439 25.5-25.5 25.5-25.5-11.439-25.5-25.5zm139-44c0-2.481 2.019-4.5 4.5-4.5h36c2.481 0 4.5 2.019 4.5 4.5v88c0 2.481-2.019 4.5-4.5 4.5h-36c-2.481 0-4.5-2.019-4.5-4.5z"/></g></svg>