<svg id="Layer_1" enable-background="new 0 0 512 512" height="512" viewBox="0 0 512 512" width="512" xmlns="http://www.w3.org/2000/svg"><g><g><path d="m220.764 304.976h70.472c4.142 0 7.5-3.358 7.5-7.5s-3.358-7.5-7.5-7.5h-70.472c-4.142 0-7.5 3.358-7.5 7.5s3.358 7.5 7.5 7.5z"/><path d="m220.764 330.961h70.472c4.142 0 7.5-3.358 7.5-7.5s-3.358-7.5-7.5-7.5h-70.472c-4.142 0-7.5 3.358-7.5 7.5s3.358 7.5 7.5 7.5z"/><path d="m365.915 321.15c-7.342 0-14.127 3.336-18.618 9.156-3.194 4.143-4.882 9.101-4.882 14.34 0 12.958 10.542 23.5 23.5 23.5 5.243 0 10.397-1.78 14.569-5.059.022-.018.116-.093.138-.111l.172-.141c5.479-4.482 8.621-11.112 8.621-18.19 0-12.955-10.542-23.495-23.5-23.495zm5.374 30.082-.127.105c-1.507 1.184-3.321 1.809-5.247 1.809-4.687 0-8.5-3.813-8.5-8.5 0-1.895.609-3.687 1.76-5.179 1.626-2.108 4.083-3.317 6.74-3.317 4.687 0 8.5 3.812 8.5 8.496 0 2.56-1.137 4.958-3.126 6.586z"/><path d="m131.199 362.83.246.201c.019.015.109.087.128.103 4.115 3.233 9.269 5.013 14.512 5.013 12.958 0 23.5-10.542 23.5-23.5 0-5.239-1.688-10.198-4.884-14.342-4.489-5.817-11.274-9.154-18.616-9.154-12.958 0-23.5 10.541-23.5 23.496 0 7.077 3.142 13.707 8.614 18.183zm14.886-26.68c2.657 0 5.114 1.209 6.739 3.315 1.152 1.494 1.761 3.286 1.761 5.181 0 4.687-3.813 8.5-8.5 8.5-1.926 0-3.74-.625-5.194-1.767l-.187-.153c-1.982-1.622-3.119-4.02-3.119-6.58 0-4.685 3.813-8.496 8.5-8.496z"/><path d="m450.791 179.376c11.419 0 20.709-9.29 20.709-20.709s-9.29-20.709-20.709-20.709h-10.491v-11.419h10.491c11.419 0 20.709-9.29 20.709-20.709s-9.29-20.709-20.709-20.709h-10.491v-11.68h2.435c7.243 0 13.135-5.892 13.135-13.135v-17.794c0-23.441-19.071-42.512-42.513-42.512h-314.714c-23.442 0-42.513 19.071-42.513 42.512v17.794c0 7.243 5.892 13.135 13.135 13.135h2.435v11.679h-10.491c-11.419 0-20.709 9.29-20.709 20.709s9.29 20.709 20.709 20.709h10.491v11.419h-10.491c-11.419 0-20.709 9.29-20.709 20.709s9.29 20.709 20.709 20.709h10.491v11.418h-10.491c-11.419 0-20.709 9.29-20.709 20.709s9.29 20.709 20.709 20.709h10.683c1.873 22.723 18.449 41.329 40.174 46.267h-23.806c-19.029 0-34.51 15.477-34.51 34.5v110.77c0 19.023 15.481 34.5 34.51 34.5h7.509c4.142 0 7.5-3.358 7.5-7.5s-3.358-7.5-7.5-7.5h-7.509c-9.763 0-17.85-7.212-19.267-16.581h6.187c4.142 0 7.5-3.358 7.5-7.5s-3.358-7.5-7.5-7.5h-6.43v-10.436h6.43c4.142 0 7.5-3.358 7.5-7.5s-3.358-7.5-7.5-7.5h-6.43v-10.436h6.43c4.142 0 7.5-3.358 7.5-7.5s-3.358-7.5-7.5-7.5h-6.43v-10.436h6.43c4.142 0 7.5-3.358 7.5-7.5s-3.358-7.5-7.5-7.5h-6.43v-10.436h6.43c4.142 0 7.5-3.358 7.5-7.5s-3.358-7.5-7.5-7.5h-6.166c1.474-9.303 9.53-16.445 19.246-16.445h47.516c-23.862 4.799-41.89 25.913-41.89 51.163 0 16.099 7.263 31.058 19.927 41.04.019.015.039.03.059.045l26.83 22.026v35.495h-12.522c-4.142 0-7.5 3.358-7.5 7.5s3.358 7.5 7.5 7.5h12.52v18.26c0 19.569 15.925 35.49 35.5 35.49h111.261c4.142 0 7.5-3.358 7.5-7.5s-3.358-7.5-7.5-7.5h-111.261c-11.304 0-20.5-9.192-20.5-20.49v-56.441l76.266 62.611c.082.067.166.133.25.196 6.647 5.599 15.071 8.677 23.779 8.677 9.052 0 17.35-3.271 23.787-8.687.084-.063.17-.119.252-.186l76.266-62.611v56.441c0 11.298-9.196 20.49-20.5 20.49h-15.877c-4.142 0-7.5 3.358-7.5 7.5s3.358 7.5 7.5 7.5h15.877c19.575 0 35.5-15.921 35.5-35.49v-18.26h52.44c19.029 0 34.51-15.477 34.51-34.5v-110.767c0-19.023-15.481-34.5-34.51-34.5h-23.806c21.725-4.937 38.301-23.544 40.174-46.267h10.683c11.419 0 20.709-9.29 20.709-20.709s-9.29-20.709-20.709-20.709h-10.491v-11.418h10.491zm5.709-20.709c0 3.148-2.561 5.709-5.709 5.709h-73.581c-3.148 0-5.709-2.561-5.709-5.709s2.561-5.709 5.709-5.709h55.532c.02 0 .038.003.058.003s.038-.003.058-.003h17.933c3.148-.001 5.709 2.56 5.709 5.709zm0-52.838c0 3.148-2.561 5.709-5.709 5.709h-73.581c-3.148 0-5.709-2.561-5.709-5.709s2.561-5.709 5.709-5.709h55.581.01s.006 0 .01 0h17.981c3.147 0 5.708 2.561 5.708 5.709zm-60.601-90.829v11h-33v-11zm-82.266 0v11h-33v-11zm-82.266 0v11h-33v-11zm-82.266 0v11h-33v-11zm-93.601 90.829c0-3.148 2.561-5.709 5.709-5.709h17.981.01s.006 0 .01 0h55.581c3.148 0 5.709 2.561 5.709 5.709s-2.561 5.709-5.709 5.709h-73.582c-3.148 0-5.709-2.561-5.709-5.709zm0 52.838c0-3.148 2.561-5.709 5.709-5.709h17.933c.02 0 .038.003.058.003s.038-.003.058-.003h55.532c3.148 0 5.709 2.561 5.709 5.709s-2.561 5.709-5.709 5.709h-73.581c-3.148 0-5.709-2.561-5.709-5.709zm0 52.837c0-3.148 2.561-5.709 5.709-5.709h73.581c3.148 0 5.709 2.561 5.709 5.709s-2.561 5.709-5.709 5.709h-55.522c-.023 0-.045-.003-.068-.003s-.045.003-.068.003h-17.923c-3.148 0-5.709-2.561-5.709-5.709zm300.8 68.276v13.564c-12.487 2.307-23.7 9.071-31.672 19.357l-68.628 83.653-68.628-83.654c-7.972-10.286-19.185-17.05-31.672-19.357v-13.563zm33.009 93.786-.427.349c-6.603 5.187-14.544 7.928-22.967 7.928-20.512 0-37.2-16.688-37.2-37.2 0-8.293 2.669-16.14 7.72-22.691 7.112-9.214 17.857-14.499 29.48-14.499 20.512 0 37.2 16.683 37.2 37.19 0 11.299-5.029 21.806-13.806 28.923zm-280.424-28.923c0-20.507 16.688-37.19 37.2-37.19 11.623 0 22.368 5.284 29.48 14.499 5.051 6.551 7.72 14.398 7.72 22.691 0 20.512-16.688 37.2-37.2 37.2-8.423 0-16.365-2.741-22.967-7.928-.011-.009-.022-.015-.033-.024-.029-.022-.056-.045-.085-.067-8.972-7.119-14.115-17.748-14.115-29.181zm46.815 51.297c22.688-4.244 40.249-23.202 42.36-46.562l48.239 58.801-17.405 21.216c-5.95 6.391-9.401 14.586-9.839 23.279l-63.355-52.012zm85.946 75.265c-.055-.048-.113-.088-.169-.134-4.749-4.18-7.472-10.183-7.472-16.508 0-5.635 2.125-10.987 5.981-15.068.003-.003.005-.006.007-.008 4.201-4.458 9.887-6.913 16.011-6.913 5.872 0 11.394 2.287 15.547 6.44.059.059.124.11.185.167.09.107.181.213.277.314 3.857 4.082 5.981 9.433 5.981 15.068 0 12.125-9.869 21.99-22 21.99-5.272 0-10.368-1.899-14.348-5.348zm51.299-18.532c-.438-8.693-3.889-16.888-9.839-23.279l-17.405-21.216 48.239-58.801c2.112 23.36 19.672 42.318 42.36 46.562v4.722zm150.041-142.748h-6.181c-4.142 0-7.5 3.358-7.5 7.5s3.358 7.5 7.5 7.5h6.445v10.436h-6.445c-4.142 0-7.5 3.358-7.5 7.5s3.358 7.5 7.5 7.5h6.445v10.436h-6.445c-4.142 0-7.5 3.358-7.5 7.5s3.358 7.5 7.5 7.5h6.445v10.436h-6.445c-4.142 0-7.5 3.358-7.5 7.5s3.358 7.5 7.5 7.5h6.445v10.436h-6.445c-4.142 0-7.5 3.358-7.5 7.5s3.358 7.5 7.5 7.5h6.202c-1.417 9.369-9.504 16.581-19.267 16.581h-52.44v-35.496s27.784-22.817 27.844-22.869c12.063-9.972 18.971-24.559 18.971-40.242 0-25.25-18.028-46.364-41.89-51.163h47.516c9.715 0 17.771 7.142 19.245 16.445zm13.514-98.421c0 3.148-2.561 5.709-5.709 5.709h-17.923c-.023 0-.045-.003-.068-.003s-.045.003-.068.003h-55.523c-3.148 0-5.709-2.561-5.709-5.709s2.561-5.709 5.709-5.709h73.581c3.149-.001 5.71 2.56 5.71 5.709zm-31.2-20.71h-48.09c-11.419 0-20.709 9.29-20.709 20.709s9.29 20.709 20.709 20.709h47.832c-2.135 18.308-17.73 32.566-36.602 32.566h-264.88c-18.872 0-34.467-14.258-36.602-32.566h47.832c11.419 0 20.709-9.29 20.709-20.709s-9.29-20.709-20.709-20.709h-48.09v-11.418h48.09c11.419 0 20.709-9.29 20.709-20.709s-9.29-20.709-20.709-20.709h-48.09v-11.419h48.09c11.419 0 20.709-9.29 20.709-20.709s-9.29-20.709-20.709-20.709h-48.09v-11.68h126.8v114.339c0 9.118 7.418 16.537 16.536 16.537h51.928c9.118 0 16.536-7.418 16.536-16.537v-114.339h21.731c4.142 0 7.5-3.358 7.5-7.5s-3.358-7.5-7.5-7.5h-249.101v-15.929c0-15.17 12.342-27.512 27.513-27.512h2.458v12.678c0 7.346 5.976 13.322 13.322 13.322h36.356c7.346 0 13.322-5.976 13.322-13.322v-12.678h19.266v12.678c0 7.346 5.976 13.322 13.322 13.322h36.356c7.346 0 13.322-5.976 13.322-13.322v-12.678h19.267v12.678c0 7.346 5.976 13.322 13.322 13.322h36.356c7.346 0 13.322-5.976 13.322-13.322v-12.678h19.266v12.678c0 7.346 5.976 13.322 13.322 13.322h36.356c7.346 0 13.322-5.976 13.322-13.322v-12.678h2.458c15.17 0 27.512 12.342 27.512 27.512v15.929h-88.792c-4.142 0-7.5 3.358-7.5 7.5s3.358 7.5 7.5 7.5h73.222v11.679h-48.09c-11.419 0-20.709 9.29-20.709 20.709s9.29 20.709 20.709 20.709h48.09v11.419h-48.09c-11.419 0-20.709 9.29-20.709 20.709s9.29 20.709 20.709 20.709h48.09zm-196.8-117.353h55v114.339c0 .847-.689 1.537-1.536 1.537h-51.928c-.847 0-1.536-.689-1.536-1.537z"/></g></g></svg>