<svg id="Layer_1" enable-background="new 0 0 512 512" height="512" viewBox="0 0 512 512" width="512" xmlns="http://www.w3.org/2000/svg"><g><g><path d="m284.385 150.308c-4.143 0-7.5 3.358-7.5 7.5s3.357 7.5 7.5 7.5h14.77c4.143 0 7.5-3.358 7.5-7.5s-3.357-7.5-7.5-7.5z"/><path d="m181.564 165.308h14.769c4.142 0 7.5-3.358 7.5-7.5s-3.358-7.5-7.5-7.5h-14.769c-4.142 0-7.5 3.358-7.5 7.5s3.358 7.5 7.5 7.5z"/><path d="m489.5 467h-48.808c9.745-9.537 15.808-22.821 15.808-37.5 0-28.949-23.552-52.5-52.5-52.5s-52.5 23.551-52.5 52.5c0 14.679 6.063 27.963 15.808 37.5h-58.808v-205h50.51c2.027 0 3.969-.821 5.381-2.276 1.413-1.455 2.176-3.419 2.116-5.446-.008-.257-.007-.521-.007-.778 0-8.842 3.133-17.423 8.821-24.162.001-.001.002-.003.003-.005 5.506-6.526 12.975-10.897 21.175-12.567v14.468c-9.29 3.138-16 11.93-16 22.266 0 12.958 10.542 23.5 23.5 23.5s23.5-10.542 23.5-23.5c0-10.336-6.71-19.128-16-22.266v-14.468c8.2 1.67 15.669 6.04 21.175 12.567.001.001.002.003.003.005 5.688 6.739 8.821 15.32 8.821 24.162 0 .257.001.521-.007.778-.06 2.026.703 3.991 2.116 5.446 1.412 1.455 3.354 2.276 5.381 2.276h40.51c6.018 0 11.669-2.346 15.893-6.586 4.261-4.244 6.607-9.896 6.607-15.914 0-10.524-7.264-19.38-17.04-21.827v-15.724c0-.013.002-.026.002-.039v-40c0-.013-.002-.026-.002-.039v-3.961c0-15.462-11.587-28.426-26.948-30.153l-35.939-4.06c-4.123-.465-7.829 2.495-8.294 6.611-.466 4.116 2.494 7.83 6.61 8.294l35.943 4.061c6.573.739 11.763 5.55 13.21 11.747h-28.055c-9.663 0-17.525 7.862-17.525 17.526v5.795c0 17.468 14.211 31.679 31.679 31.679h14.319v7.59h-38.224c-9.871-10.21-23.432-16-37.736-16s-27.865 5.79-37.736 16h-125.301v-86h122.126l35.3 3.993c.286.032.57.048.853.048 3.765 0 7.01-2.828 7.442-6.658.466-4.116-2.493-7.83-6.609-8.295l-30.955-3.501-25.885-77.785c1.701-2.031 2.729-4.644 2.729-7.494v-4.692c0-14.677-11.941-26.616-26.616-26.616h-126.961c-4.142 0-7.5 3.358-7.5 7.5s3.358 7.5 7.5 7.5h126.961c6.405 0 11.616 5.21 11.616 11.615v1.385h-195v-1.385c0-6.405 5.21-11.615 11.615-11.615h11.782c4.142 0 7.5-3.358 7.5-7.5s-3.358-7.5-7.5-7.5h-11.782c-14.676 0-26.615 11.939-26.615 26.615v4.692c0 3.104 1.224 5.922 3.205 8.018l-25.206 77.1-35.23 2.837v-18.07c0-6.765-5.504-12.269-12.27-12.269h-24.461c-6.765 0-12.269 5.504-12.269 12.269v28.908c0 .006-.001.013-.001.019v88.279c-3.02 1.111-5.793 2.849-8.124 5.188-4.26 4.246-6.606 9.897-6.606 15.914 0 12.407 10.093 22.5 22.5 22.5h33.17c2.027 0 3.969-.821 5.381-2.276s2.175-3.419 2.115-5.446c-.007-.257-.006-.521-.006-.778 0-8.843 3.133-17.424 8.821-24.162 0 0 .001-.001.001-.002 5.507-6.528 12.977-10.9 21.179-12.57v14.468c-9.29 3.138-16 11.93-16 22.266 0 12.958 10.542 23.5 23.5 23.5s23.5-10.542 23.5-23.5c0-10.336-6.71-19.128-16-22.266v-14.468c8.201 1.67 15.669 6.042 21.176 12.569l.006.006c5.686 6.738 8.817 15.317 8.817 24.158 0 .253.001.514-.007.767-.063 2.028.699 3.996 2.111 5.453 1.413 1.458 3.356 2.28 5.385 2.28h57.85v205h-66.146c9.745-9.537 15.808-22.821 15.808-37.5 0-28.949-23.551-52.5-52.5-52.5s-52.5 23.551-52.5 52.5c0 14.679 6.063 27.963 15.808 37.5h-41.469c-12.407.001-22.5 10.094-22.5 22.501s10.093 22.5 22.5 22.5h73.577c4.142 0 7.5-3.358 7.5-7.5s-3.358-7.5-7.5-7.5h-73.577c-4.136 0-7.5-3.364-7.5-7.5s3.364-7.5 7.5-7.5h467c4.136 0 7.5 3.364 7.5 7.5s-3.364 7.5-7.5 7.5h-361.218c-4.142 0-7.5 3.358-7.5 7.5s3.358 7.5 7.5 7.5h361.218c12.406 0 22.5-10.093 22.5-22.5s-10.094-22.5-22.5-22.5zm-23.859-272.59c-9.196 0-16.679-7.482-16.679-16.679v-5.795c0-1.393 1.133-2.526 2.525-2.526h28.473v25zm23.859 37.59c4.136 0 7.5 3.364 7.5 7.5 0 2-.779 3.877-2.214 5.307-1.409 1.414-3.286 2.193-5.286 2.193h-33.404c-.649-5.194-2.07-10.251-4.2-15zm-85.5 30c-4.687 0-8.5-3.813-8.5-8.5s3.813-8.5 8.5-8.5 8.5 3.813 8.5 8.5-3.813 8.5-8.5 8.5zm-340.839 167.5c0-20.678 16.822-37.5 37.5-37.5s37.5 16.822 37.5 37.5-16.822 37.5-37.5 37.5-37.5-16.822-37.5-37.5zm289.953-313.5h-97.614v-73h73.322zm-112.614-73v73h-15v-73zm-101.754 0h71.754v73h-95.619zm-109.015 60.923h19v29.5c0 10.585-8.478 19.228-19 19.494zm18.834 143.077h-26.065c-4.136 0-7.5-3.364-7.5-7.5 0-2 .779-3.878 2.213-5.306 1.409-1.415 3.287-2.194 5.287-2.194h30.264c-2.13 4.749-3.55 9.806-4.199 15zm52.096 15c-4.687 0-8.5-3.813-8.5-8.5s3.813-8.5 8.5-8.5 8.5 3.813 8.5 8.5-3.813 8.5-8.5 8.5zm-.001-61c-14.305 0-27.865 5.79-37.736 16h-33.194v-49.089c18.496-.265 33.508-15.152 33.978-33.599l41.134-3.312h121.12v86h-87.565c-9.872-10.21-23.433-16-37.737-16zm47.896 31h207.548c-2.13 4.749-3.551 9.806-4.2 15h-199.149c-.649-5.194-2.069-10.251-4.199-15zm69.944 235v-205h75v205zm148-37.5c0-20.678 16.822-37.5 37.5-37.5s37.5 16.822 37.5 37.5-16.822 37.5-37.5 37.5-37.5-16.822-37.5-37.5z"/><path d="m404 406c-12.958 0-23.5 10.542-23.5 23.5s10.542 23.5 23.5 23.5 23.5-10.542 23.5-23.5-10.542-23.5-23.5-23.5zm0 32c-4.687 0-8.5-3.813-8.5-8.5s3.813-8.5 8.5-8.5 8.5 3.813 8.5 8.5-3.813 8.5-8.5 8.5z"/><path d="m100.661 406c-12.958 0-23.5 10.542-23.5 23.5s10.542 23.5 23.5 23.5 23.5-10.542 23.5-23.5-10.542-23.5-23.5-23.5zm0 32c-4.687 0-8.5-3.813-8.5-8.5s3.813-8.5 8.5-8.5 8.5 3.813 8.5 8.5-3.813 8.5-8.5 8.5z"/></g></g></svg>