<svg id="Layer_1" enable-background="new 0 0 512 512" height="512" viewBox="0 0 512 512" width="512" xmlns="http://www.w3.org/2000/svg"><g><path d="m502.41 258.686-36.341-4.473c-1.917-4.805-6.609-8.213-12.089-8.213h-17.022c-.437-9.445-8.234-17-17.785-17h-63.673v-26h7.077c29.182 0 52.923-23.741 52.923-52.923v-68.367c8.729-3.096 15-11.432 15-21.21 0-12.407-10.094-22.5-22.5-22.5h-23.577c-4.143 0-7.5 3.358-7.5 7.5s3.357 7.5 7.5 7.5h23.577c4.136 0 7.5 3.364 7.5 7.5s-3.364 7.5-7.5 7.5h-152c-4.136 0-7.5-3.364-7.5-7.5s3.364-7.5 7.5-7.5h96.051c4.143 0 7.5-3.358 7.5-7.5s-3.357-7.5-7.5-7.5h-96.051c-12.406 0-22.5 10.093-22.5 22.5 0 9.777 6.271 18.114 15 21.21v68.367c0 29.182 23.741 52.923 52.923 52.923h7.077v26h-128.03v-8h7.5c12.406 0 22.5-10.093 22.5-22.5s-10.094-22.5-22.5-22.5h-30c-12.406 0-22.5 10.093-22.5 22.5s10.094 22.5 22.5 22.5h7.5v8h-101.418c-4.143 0-7.5 3.358-7.5 7.5s3.357 7.5 7.5 7.5h31.948v75h-76.5c-2.481 0-4.5-2.019-4.5-4.5v-66c0-2.481 2.019-4.5 4.5-4.5h12.459c4.143 0 7.5-3.358 7.5-7.5s-3.357-7.5-7.5-7.5h-12.459c-10.752 0-19.5 8.748-19.5 19.5v66c0 10.752 8.748 19.5 19.5 19.5h115.97v96.29c-8.729 3.096-15 11.433-15 21.21 0 12.407 10.094 22.5 22.5 22.5h60c12.406 0 22.5-10.093 22.5-22.5 0-9.777-6.271-18.114-15-21.21v-13.863c0-4.142-3.357-7.5-7.5-7.5s-7.5 3.358-7.5 7.5v12.573h-45v-95h45v49.775c0 4.142 3.357 7.5 7.5 7.5s7.5-3.358 7.5-7.5v-49.775h208.703c9.551 0 17.349-7.555 17.785-17h17.022c5.48 0 10.172-3.409 12.089-8.213l36.341-4.473h.001c5.467-.673 9.589-5.334 9.589-10.843v-23.942c0-5.508-4.122-10.17-9.59-10.843zm-351.94-60.186c0-4.136 3.364-7.5 7.5-7.5h30c4.136 0 7.5 3.364 7.5 7.5s-3.364 7.5-7.5 7.5h-30c-4.136 0-7.5-3.364-7.5-7.5zm52.5 245.5c4.136 0 7.5 3.364 7.5 7.5s-3.364 7.5-7.5 7.5h-60c-4.136 0-7.5-3.364-7.5-7.5s3.364-7.5 7.5-7.5zm60.53-293.923v-67.077h137v67.077c0 20.911-17.012 37.923-37.923 37.923h-61.154c-20.911 0-37.923-17.012-37.923-37.923zm60 52.923h17v26h-17zm98.5 113.173c0 1.559-1.269 2.827-2.827 2.827h-308.173v-75h308.173c1.559 0 2.827 1.268 2.827 2.827zm15-55.173h15v41h-15zm60 28.867-30 3.692v-24.118l30 3.692z"/></g></svg>