<svg id="Layer_1" enable-background="new 0 0 512 512" height="512" viewBox="0 0 512 512" width="512" xmlns="http://www.w3.org/2000/svg"><g><path d="m346.156 269.989c-12.963 0-23.471 10.508-23.471 23.471s10.508 23.471 23.471 23.471 23.471-10.508 23.471-23.471-10.509-23.471-23.471-23.471zm.082 31.972c-4.72 0-8.546-3.826-8.546-8.546s3.826-8.546 8.546-8.546 8.546 3.826 8.546 8.546-3.826 8.546-8.546 8.546z"/><path d="m122.313 341.349c-12.963 0-23.471 10.508-23.471 23.471s10.508 23.471 23.471 23.471 23.471-10.508 23.471-23.471-10.508-23.471-23.471-23.471zm0 32.017c-4.72 0-8.546-3.826-8.546-8.546s3.826-8.546 8.546-8.546 8.546 3.826 8.546 8.546-3.826 8.546-8.546 8.546z"/><path d="m207.688 247.778-14.072 4.485c-3.947 1.258-6.127 5.477-4.869 9.423 1.017 3.189 3.967 5.225 7.144 5.225.755 0 1.522-.115 2.279-.356l14.072-4.485c3.947-1.258 6.127-5.477 4.869-9.423s-5.475-6.127-9.423-4.869z"/><path d="m351.88 407.5c-12.958 0-23.5 10.542-23.5 23.5s10.542 23.5 23.5 23.5 23.5-10.542 23.5-23.5-10.542-23.5-23.5-23.5zm0 32c-4.687 0-8.5-3.813-8.5-8.5s3.813-8.5 8.5-8.5 8.5 3.813 8.5 8.5-3.813 8.5-8.5 8.5z"/><path d="m504.5 301.998h-71.186c-6.401 0-12.741.979-18.844 2.909l-18.76 5.932c2.896-8.281 3.711-17.233 2.259-26.003l17.548-5.592c9.362-2.998 15.652-11.611 15.652-21.433 0-2.301-.356-4.595-1.063-6.833-1.821-5.726-5.765-10.399-11.106-13.159-3.681-1.903-7.72-2.711-11.751-2.45l-12.774-40.094c-4.693-14.732-19.67-23.562-34.837-20.549l-18.6 3.694c-4.063.807-6.702 4.754-5.896 8.817.807 4.062 4.749 6.702 8.817 5.895l18.603-3.694c7.672-1.525 15.247 2.94 17.621 10.391l12.563 39.434-22.956 7.315c-12.341-6.214-26.358-7.335-39.538-3.132-13.187 4.199-23.97 13.227-30.437 25.441l-115.377 36.774-20.743-65.078 96.984-30.911 51.28-10.183c4.063-.807 6.702-4.754 5.896-8.817-.807-4.062-4.753-6.701-8.817-5.895l-47.726 9.478-38.3-39.343c.706-2.268.712-4.692-.025-7.003l-1.425-4.47c-2.159-6.773-6.826-12.301-13.143-15.564-6.316-3.263-13.525-3.87-20.298-1.712l-92.585 29.509c-6.773 2.159-12.301 6.827-15.564 13.143s-3.871 13.525-1.712 20.299l1.425 4.47c.827 2.594 2.484 4.693 4.58 6.113l-7.97 53.525-11.97 5.34-5.089-15.967c-2.055-6.446-8.971-10.016-15.416-7.964l-23.307 7.428c-3.122.996-5.67 3.147-7.174 6.059s-1.785 6.235-.79 9.357l8.768 27.508c.005.017.008.034.013.051l21.435 67.249c-5.373 4.179-8.689 10.665-8.689 17.743 0 2.315.357 4.614 1.065 6.842 3.051 9.553 11.928 15.665 21.464 15.665 2.254 0 4.547-.342 6.807-1.061l11.678-3.72c3.748 7.771 9.275 14.39 16.094 19.39l-69.714 22.04c-16.158 5.109-25.146 22.412-20.037 38.57l.246.775c1.812 5.729 7.123 9.398 12.834 9.397 1.34 0 2.704-.202 4.047-.627l45.118-14.268c3.95-1.249 6.139-5.463 4.89-9.412s-5.464-6.139-9.412-4.89l-43.626 13.797c-2.146-8.064 2.426-16.498 10.462-19.04l88.079-27.853c.002 0 .003-.001.005-.001l267.729-84.662c.011-.004.023-.007.035-.011l37.153-11.749c4.639-1.467 9.457-2.21 14.322-2.21h63.685v15h-63.685c-3.328 0-6.625.509-9.8 1.513l-143.165 45.272c-.015.004-.03.009-.045.014l-191.389 60.521c-3.95 1.249-6.139 5.463-4.89 9.412s5.463 6.138 9.412 4.89l133.559-42.235v.085c0 9.914 8.066 17.98 17.98 17.98h54.441c-.015.516-.039 1.03-.039 1.55 0 28.949 23.551 52.5 52.5 52.5s52.5-23.551 52.5-52.5c0-.52-.024-1.034-.039-1.55h43.581c4.142 0 7.5-3.358 7.5-7.5s-3.358-7.5-7.5-7.5h-46.23c-2.677-8.035-7.241-15.211-13.172-21h108.481v21h-16.769c-4.142 0-7.5 3.358-7.5 7.5s3.358 7.5 7.5 7.5h24.269c4.142 0 7.5-3.358 7.5-7.5v-36-.001-.001-76.451c0-4.141-3.358-7.499-7.5-7.499zm-345.361-75.712-13.239-41.539 14.292-4.555 13.239 41.539zm51.806-62.27 33.997 34.923-57.218 18.237-13.24-41.539zm-117.646 11.679c1.424-2.756 3.836-4.793 6.792-5.735l92.585-29.509c1.163-.371 2.354-.555 3.54-.555 1.83 0 3.646.438 5.318 1.302 2.756 1.424 4.793 3.836 5.736 6.793l.42 1.318-51.514 16.419-63.204 20.144-.42-1.319c-.942-2.956-.677-6.102.747-8.858zm51.549 55.146-52.549 16.749 7.153-48.039 32.156-10.249zm-102.299 71.354-14.879-46.68 18.104-5.769 8.958 28.106c1.582 4.963 1.136 10.245-1.254 14.872-2.314 4.479-6.182 7.827-10.929 9.471zm16.314 74.978c-3.94 1.255-8.172-.932-9.429-4.864-.237-.747-.357-1.517-.357-2.289 0-3.207 2.042-6.054 5.082-7.091l16.097-5.131c-.702 5.179-.614 10.447.268 15.66zm-2.229-30.78-9.534-29.91c8.564-2.863 15.552-8.834 19.705-16.873 4.23-8.187 5.018-17.532 2.219-26.311l-.115-.361 16.844-7.515 63.651-20.287 20.743 65.079-24.266 7.734c-11.839-5.955-25.917-7.482-39.512-3.153-13.188 4.205-23.973 13.237-30.44 25.451zm95.162 41.577-40.311 12.747c-11.872-3.575-21.105-12.608-24.902-24.516-2.831-8.874-2.282-18.281 1.51-26.715.045-.101.095-.2.136-.303.243-.529.497-1.054.766-1.575 4.599-8.901 12.387-15.478 21.928-18.521 19.673-6.266 40.777 4.616 47.09 24.257.013.042.027.083.041.125 3.798 11.962 1.446 24.704-6.258 34.501zm8.866-58.989 21.172-6.749c.004-.001.009-.002.013-.003.007-.002.013-.005.02-.007l112.275-35.784c-.703 5.179-.616 10.448.263 15.662l-124.869 39.794c-2.333-4.811-5.34-9.144-8.874-12.913zm11.453 52.564c2.735-8.09 3.438-16.769 1.98-25.362l124.887-39.799c3.855 7.919 9.634 14.696 16.708 19.759zm202.966-64.183-38.758 12.256c-12.191-3.335-22.007-12.667-25.859-24.763 0-.001 0-.001-.001-.002v-.001c-6.273-19.708 4.646-40.844 24.344-47.116 9.544-3.042 19.701-2.187 28.602 2.412 8.9 4.598 15.475 12.386 18.513 21.929 3.873 12.159 1.236 25.498-6.841 35.285zm9.499-59.755 21.813-6.95c1.908-.607 3.94-.434 5.72.486 1.779.92 3.093 2.476 3.694 4.366.24.76.362 1.535.362 2.302 0 3.274-2.101 6.146-5.217 7.144l-17.522 5.584c-2.299-4.763-5.278-9.113-8.85-12.932zm-139.602 156.843c-1.643 0-2.98-1.337-2.98-2.98v-4.829l41.715-13.191h31.527c-5.931 5.789-10.495 12.965-13.172 21zm144.402 16.55c0 20.678-16.822 37.5-37.5 37.5s-37.5-16.822-37.5-37.5 16.822-37.5 37.5-37.5 37.5 16.822 37.5 37.5zm38.358-52.549h-96.59l96.59-30.544zm69.262-.002h-54.262v-31.451h54.262z"/><path d="m356.713 97.231h59.851v2.85c0 4.376 2.419 8.331 6.314 10.32 1.673.855 3.48 1.276 5.278 1.276 2.391 0 4.768-.746 6.795-2.212l41.42-29.99c2.999-2.168 4.792-5.669 4.797-9.37.005-3.709-1.786-7.226-4.797-9.41l-41.438-30.003c-3.551-2.556-8.174-2.905-12.066-.91-3.889 1.993-6.305 5.946-6.305 10.317v2.85h-59.851c-6.418 0-11.64 5.222-11.64 11.64v31c.002 6.421 5.224 11.642 11.642 11.642zm66.159-39.28c4.793 0 8.691-3.899 8.691-8.691v-2.488l32.199 23.314-32.198 23.314v-2.478c0-4.792-3.899-8.691-8.691-8.691h-62.799v-24.28z"/></g></svg>