<svg id="Layer_1" enable-background="new 0 0 512 512" height="512" viewBox="0 0 512 512" width="512" xmlns="http://www.w3.org/2000/svg"><g><g><path d="m166 111.115c4.142 0 7.5-3.358 7.5-7.5v-69.66c0-10.452 8.503-18.955 18.955-18.955h63.545c4.143 0 7.5-3.358 7.5-7.5s-3.357-7.5-7.5-7.5h-63.545c-18.723 0-33.955 15.232-33.955 33.955v69.66c0 4.142 3.358 7.5 7.5 7.5z"/><path d="m319.545 0h-30.647c-4.143 0-7.5 3.358-7.5 7.5s3.357 7.5 7.5 7.5h30.647c10.452 0 18.955 8.503 18.955 18.955v167.09c0 10.452-8.503 18.955-18.955 18.955h-127.09c-10.452 0-18.955-8.503-18.955-18.955v-64.968c0-4.142-3.358-7.5-7.5-7.5s-7.5 3.358-7.5 7.5v64.968c0 18.723 15.232 33.955 33.955 33.955h19.545v22.135c0 5.659 3.91 10.422 9.17 11.729v19.711c-5.26 1.308-9.17 6.07-9.17 11.729v26.1c0 5.659 3.91 10.422 9.17 11.729v19.711c-5.26 1.308-9.17 6.07-9.17 11.729v26.11c0 5.659 3.91 10.422 9.17 11.729v19.711c-5.26 1.308-9.17 6.07-9.17 11.729v29.148c0 23.8 19.353 43.535 43.14 43.992.278.005.557.008.835.008 3.548 0 7.08-.438 10.508-1.303 4.016-1.014 6.45-5.092 5.436-9.108-1.014-4.017-5.092-6.445-9.107-5.436-2.403.607-4.883.889-7.383.842-15.676-.302-28.429-13.308-28.429-28.995v-26.585c5.26-1.308 9.17-6.07 9.17-11.729v-24.83c0-5.659-3.91-10.422-9.17-11.729v-20.991c5.26-1.308 9.17-6.07 9.17-11.729v-24.83c0-5.659-3.91-10.422-9.17-11.729v-20.981c5.26-1.308 9.17-6.07 9.17-11.729v-24.83c0-5.659-3.91-10.422-9.17-11.729v-19.579h58v19.576c-5.261 1.308-9.17 6.07-9.17 11.729v24.83c0 5.659 3.909 10.422 9.17 11.729v20.981c-5.261 1.308-9.17 6.07-9.17 11.729v24.83c0 5.659 3.909 10.422 9.17 11.729v20.991c-5.261 1.308-9.17 6.07-9.17 11.729v24.83c0 5.659 3.909 10.422 9.17 11.729v25.865c0 4.516-.997 8.875-2.963 12.954-1.799 3.731-.231 8.214 3.5 10.013 3.726 1.798 8.214.232 10.012-3.5 2.954-6.128 4.451-12.677 4.451-19.467v-28.424c0-5.659-3.91-10.422-9.17-11.729v-19.711c5.26-1.308 9.17-6.07 9.17-11.729v-26.11c0-5.659-3.91-10.422-9.17-11.729v-19.711c5.26-1.308 9.17-6.07 9.17-11.729v-26.1c0-5.659-3.91-10.422-9.17-11.729v-19.711c5.26-1.308 9.17-6.07 9.17-11.729v-22.136h19.545c18.723 0 33.955-15.232 33.955-33.955v-167.09c0-18.723-15.232-33.955-33.955-33.955z"/><path d="m323.5 56.135c0-14.411-11.724-26.135-26.135-26.135h-82.73c-14.411 0-26.135 11.724-26.135 26.135v22.73c0 14.411 11.724 26.135 26.135 26.135h82.73c14.411 0 26.135-11.724 26.135-26.135zm-15 22.73c0 6.14-4.995 11.135-11.135 11.135h-82.73c-6.14 0-11.135-4.995-11.135-11.135v-22.73c0-6.14 4.995-11.135 11.135-11.135h82.73c6.14 0 11.135 4.995 11.135 11.135z"/><path d="m297.365 130h-82.73c-14.411 0-26.135 11.724-26.135 26.135v22.73c0 14.411 11.724 26.135 26.135 26.135h82.73c14.411 0 26.135-11.724 26.135-26.135v-22.73c0-14.411-11.724-26.135-26.135-26.135zm11.135 48.865c0 6.14-4.995 11.135-11.135 11.135h-82.73c-6.14 0-11.135-4.995-11.135-11.135v-22.73c0-6.14 4.995-11.135 11.135-11.135h82.73c6.14 0 11.135 4.995 11.135 11.135z"/></g></g></svg>