<svg id="Layer_1" enable-background="new 0 0 512 512" height="512" viewBox="0 0 512 512" width="512" xmlns="http://www.w3.org/2000/svg"><g><g><path d="m369.212 0h-226.424c-24.421 0-44.288 19.868-44.288 44.289v147.48c0 4.142 3.357 7.5 7.5 7.5s7.5-3.358 7.5-7.5v-147.48c0-16.15 13.139-29.289 29.288-29.289h226.424c16.149 0 29.288 13.139 29.288 29.289v339.686c0 4.142 3.357 7.5 7.5 7.5s7.5-3.358 7.5-7.5v-339.686c0-24.421-19.867-44.289-44.288-44.289z"/><path d="m406 408.68c-4.143 0-7.5 3.358-7.5 7.5v51.532c0 16.15-13.139 29.289-29.288 29.289h-226.424c-16.149 0-29.288-13.139-29.288-29.289v-243.943c0-4.142-3.357-7.5-7.5-7.5s-7.5 3.358-7.5 7.5v243.942c0 24.421 19.867 44.289 44.288 44.289h226.424c24.421 0 44.288-19.868 44.288-44.289v-51.531c0-4.142-3.357-7.5-7.5-7.5z"/><path d="m307 75c12.406 0 22.5-10.093 22.5-22.5s-10.094-22.5-22.5-22.5h-102c-12.406 0-22.5 10.093-22.5 22.5s10.094 22.5 22.5 22.5zm-109.5-22.5c0-4.136 3.364-7.5 7.5-7.5h102c4.136 0 7.5 3.364 7.5 7.5s-3.364 7.5-7.5 7.5h-102c-4.136 0-7.5-3.364-7.5-7.5z"/><path d="m128.5 108v76c0 11.855 9.645 21.5 21.5 21.5h212c11.855 0 21.5-9.645 21.5-21.5v-76c0-11.855-9.645-21.5-21.5-21.5h-9.615c-4.143 0-7.5 3.358-7.5 7.5s3.357 7.5 7.5 7.5h9.615c3.584 0 6.5 2.916 6.5 6.5v76c0 3.584-2.916 6.5-6.5 6.5h-212c-3.584 0-6.5-2.916-6.5-6.5v-76c0-3.584 2.916-6.5 6.5-6.5h170.385c4.143 0 7.5-3.358 7.5-7.5s-3.357-7.5-7.5-7.5h-170.385c-11.855 0-21.5 9.645-21.5 21.5z"/><path d="m128.5 318c0 11.855 9.645 21.5 21.5 21.5h212c11.855 0 21.5-9.645 21.5-21.5v-76c0-11.855-9.645-21.5-21.5-21.5h-212c-11.855 0-21.5 9.645-21.5 21.5zm15-76c0-3.584 2.916-6.5 6.5-6.5h212c3.584 0 6.5 2.916 6.5 6.5v76c0 3.584-2.916 6.5-6.5 6.5h-212c-3.584 0-6.5-2.916-6.5-6.5z"/><path d="m128.5 452c0 11.855 9.645 21.5 21.5 21.5h212c11.855 0 21.5-9.645 21.5-21.5v-76c0-11.855-9.645-21.5-21.5-21.5h-212c-11.855 0-21.5 9.645-21.5 21.5zm15-76c0-3.584 2.916-6.5 6.5-6.5h212c3.584 0 6.5 2.916 6.5 6.5v76c0 3.584-2.916 6.5-6.5 6.5h-212c-3.584 0-6.5-2.916-6.5-6.5z"/><path d="m262.295 109.09h-12.59c-8.922 0-16.18 7.258-16.18 16.179v11.042h-2.277c-7.444 0-13.5 6.056-13.5 13.5v18c0 7.444 6.056 13.5 13.5 13.5h49.504c7.444 0 13.5-6.056 13.5-13.5v-18c0-7.444-6.056-13.5-13.5-13.5h-2.277v-11.042c0-8.921-7.258-16.179-16.18-16.179zm-13.77 16.179c0-.65.529-1.179 1.18-1.179h12.59c.65 0 1.18.529 1.18 1.179v11.042h-14.949v-11.042zm30.727 41.043h-46.504v-15h46.504z"/><path d="m231.248 316.111h49.504c7.444 0 13.5-6.056 13.5-13.5v-18c0-7.444-6.056-13.5-13.5-13.5h-32.227v-11.042c0-.65.529-1.18 1.18-1.18h12.59c.65 0 1.18.529 1.18 1.18 0 4.142 3.357 7.5 7.5 7.5s7.5-3.358 7.5-7.5c0-8.921-7.258-16.18-16.18-16.18h-12.59c-8.922 0-16.18 7.258-16.18 16.18v11.042h-2.277c-7.444 0-13.5 6.056-13.5 13.5v18c0 7.444 6.056 13.5 13.5 13.5zm1.5-30h46.504v15h-46.504z"/><path d="m236.273 436.5h13.56l23.879 9.52c1.315.524 2.697.783 4.071.783 2.167 0 4.317-.642 6.166-1.895 3.02-2.047 4.823-5.449 4.823-9.098v-43.62c0-3.649-1.804-7.05-4.823-9.098-3.02-2.047-6.846-2.464-10.237-1.112l-23.879 9.52h-13.56c-12.406 0-22.5 10.093-22.5 22.5s10.094 22.5 22.5 22.5zm37.5-38.396v31.791l-15-5.979v-19.832zm-37.5 8.396h7.5v15h-7.5c-4.136 0-7.5-3.364-7.5-7.5s3.365-7.5 7.5-7.5z"/></g></g></svg>