<svg id="Layer_1" enable-background="new 0 0 512 512" height="512" viewBox="0 0 512 512" width="512" xmlns="http://www.w3.org/2000/svg"><g><g><path d="m312 117.077v-49.653c0-12.406-10.093-22.5-22.5-22.5s-22.5 10.094-22.5 22.5v49.653c0 12.406 10.093 22.5 22.5 22.5s22.5-10.094 22.5-22.5zm-30 0v-49.653c0-4.136 3.364-7.5 7.5-7.5s7.5 3.364 7.5 7.5v49.653c0 4.136-3.364 7.5-7.5 7.5s-7.5-3.364-7.5-7.5z"/><path d="m222.5 44.924c-12.407 0-22.5 10.094-22.5 22.5v49.653c0 12.406 10.093 22.5 22.5 22.5s22.5-10.094 22.5-22.5v-49.653c0-12.406-10.093-22.5-22.5-22.5zm7.5 72.153c0 4.136-3.364 7.5-7.5 7.5s-7.5-3.364-7.5-7.5v-49.653c0-4.136 3.364-7.5 7.5-7.5s7.5 3.364 7.5 7.5z"/><path d="m400.453 424.853c-6.424-4.536-13.888-7.146-21.533-7.719l14.449-25.404c8.892-15.62 13.592-33.477 13.592-51.64v-100.14c0-16.251-3.816-32.455-11.035-46.86l-39.117-78.055c-3.279-6.558-5.568-13.563-6.804-20.821l-11.23-66.133c-2.771-16.271-16.412-28.081-32.435-28.081h-100.68c-16.023 0-29.664 11.81-32.434 28.084l-3.975 23.405c-.693 4.084 2.055 7.956 6.138 8.65 4.086.692 7.956-2.056 8.65-6.139l3.974-23.402c1.539-9.037 8.961-15.598 17.647-15.598h100.68c8.687 0 16.108 6.561 17.646 15.596l11.23 66.133c1.484 8.719 4.235 17.136 8.179 25.021l25.033 49.951c-19.793 4.13-34.708 21.709-34.708 42.709v73.359c0 4.143 3.358 7.5 7.5 7.5s7.5-3.357 7.5-7.5v-73.359c0-15.17 11.862-27.615 26.797-28.565l6.999 13.965c6.179 12.33 9.445 26.21 9.445 40.14v100.14c0 8.296-1.153 16.51-3.372 24.4h-11.239c-15.787 0-28.63-12.844-28.63-28.631v-15.27c0-4.143-3.358-7.5-7.5-7.5s-7.5 3.357-7.5 7.5v15.27c0 24.059 19.572 43.631 43.63 43.631h5.524c-.799 1.632-1.644 3.241-2.544 4.821l-20.264 35.627-1.66.59c-3.627 1.288-7.419 1.941-11.272 1.941h-182.268c-3.853 0-7.646-.653-11.272-1.941l-1.661-.59-20.265-35.629c-.899-1.58-1.744-3.188-2.543-4.819h5.714c24.058 0 43.63-19.572 43.63-43.631v-121.449c0-21.061-15.001-38.684-34.879-42.747l25.017-49.919c3.94-7.88 6.691-16.297 8.176-25.019l1.875-11.046c.693-4.084-2.055-7.957-6.139-8.65-4.083-.696-7.957 2.056-8.649 6.139l-1.875 11.043c-1.236 7.261-3.525 14.267-6.802 20.818l-39.12 78.061c-7.219 14.405-11.035 30.609-11.035 46.86v100.14c0 18.163 4.7 36.02 13.59 51.638l14.45 25.406c-7.645.573-15.109 3.183-21.533 7.719-11.467 8.097-18.045 20.776-18.045 34.785 0 11.822 4.988 23.214 13.686 31.254 14.724 13.612 33.895 21.108 53.982 21.108h189.664c11.068 0 21.817-2.251 31.95-6.69 3.794-1.662 5.522-6.085 3.86-9.879-1.663-3.794-6.086-5.524-9.879-3.859-8.223 3.602-16.947 5.429-25.93 5.429h-189.665c-16.301 0-31.856-6.081-43.8-17.122-5.636-5.21-8.868-12.587-8.868-20.24 0-9.069 4.264-17.282 11.699-22.531 6.365-4.493 14.001-6.077 21.46-4.577 1.786 5.921 6.666 15.264 19.98 23.666 19.69 12.427 51.282 18.728 93.9 18.728 42.314 0 74.023-6.252 94.244-18.584 14.339-8.744 19.232-18.295 20.902-23.877 7.35-1.384 14.85.219 21.117 4.644 7.435 5.249 11.699 13.462 11.699 22.531 0 5.457-1.604 10.744-4.64 15.289-2.3 3.445-1.373 8.103 2.072 10.402 3.444 2.299 8.102 1.373 10.402-2.072 4.688-7.02 7.165-15.188 7.165-23.619 0-14.01-6.578-26.689-18.047-34.786zm-280.413-184.903c0-13.93 3.266-27.81 9.445-40.14l7.006-13.979c15.021.859 26.979 13.347 26.979 28.579v121.449c0 15.787-12.843 28.631-28.63 28.631h-11.428c-2.219-7.89-3.372-16.104-3.372-24.4zm135.498 219.973c-49.499 0-74.031-8.925-85.894-16.412-3.304-2.085-5.825-4.174-7.757-6.142.99.06 1.982.101 2.979.101h182.269c.989 0 1.974-.041 2.956-.1-9.794 9.622-34.187 22.553-94.553 22.553z"/><path d="m207.5 210.603v126c0 26.743 21.757 48.5 48.5 48.5s48.5-21.757 48.5-48.5v-126c0-26.743-21.757-48.5-48.5-48.5s-48.5 21.756-48.5 48.5zm82 0v126c0 18.472-15.028 33.5-33.5 33.5s-33.5-15.028-33.5-33.5v-126c0-18.472 15.028-33.5 33.5-33.5s33.5 15.028 33.5 33.5z"/></g></g></svg>