<svg id="Layer_1" enable-background="new 0 0 512 512" height="512" viewBox="0 0 512 512" width="512" xmlns="http://www.w3.org/2000/svg"><g><g><path d="m423.5 167.5c0-39.816-14.211-78.403-40.015-108.653-2.688-3.15-7.422-3.528-10.573-.839-3.151 2.688-3.527 7.422-.839 10.573 23.49 27.538 36.427 62.668 36.427 98.919 0 61.57-36.96 116.729-93 140.445v-70.8c20.45-17.461 32.11-42.634 32.11-69.646 0-50.514-41.097-91.61-91.61-91.61-34.971 0-67.382 20.368-82.572 51.891-1.798 3.731-.23 8.214 3.501 10.013 3.729 1.798 8.214.23 10.013-3.501 12.704-26.366 39.812-43.402 69.058-43.402 42.243 0 76.61 34.367 76.61 76.61 0 17.863-6.1 34.766-17.11 48.281v-47.838c0-17.062-13.881-30.942-30.942-30.942h-57.115c-17.062 0-30.942 13.881-30.942 30.942v47.838c-11.01-13.515-17.11-30.417-17.11-48.281 0-1.674.055-3.361.162-5.015.269-4.134-2.864-7.702-6.998-7.971-4.13-.273-7.702 2.864-7.971 6.998-.128 1.976-.193 3.99-.193 5.987 0 27.012 11.661 52.184 32.11 69.646v70.8c-56.04-23.717-93-78.875-93-140.445-.001-84.089 68.41-152.5 152.499-152.5 34.522 0 67.08 11.247 94.153 32.524 3.255 2.559 7.971 1.994 10.531-1.262 2.56-3.257 1.995-7.972-1.262-10.531-29.742-23.376-65.505-35.731-103.422-35.731-92.359 0-167.5 75.141-167.5 167.5 0 69.744 43.18 131.999 108 156.605v156.953c0 17.062 13.881 30.942 30.942 30.942h57.115c17.062 0 30.942-13.881 30.942-30.942v-64.57c0-4.143-3.357-7.5-7.5-7.5s-7.5 3.357-7.5 7.5v64.57c0 8.791-7.151 15.942-15.942 15.942h-57.115c-8.791 0-15.942-7.151-15.942-15.942v-313.116c0-8.791 7.151-15.942 15.942-15.942h57.115c8.791 0 15.942 7.151 15.942 15.942v215.622c0 4.143 3.357 7.5 7.5 7.5s7.5-3.357 7.5-7.5v-59.46c64.821-24.605 108.001-86.86 108.001-156.604z"/><path d="m256 167c-16.267 0-29.5 13.233-29.5 29.5v142.295c0 16.267 13.233 29.5 29.5 29.5s29.5-13.233 29.5-29.5v-142.295c0-16.267-13.233-29.5-29.5-29.5zm14.5 171.795c0 7.995-6.505 14.5-14.5 14.5s-14.5-6.505-14.5-14.5v-142.295c0-7.995 6.505-14.5 14.5-14.5s14.5 6.505 14.5 14.5z"/></g></g></svg>