<svg id="Layer_1" enable-background="new 0 0 512 512" height="512" viewBox="0 0 512 512" width="512" xmlns="http://www.w3.org/2000/svg"><g><g><path d="m489.5 467h-208.475v-155.962h26.13v67.962c0 16.267 13.234 29.5 29.5 29.5h80c16.266 0 29.5-13.233 29.5-29.5v-16.01h12.835c14.071 0 25.52-11.448 25.52-25.521v-19.04c8.39-.708 15.004-7.751 15.004-16.321v-92.217c0-8.57-6.614-15.613-15.004-16.321v-19.04c0-14.072-11.448-25.521-25.52-25.521h-12.835v-16.009c0-16.267-13.234-29.5-29.5-29.5h-8.886c-4.142 0-7.5 3.357-7.5 7.5s3.358 7.5 7.5 7.5h8.886c7.995 0 14.5 6.505 14.5 14.5v23.413c0 .032-.005.064-.005.097s.004.064.005.097v198.787c0 .032-.005.064-.005.097s.004.064.005.097v23.412c0 7.995-6.505 14.5-14.5 14.5h-80c-7.995 0-14.5-6.505-14.5-14.5v-246c0-7.995 6.505-14.5 14.5-14.5h40c4.142 0 7.5-3.357 7.5-7.5s-3.358-7.5-7.5-7.5h-40c-16.266 0-29.5 13.233-29.5 29.5v67.962h-26.13v-38.18c0-10.908-8.874-19.782-19.782-19.782h-69.218v-24h37.423c10.243 0 18.577-8.334 18.577-18.577v-81.846c0-10.243-8.334-18.577-18.577-18.577h-68.653c-4.142 0-7.5 3.357-7.5 7.5s3.358 7.5 7.5 7.5h68.653c1.972 0 3.577 1.604 3.577 3.577v81.846c0 1.973-1.604 3.577-3.577 3.577h-119.846c-1.972 0-3.577-1.604-3.577-3.577v-81.846c0-1.973 1.604-3.577 3.577-3.577h18.923c4.142 0 7.5-3.357 7.5-7.5s-3.358-7.5-7.5-7.5h-18.923c-10.244 0-18.577 8.334-18.577 18.577v81.846c0 10.243 8.333 18.577 18.577 18.577h37.424v24h-69.219c-10.908 0-19.782 8.874-19.782 19.782v219.498c0 4.143 3.358 7.5 7.5 7.5s7.5-3.357 7.5-7.5v-219.498c0-2.637 2.145-4.782 4.782-4.782h183.437c2.637 0 4.782 2.146 4.782 4.782v304.218h-193v-51.23c0-4.143-3.358-7.5-7.5-7.5s-7.5 3.357-7.5 7.5v51.23h-35.526c-12.407 0-22.5 10.094-22.5 22.5s10.093 22.5 22.5 22.5h467c12.407 0 22.5-10.094 22.5-22.5s-10.093-22.5-22.5-22.5zm-4.986-164.892c0 .768-.624 1.392-1.391 1.392h-12.217c-.768 0-1.392-.624-1.392-1.392v-92.217c0-.768.624-1.392 1.392-1.392h12.217c.767 0 1.391.624 1.391 1.392zm-25.524-138.098c5.8 0 10.52 4.72 10.52 10.521v19.041c-8.386.712-14.996 7.754-14.996 16.321v92.217c0 8.567 6.61 15.609 14.996 16.321v19.041c0 5.801-4.719 10.521-10.52 10.521h-12.835v-183.983zm-281.965-45.01v23.738h-15v-23.738zm130.13 96.962v80.076h-26.13v-80.076zm182.345 281.038h-467c-4.136 0-7.5-3.364-7.5-7.5s3.364-7.5 7.5-7.5h467c4.136 0 7.5 3.364 7.5 7.5s-3.364 7.5-7.5 7.5z"/><path d="m88.025 320.061v124.439c0 4.143 3.358 7.5 7.5 7.5h148c4.142 0 7.5-3.357 7.5-7.5v-124.439c0-4.143-3.358-7.5-7.5-7.5h-148c-4.142 0-7.5 3.357-7.5 7.5zm15 7.5h133v109.439h-133z"/><path d="m121.025 37.5v44c0 4.143 3.358 7.5 7.5 7.5h82c4.142 0 7.5-3.357 7.5-7.5v-44c0-4.143-3.358-7.5-7.5-7.5h-82c-4.142 0-7.5 3.357-7.5 7.5zm15 7.5h67v29h-67z"/><path d="m418.914 139.257c-1.042-4.008-5.139-6.414-9.145-5.372l-33.114 8.604-33.114-8.604c-4.008-1.04-8.104 1.363-9.145 5.372-1.042 4.01 1.364 8.104 5.373 9.146l35 9.095c.619.161 1.252.241 1.886.241s1.268-.08 1.886-.241l35-9.095c4.009-1.043 6.415-5.136 5.373-9.146z"/><path d="m418.914 167.62c-1.042-4.009-5.139-6.412-9.145-5.372l-33.114 8.604-33.114-8.604c-4.008-1.038-8.104 1.363-9.145 5.372-1.042 4.01 1.364 8.104 5.373 9.146l35 9.095c.619.161 1.252.241 1.886.241s1.268-.08 1.886-.241l35-9.095c4.009-1.042 6.415-5.136 5.373-9.146z"/><path d="m418.914 195.982c-1.042-4.009-5.139-6.412-9.145-5.372l-33.114 8.605-33.114-8.605c-4.008-1.039-8.104 1.363-9.145 5.372-1.042 4.009 1.363 8.104 5.373 9.146l35 9.096c.618.161 1.252.241 1.886.241s1.268-.08 1.886-.241l35-9.096c4.009-1.042 6.415-5.137 5.373-9.146z"/><path d="m418.914 224.346c-1.042-4.009-5.139-6.413-9.145-5.372l-33.114 8.605-33.114-8.605c-4.008-1.04-8.104 1.364-9.145 5.372-1.042 4.009 1.363 8.104 5.373 9.146l35 9.096c.618.161 1.252.241 1.886.241s1.268-.08 1.886-.241l35-9.096c4.009-1.043 6.415-5.138 5.373-9.146z"/><path d="m418.914 252.709c-1.042-4.009-5.139-6.411-9.145-5.372l-33.114 8.604-33.114-8.604c-4.008-1.039-8.104 1.363-9.145 5.372-1.042 4.01 1.364 8.104 5.373 9.146l35 9.095c.619.161 1.252.241 1.886.241s1.268-.08 1.886-.241l35-9.095c4.009-1.042 6.415-5.136 5.373-9.146z"/><path d="m418.914 281.072c-1.042-4.009-5.139-6.413-9.145-5.372l-33.114 8.604-33.114-8.604c-4.008-1.041-8.104 1.363-9.145 5.372-1.042 4.01 1.364 8.104 5.373 9.146l35 9.095c.619.161 1.252.241 1.886.241s1.268-.08 1.886-.241l35-9.095c4.009-1.042 6.415-5.136 5.373-9.146z"/><path d="m418.914 309.436c-1.042-4.008-5.139-6.414-9.145-5.372l-33.114 8.604-33.114-8.604c-4.008-1.039-8.104 1.363-9.145 5.372-1.042 4.01 1.364 8.104 5.373 9.146l35 9.095c.619.161 1.252.241 1.886.241s1.268-.08 1.886-.241l35-9.095c4.009-1.043 6.415-5.137 5.373-9.146z"/><path d="m418.914 337.799c-1.042-4.009-5.139-6.412-9.145-5.372l-33.114 8.604-33.114-8.604c-4.008-1.041-8.104 1.364-9.145 5.372-1.042 4.01 1.364 8.104 5.373 9.146l35 9.095c.619.161 1.252.241 1.886.241s1.268-.08 1.886-.241l35-9.095c4.009-1.043 6.415-5.136 5.373-9.146z"/><path d="m409.769 360.789-33.114 8.605-33.114-8.605c-4.008-1.041-8.104 1.363-9.145 5.372-1.042 4.009 1.363 8.104 5.373 9.146l35 9.096c.618.161 1.252.241 1.886.241s1.268-.08 1.886-.241l35-9.096c4.009-1.042 6.415-5.137 5.373-9.146s-5.139-6.412-9.145-5.372z"/><path d="m238.525 255.5c4.142 0 7.5-3.357 7.5-7.5v-52c0-4.143-3.358-7.5-7.5-7.5h-138c-4.142 0-7.5 3.357-7.5 7.5v52c0 4.143 3.358 7.5 7.5 7.5zm-130.5-52h123v37h-123z"/><path d="m211.614 363.952c-4.142 0-7.5 3.357-7.5 7.5v21.656c0 4.143 3.358 7.5 7.5 7.5s7.5-3.357 7.5-7.5v-21.656c0-4.142-3.358-7.5-7.5-7.5z"/></g></g></svg>