<svg id="Layer_1" enable-background="new 0 0 512 512" height="512" viewBox="0 0 512 512" width="512" xmlns="http://www.w3.org/2000/svg"><g><path d="m501.894 146.979h-65.894v-19.97c0-9.931-8.079-18.01-18.01-18.01h-16.99v-1.096c0-7.666-6.237-13.903-13.904-13.903h-17.191c-7.668 0-13.905 6.237-13.905 13.904v1.096h-36.538c-4.143 0-7.5 3.357-7.5 7.5s3.357 7.5 7.5 7.5h36.538v165h-171.5v-165h102.962c4.143 0 7.5-3.357 7.5-7.5s-3.357-7.5-7.5-7.5h-102.962v-1.096c0-7.667-6.238-13.904-13.905-13.904h-17.19c-7.667 0-13.905 6.237-13.905 13.904v1.096h-16.61c-9.931 0-18.01 8.079-18.01 18.01v17.99h-47.258c-20.766 0-37.661 16.895-37.661 37.66v105.417c0 4.143 3.358 7.5 7.5 7.5s7.5-3.357 7.5-7.5v-105.417c0-12.495 10.166-22.66 22.661-22.66h47.258v25h-37.419c-4.142 0-7.5 3.357-7.5 7.5v187.84c0 12.495-10.166 22.66-22.66 22.66h-22.301v-25h12.461c4.142 0 7.5-3.357 7.5-7.5v-50.423c0-4.143-3.358-7.5-7.5-7.5s-7.5 3.357-7.5 7.5v42.923h-12.461c-4.142 0-7.5 3.357-7.5 7.5v40c0 4.143 3.358 7.5 7.5 7.5h29.801c20.766 0 37.66-16.895 37.66-37.66v-180.34h29.918v85.99c0 9.931 8.08 18.01 18.01 18.01h16.61v1.096c0 7.667 6.238 13.904 13.905 13.904h17.19c7.667 0 13.905-6.237 13.905-13.904v-1.096h171.501v1.096c0 7.667 6.237 13.904 13.904 13.904h17.191c7.667 0 13.904-6.237 13.904-13.904v-1.096h16.99c9.931 0 18.01-8.079 18.01-18.01v-29.99c0-4.143-3.357-7.5-7.5-7.5s-7.5 3.357-7.5 7.5v29.99c0 1.659-1.351 3.01-3.01 3.01h-16.989v-165h16.99c1.659 0 3.01 1.351 3.01 3.01v96.965c0 4.143 3.357 7.5 7.5 7.5s7.5-3.357 7.5-7.5v-7.995h65.894c5.572 0 10.106-4.534 10.106-10.106v-48.787c0-5.573-4.534-10.108-10.106-10.108zm-379.004 142.021c-1.66 0-3.01-1.351-3.01-3.01v-93.394c0-.032.005-.064.005-.097v-40c0-.033-.004-.064-.005-.097v-25.392c0-1.659 1.351-3.01 3.01-3.01h16.61v165zm46.61 15h-15v-195h15zm216.5 0h-15v-195h15zm111-103.021h-61v-39h61z"/></g></svg>