<svg id="Layer_1" enable-background="new 0 0 512 512" height="512" viewBox="0 0 512 512" width="512" xmlns="http://www.w3.org/2000/svg"><g><g><path d="m447.9 276h-26.05c-4.505 0-8.856 1.134-12.716 3.169l-9.976-66.447c4.395-2.702 7.342-7.541 7.342-13.068 0-15.249-12.405-27.654-27.654-27.654h-26.188c-4.143 0-7.5 3.357-7.5 7.5s3.357 7.5 7.5 7.5h26.188c6.978 0 12.654 5.677 12.654 12.654 0 .19-.155.346-.346.346h-270.308c-.19 0-.346-.155-.346-.346 0-6.978 5.677-12.654 12.654-12.654h187.026c4.143 0 7.5-3.357 7.5-7.5s-3.357-7.5-7.5-7.5h-187.026c-15.249 0-27.654 12.405-27.654 27.654 0 5.527 2.947 10.366 7.342 13.068l-9.976 66.447c-3.86-2.035-8.21-3.169-12.716-3.169h-26.05c-9.704 0-17.6 7.896-17.6 17.6v17.8c0 9.704 7.896 17.6 17.6 17.6h5.863c-3.498 7.214-5.462 15.305-5.462 23.846v54.885c0 6.924 2.598 13.249 6.865 18.063-4.213 3.927-6.866 9.506-6.866 15.706v12c0 11.855 9.645 21.5 21.5 21.5h4.5v17.5c0 10.752 8.748 19.5 19.5 19.5h38c10.752 0 19.5-8.748 19.5-19.5v-17.5h24.475c4.143 0 7.5-3.357 7.5-7.5s-3.357-7.5-7.5-7.5h-105.975c-3.584 0-6.5-2.916-6.5-6.5v-12c0-3.584 2.916-6.5 6.5-6.5h340c3.584 0 6.5 2.916 6.5 6.5v12c0 3.584-2.916 6.5-6.5 6.5h-201.82c-4.143 0-7.5 3.357-7.5 7.5s3.357 7.5 7.5 7.5h114.32v17.5c0 10.752 8.748 19.5 19.5 19.5h38c10.752 0 19.5-8.748 19.5-19.5v-17.5h10.5c11.855 0 21.5-9.645 21.5-21.5v-12c0-6.2-2.653-11.779-6.865-15.706 4.267-4.814 6.865-11.14 6.865-18.063v-54.885c0-8.541-1.965-16.631-5.462-23.846h5.863c9.704 0 17.6-7.896 17.6-17.6v-17.8c-.001-9.704-7.897-17.6-17.601-17.6zm-295.4 216.5c0 2.481-2.019 4.5-4.5 4.5h-38c-2.481 0-4.5-2.019-4.5-4.5v-17.5h47zm248 0c0 2.481-2.019 4.5-4.5 4.5h-38c-2.481 0-4.5-2.019-4.5-4.5v-17.5h47zm-16.168-277.5 12.487 83.174c-1.376-.104-2.762-.174-4.164-.174h-273.309c-1.402 0-2.788.07-4.164.174l12.486-83.174zm-10.368 98.004-8.517 11.312c-1.739 2.31-4.504 3.688-7.396 3.688h-204.103c-2.892 0-5.656-1.379-7.396-3.689l-8.517-11.311zm-312.464-1.604v-17.8c0-1.434 1.166-2.6 2.6-2.6h26.05c4.07 0 7.862 2.041 10.14 5.324l-.813 5.416c-7.103 2.771-13.497 6.97-18.81 12.26h-16.567c-1.434 0-2.6-1.166-2.6-2.6zm153 108.6v-47.02c0-1.092.889-1.98 1.98-1.98h79.039c1.092 0 1.98.889 1.98 1.98v47.02zm98 0v-47.02c0-9.363-7.617-16.98-16.98-16.98h-79.04c-9.363 0-16.98 7.617-16.98 16.98v47.02h-107.73c-6.766 0-12.27-5.504-12.27-12.27v-54.885c0-21.941 17.828-39.796 39.758-39.844l15.313 20.335c4.557 6.054 11.801 9.667 19.378 9.667h204.104c7.577 0 14.821-3.613 19.378-9.666l15.313-20.336c21.93.048 39.758 17.902 39.758 39.844v54.885c0 6.766-5.504 12.27-12.27 12.27zm138-108.6c0 1.434-1.166 2.6-2.6 2.6h-16.568c-5.313-5.29-11.707-9.489-18.81-12.26l-.813-5.416c2.279-3.284 6.071-5.324 10.14-5.324h26.051c1.434 0 2.6 1.166 2.6 2.6z"/><path d="m392 350h-38c-14.061 0-25.5 11.439-25.5 25.5s11.439 25.5 25.5 25.5h38c14.061 0 25.5-11.439 25.5-25.5s-11.439-25.5-25.5-25.5zm0 36h-38c-5.79 0-10.5-4.71-10.5-10.5s4.71-10.5 10.5-10.5h38c5.79 0 10.5 4.71 10.5 10.5s-4.71 10.5-10.5 10.5z"/><path d="m158 350h-38c-14.061 0-25.5 11.439-25.5 25.5s11.439 25.5 25.5 25.5h38c14.061 0 25.5-11.439 25.5-25.5s-11.439-25.5-25.5-25.5zm0 36h-38c-5.79 0-10.5-4.71-10.5-10.5s4.71-10.5 10.5-10.5h38c5.79 0 10.5 4.71 10.5 10.5s-4.71 10.5-10.5 10.5z"/><path d="m167.152 64.41c4.123.305 7.721-2.811 8.018-6.943.655-9.125 8.347-16.272 17.51-16.272h17.556v35.111h-17.556c-1.918 0-3.803-.307-5.601-.911-3.92-1.317-8.179.793-9.499 4.72-1.319 3.926.793 8.179 4.72 9.499 3.341 1.123 6.833 1.692 10.38 1.692h17.647c1.112 14.629 13.361 26.194 28.27 26.194h17.139c6.341 0 11.5-5.159 11.5-11.5v-94.5c0-6.341-5.159-11.5-11.5-11.5h-17.139c-14.909 0-27.158 11.565-28.27 26.194h-17.647c-16.992 0-31.255 13.265-32.471 30.198-.297 4.132 2.812 7.721 6.943 8.018zm58.083-36.049c0-7.367 5.994-13.361 13.361-13.361h13.639v87.5h-13.639c-7.367 0-13.361-5.994-13.361-13.361z"/><path d="m341.586 104.251c1.131.608 2.348.896 3.547.896 2.671 0 5.257-1.431 6.611-3.947 5.348-9.937 8.414-25.409 8.414-42.45s-3.066-32.514-8.414-42.45c-1.962-3.647-6.511-5.015-10.158-3.051-3.647 1.963-5.014 6.511-3.051 10.158 4.085 7.592 6.623 21.135 6.623 35.343s-2.538 27.751-6.623 35.343c-1.963 3.647-.597 8.195 3.051 10.158z"/><path d="m310.752 87.546c1.131.608 2.348.896 3.547.896 2.672 0 5.257-1.43 6.611-3.947 3.295-6.123 5.185-15.507 5.185-25.745s-1.89-19.622-5.185-25.745c-1.962-3.647-6.512-5.014-10.158-3.051-3.647 1.963-5.014 6.511-3.051 10.158 1.641 3.049 3.394 9.546 3.394 18.638s-1.753 15.589-3.394 18.638c-1.963 3.647-.597 8.195 3.051 10.158z"/><path d="m280.822 77.354c1.131.608 2.348.897 3.547.897 2.671 0 5.257-1.431 6.611-3.948 2.043-3.797 3.215-9.465 3.215-15.553s-1.172-11.756-3.215-15.553c-1.963-3.647-6.511-5.015-10.158-3.051-3.647 1.963-5.014 6.511-3.051 10.158.686 1.274 1.424 4.461 1.424 8.445s-.738 7.171-1.424 8.445c-1.962 3.649-.596 8.197 3.051 10.16z"/></g></g></svg>