<svg id="Layer_1" enable-background="new 0 0 512 512" height="512" viewBox="0 0 512 512" width="512" xmlns="http://www.w3.org/2000/svg"><g><g><path d="m489.5 434h-73.32c-4.143 0-7.5 3.357-7.5 7.5s3.357 7.5 7.5 7.5h73.32c4.136 0 7.5 3.364 7.5 7.5s-3.364 7.5-7.5 7.5h-467c-4.136 0-7.5-3.364-7.5-7.5s3.364-7.5 7.5-7.5h361.68c4.143 0 7.5-3.357 7.5-7.5s-3.357-7.5-7.5-7.5h-35.68v-36.226l137.307-124.487c7.423-6.729 11.782-15.945 12.273-25.952.49-10.008-2.945-19.605-9.674-27.022-.553-.611-139.906-134.4-139.906-134.4v-20.567c0-17.836-14.51-32.346-32.346-32.346h-16.282c-4.143 0-7.5 3.357-7.5 7.5s3.357 7.5 7.5 7.5h16.282c9.564 0 17.346 7.781 17.346 17.346v38.309c0 9.564-7.781 17.346-17.346 17.346h-120.308c-9.564 0-17.346-7.781-17.346-17.346v-38.309c0-9.564 7.781-17.346 17.346-17.346h71.821c4.143 0 7.5-3.357 7.5-7.5s-3.357-7.5-7.5-7.5h-71.821c-17.836 0-32.346 14.51-32.346 32.346v20.567s-139.352 133.787-139.905 134.397c-6.73 7.419-10.166 17.017-9.676 27.024.491 10.007 4.851 19.224 12.273 25.952l26.336 23.877c3.067 2.782 7.811 2.55 10.594-.52 2.782-3.068 2.55-7.812-.52-10.594l-26.336-23.877c-4.455-4.038-7.07-9.569-7.365-15.574-.295-6.004 1.767-11.761 5.805-16.213 8.334-9.195 22.594-9.893 31.785-1.562l129.434 117.358c-16.765 1.69-30.168 14.909-32.16 31.584l-77.467-70.234c-3.067-2.782-7.812-2.549-10.594.52s-2.55 7.812.52 10.594l87.275 79.126v36.229h-141c-12.405 0-22.499 10.094-22.499 22.5s10.094 22.5 22.5 22.5h467c12.406 0 22.5-10.094 22.5-22.5s-10.094-22.5-22.5-22.5zm-6.402-187.4c-.295 6.005-2.91 11.536-7.365 15.574l-127.499 115.594c-1.992-16.675-15.395-29.894-32.16-31.584l129.43-117.354c9.199-8.332 23.46-7.631 31.791 1.56 4.036 4.449 6.098 10.206 5.803 16.21zm-265.044 99.4-111.706-101.285 113.279-108.715h72.746l113.279 108.715-111.706 101.285zm130.308-239.428 106.216 101.941c-6.909 1.118-13.583 4.164-19.146 9.201l-18.64 16.901-102.756-98.615h2.118c16.852 0 30.728-12.955 32.208-29.428zm-290.936 101.937 106.212-101.938c1.48 16.473 15.356 29.428 32.208 29.428h2.118l-102.755 98.616-18.643-16.903c-5.56-5.038-12.233-8.085-19.14-9.203zm121.074 173.561c0-11.618 9.452-21.07 21.07-21.07h112.86c11.618 0 21.07 9.452 21.07 21.07v51.93h-155z"/><path d="m54.919 238.225c-3.14-2.703-7.873-2.35-10.577.79-2.703 3.14-2.349 7.875.79 10.577l4.051 3.487c1.417 1.22 3.157 1.816 4.891 1.816 2.107 0 4.203-.884 5.687-2.606 2.703-3.14 2.349-7.875-.79-10.577z"/><path d="m457.081 238.225-4.051 3.487c-3.139 2.702-3.493 7.438-.79 10.577 1.483 1.723 3.579 2.606 5.687 2.606 1.733 0 3.475-.597 4.891-1.816l4.051-3.487c3.139-2.702 3.493-7.438.79-10.577s-7.44-3.494-10.578-.79z"/><path d="m218.09 375.18c-12.406 0-22.5 10.094-22.5 22.5s10.094 22.5 22.5 22.5 22.5-10.094 22.5-22.5-10.094-22.5-22.5-22.5zm0 30c-4.136 0-7.5-3.364-7.5-7.5s3.364-7.5 7.5-7.5 7.5 3.364 7.5 7.5-3.364 7.5-7.5 7.5z"/><path d="m293.91 375.18c-12.406 0-22.5 10.094-22.5 22.5s10.094 22.5 22.5 22.5 22.5-10.094 22.5-22.5-10.094-22.5-22.5-22.5zm0 30c-4.136 0-7.5-3.364-7.5-7.5s3.364-7.5 7.5-7.5 7.5 3.364 7.5 7.5-3.364 7.5-7.5 7.5z"/><path d="m195.59 84.5c0 12.406 10.094 22.5 22.5 22.5s22.5-10.094 22.5-22.5-10.094-22.5-22.5-22.5-22.5 10.094-22.5 22.5zm30 0c0 4.136-3.364 7.5-7.5 7.5s-7.5-3.364-7.5-7.5 3.364-7.5 7.5-7.5 7.5 3.364 7.5 7.5z"/><path d="m293.91 107c12.406 0 22.5-10.094 22.5-22.5s-10.094-22.5-22.5-22.5-22.5 10.094-22.5 22.5 10.094 22.5 22.5 22.5zm0-30c4.136 0 7.5 3.364 7.5 7.5s-3.364 7.5-7.5 7.5-7.5-3.364-7.5-7.5 3.364-7.5 7.5-7.5z"/></g></g></svg>