<svg id="Layer_1" enable-background="new 0 0 512 512" height="512" viewBox="0 0 512 512" width="512" xmlns="http://www.w3.org/2000/svg"><g><g><path d="m256 437c-12.406 0-22.5 10.094-22.5 22.5s10.094 22.5 22.5 22.5 22.5-10.094 22.5-22.5-10.094-22.5-22.5-22.5zm0 30c-4.136 0-7.5-3.364-7.5-7.5s3.364-7.5 7.5-7.5 7.5 3.364 7.5 7.5-3.364 7.5-7.5 7.5z"/><path d="m385 0h-193.23c-4.143 0-7.5 3.357-7.5 7.5s3.357 7.5 7.5 7.5h189.73v21.5h-251v-21.5h29.5c4.143 0 7.5-3.357 7.5-7.5s-3.357-7.5-7.5-7.5h-33c-6.341 0-11.5 5.159-11.5 11.5v232.88c0 6.341 5.159 11.5 11.5 11.5h37.126c6.654 0 12.907-3.253 16.725-8.7l13.231-18.869c1.014-1.447 2.675-2.311 4.441-2.311h16.957v125.77c0 4.143 3.357 7.5 7.5 7.5s7.5-3.357 7.5-7.5v-125.77h51.039v187.643c-7.56-4.225-16.26-6.643-25.519-6.643s-17.959 2.418-25.52 6.643v-29.565c0-4.143-3.357-7.5-7.5-7.5s-7.5 3.357-7.5 7.5v42.077c-7.481 9.075-11.98 20.695-11.98 33.346 0 28.948 23.552 52.5 52.5 52.5s52.5-23.552 52.5-52.5c0-12.651-4.499-24.271-11.98-33.346v-200.155h16.957c1.767 0 3.428.863 4.442 2.312l13.229 18.867c3.818 5.448 10.071 8.701 16.726 8.701h37.126c6.341 0 11.5-5.159 11.5-11.5v-20.457c0-4.143-3.357-7.5-7.5-7.5s-7.5 3.357-7.5 7.5v16.957h-33.626c-1.768 0-3.429-.863-4.443-2.312l-13.229-18.867c-3.818-5.448-10.071-8.701-16.725-8.701h-114.954c-6.653 0-12.906 3.253-16.724 8.7l-13.231 18.869c-1.014 1.447-2.675 2.311-4.442 2.311h-33.626v-99.38h251v50.423c0 4.143 3.357 7.5 7.5 7.5s7.5-3.357 7.5-7.5v-180.423c0-6.341-5.159-11.5-11.5-11.5zm-129 497c-20.678 0-37.5-16.822-37.5-37.5s16.822-37.5 37.5-37.5 37.5 16.822 37.5 37.5-16.822 37.5-37.5 37.5zm-125.5-415.5h251v15h-251zm251-30v15h-251v-15zm-251 75v-15h251v15z"/></g></g></svg>