<svg id="Layer_1" enable-background="new 0 0 512 512" height="512" viewBox="0 0 512 512" width="512" xmlns="http://www.w3.org/2000/svg"><g><g><path d="m495.55 125h-47.17c-10.727 0-20.518 5.886-25.553 15.361l-24.299 45.738-9.147-48.512c4.272-2.727 7.119-7.499 7.119-12.932 0-15.25-12.405-27.655-27.654-27.655h-16.666c-4.143 0-7.5 3.357-7.5 7.5s3.357 7.5 7.5 7.5h16.666c6.978 0 12.654 5.677 12.654 12.654 0 .19-.155.346-.346.346h-250.308c-.19 0-.346-.155-.346-.346 0-6.978 5.677-12.654 12.654-12.654h177.026c4.143 0 7.5-3.357 7.5-7.5s-3.357-7.5-7.5-7.5h-177.026c-15.249 0-27.654 12.405-27.654 27.654 0 5.434 2.847 10.205 7.119 12.932l-9.147 48.512-24.299-45.738c-5.035-9.474-14.826-15.36-25.553-15.36h-47.17c-9.07 0-16.45 7.38-16.45 16.45v114.55c0 4.143 3.357 7.5 7.5 7.5s7.5-3.357 7.5-7.5v-40h76.717c-10.589 10.005-17.217 24.162-17.217 39.846v54.885c0 4.412 1.06 8.579 2.928 12.27h-60.978c-.8 0-1.45-.65-1.45-1.45v-33.678c0-4.143-3.357-7.5-7.5-7.5s-7.5 3.357-7.5 7.5v33.678c0 9.069 7.38 16.449 16.45 16.449h59.06c-.652 2.052-1.01 4.234-1.01 6.5v12c0 11.855 9.645 21.5 21.5 21.5h4.5v17.5c0 10.752 8.748 19.5 19.5 19.5h38c10.752 0 19.5-8.748 19.5-19.5v-17.5h110.27c4.143 0 7.5-3.357 7.5-7.5s-3.357-7.5-7.5-7.5h-191.77c-3.584 0-6.5-2.916-6.5-6.5v-12c0-3.584 2.916-6.5 6.5-6.5h320c3.584 0 6.5 2.916 6.5 6.5v12c0 3.584-2.916 6.5-6.5 6.5h-96.23c-4.143 0-7.5 3.357-7.5 7.5s3.357 7.5 7.5 7.5h8.73v17.5c0 10.752 8.748 19.5 19.5 19.5h38c10.752 0 19.5-8.748 19.5-19.5v-17.5h10.5c11.855 0 21.5-9.645 21.5-21.5v-12c0-2.266-.357-4.448-1.01-6.5h59.06c9.07 0 16.45-7.38 16.45-16.45v-180.1c0-9.07-7.38-16.45-16.45-16.45zm-333.05 270.5c0 2.481-2.019 4.5-4.5 4.5h-38c-2.481 0-4.5-2.019-4.5-4.5v-17.5h47zm228 0c0 2.481-2.019 4.5-4.5 4.5h-38c-2.481 0-4.5-2.019-4.5-4.5v-17.5h47zm45.573-248.101c2.425-4.564 7.141-7.399 12.307-7.399h47.17c.8 0 1.45.65 1.45 1.45v59.55h-89.402zm-150.8 53.601c3.215-10.479 12.979-18.12 24.497-18.12s21.283 7.641 24.498 18.12zm78.691 15.004-8.517 11.312c-1.739 2.31-4.504 3.688-7.396 3.688h-184.103c-2.892 0-5.656-1.379-7.396-3.689l-8.517-11.311zm10.608-76.004 11.524 61.119c-1.139-.071-2.285-.119-3.442-.119h-32.97c-3.53-18.826-20.079-33.12-39.915-33.12-19.834 0-36.384 14.294-39.914 33.12h-140.51c-1.157 0-2.302.048-3.442.119l11.525-61.119zm-359.572 1.45c0-.8.65-1.45 1.45-1.45h47.17c5.166 0 9.882 2.835 12.307 7.398l28.475 53.602h-89.402zm209.5 181.55v-47.02c0-1.092.889-1.98 1.98-1.98h59.039c1.092 0 1.98.889 1.98 1.98v47.02zm78 0v-47.02c0-9.363-7.617-16.98-16.98-16.98h-59.04c-9.363 0-16.98 7.617-16.98 16.98v47.02h-107.73c-6.766 0-12.27-5.504-12.27-12.27v-54.885c0-21.941 17.828-39.796 39.758-39.844l15.313 20.335c4.557 6.054 11.801 9.667 19.378 9.667h184.104c7.577 0 14.821-3.613 19.378-9.666l15.313-20.336c21.93.048 39.758 17.902 39.758 39.844v54.885c0 6.766-5.504 12.27-12.27 12.27zm194.5-1.45c0 .8-.65 1.45-1.45 1.45h-60.978c1.868-3.691 2.928-7.857 2.928-12.27v-54.885c0-15.684-6.628-29.84-17.217-39.846h76.717z"/><path d="m465 242.5h16c4.143 0 7.5-3.357 7.5-7.5s-3.357-7.5-7.5-7.5h-16c-4.143 0-7.5 3.357-7.5 7.5s3.357 7.5 7.5 7.5z"/><path d="m382 253h-38c-14.061 0-25.5 11.439-25.5 25.5s11.439 25.5 25.5 25.5h38c14.061 0 25.5-11.439 25.5-25.5s-11.439-25.5-25.5-25.5zm0 36h-38c-5.79 0-10.5-4.71-10.5-10.5s4.71-10.5 10.5-10.5h38c5.79 0 10.5 4.71 10.5 10.5s-4.71 10.5-10.5 10.5z"/><path d="m168 253h-38c-14.061 0-25.5 11.439-25.5 25.5s11.439 25.5 25.5 25.5h38c14.061 0 25.5-11.439 25.5-25.5s-11.439-25.5-25.5-25.5zm0 36h-38c-5.79 0-10.5-4.71-10.5-10.5s4.71-10.5 10.5-10.5h38c5.79 0 10.5 4.71 10.5 10.5s-4.71 10.5-10.5 10.5z"/><path d="m47 242.5c4.143 0 7.5-3.357 7.5-7.5s-3.357-7.5-7.5-7.5h-16c-4.143 0-7.5 3.357-7.5 7.5s3.357 7.5 7.5 7.5z"/></g></g></svg>