<svg id="Layer_1" enable-background="new 0 0 512 512" height="512" viewBox="0 0 512 512" width="512" xmlns="http://www.w3.org/2000/svg"><g><g><path d="m457.612 302.156c-19.141 15.698-43.345 24.344-68.152 24.344h-309.46v-53.935h201.897c26.054 0 47.25-21.196 47.25-47.25s-21.196-47.25-47.25-47.25h-200.093c4.394-24.335 16.716-46.604 35.244-63.396 20.755-18.811 47.629-29.17 75.672-29.17h127.049c4.142 0 7.5-3.357 7.5-7.5s-3.358-7.5-7.5-7.5h-127.049c-31.774 0-62.226 11.739-85.746 33.056-21.837 19.791-36.069 46.304-40.493 75.19-6.404 1.955-11.077 7.915-11.077 14.95v63.239c0 6.48 3.965 12.05 9.595 14.416v55.15h-57.499c-4.142 0-7.5 3.357-7.5 7.5v18.077c0 4.143 3.358 7.5 7.5 7.5s7.5-3.357 7.5-7.5v-10.577h124.141v7.423c0 42.776-34.801 77.577-77.578 77.577h-46.563v-42.5c0-4.143-3.358-7.5-7.5-7.5s-7.5 3.357-7.5 7.5v50c0 4.143 3.358 7.5 7.5 7.5h54.063c51.047 0 92.578-41.53 92.578-92.577v-7.423h235.319c28.267 0 55.848-9.854 77.664-27.746 3.203-2.627 3.669-7.353 1.043-10.555-2.627-3.204-7.354-3.671-10.555-1.043zm-143.465-76.841c0 17.782-14.467 32.25-32.25 32.25h-210.862c-.347 0-.63-.282-.63-.63v-63.239c0-.348.283-.631.63-.631h210.863c17.782 0 32.249 14.468 32.249 32.25z"/><path d="m455.95 70.5h-103.565c-4.142 0-7.5 3.357-7.5 7.5s3.358 7.5 7.5 7.5h103.565c22.635 0 41.05 18.415 41.05 41.05v92.41c0 22.053-6.623 43.243-19.153 61.28-2.363 3.402-1.521 8.076 1.881 10.438 1.305.906 2.795 1.342 4.272 1.342 2.374 0 4.709-1.125 6.167-3.222 14.283-20.562 21.833-44.711 21.833-69.838v-92.41c0-30.906-25.144-56.05-56.05-56.05z"/><path d="m113.703 248.815c12.958 0 23.5-10.542 23.5-23.5s-10.542-23.5-23.5-23.5-23.5 10.542-23.5 23.5 10.542 23.5 23.5 23.5zm0-32c4.687 0 8.5 3.813 8.5 8.5s-3.813 8.5-8.5 8.5-8.5-3.813-8.5-8.5 3.813-8.5 8.5-8.5z"/></g></g></svg>