<svg id="Layer_1" enable-background="new 0 0 512 512" height="512" viewBox="0 0 512 512" width="512" xmlns="http://www.w3.org/2000/svg"><g><g><path d="m453 325h-54.609c-.739-5.633-5.559-10-11.391-10h-3.5v-12.479c22.725-1.524 43.024-3.248 59.878-4.855 4.124-.393 7.147-4.055 6.754-8.178-.394-4.125-4.066-7.164-8.178-6.754-44.32 4.227-112.593 9.266-186.149 9.266-102.603 0-195.172-9.802-230.21-14.016-6.04-.726-10.595-5.86-10.595-11.942v-73.76c0-4.143-3.358-7.5-7.5-7.5s-7.5 3.357-7.5 7.5v73.76c0 13.667 10.234 25.204 23.805 26.835 19.434 2.337 56.438 6.38 103.025 9.543v12.58h-1.83c-5.832 0-10.652 4.367-11.391 10h-54.609c-6.018 0-11.67 2.347-15.894 6.588-4.26 4.244-6.606 9.896-6.606 15.912 0 12.406 10.093 22.5 22.5 22.5h54.609c.739 5.633 5.559 10 11.391 10h52c5.832 0 10.652-4.367 11.391-10h35.687c4.142 0 7.5-3.357 7.5-7.5s-3.358-7.5-7.5-7.5h-35.578v-15h135v15h-67.5c-4.142 0-7.5 3.357-7.5 7.5s3.358 7.5 7.5 7.5h67.609c.739 5.633 5.559 10 11.391 10h52c5.832 0 10.652-4.367 11.391-10h54.609c6.018 0 11.67-2.347 15.894-6.588 4.26-4.244 6.606-9.896 6.606-15.912 0-12.406-10.093-22.5-22.5-22.5zm-84.5-10h-15v-10.682c5.09-.269 10.09-.552 15-.846zm-30-9.946v9.946h-3.5c-5.832 0-10.652 4.367-11.391 10h-135.218c-.739-5.633-5.559-10-11.391-10h-5.17v-10.008c26.472 1.223 54.82 2.008 83.975 2.008 28.738 0 56.662-.765 82.695-1.946zm-196.67-1.668c4.912.299 9.917.585 15 .857v10.757h-15zm-90.33 44.114c0-2 .779-3.877 2.214-5.307 1.409-1.414 3.286-2.193 5.286-2.193h54.5v15h-54.5c-4.136 0-7.5-3.364-7.5-7.5zm122 17.5h-45v-35h45zm210 0h-45v-35h45zm74.786-12.193c-1.409 1.414-3.286 2.193-5.286 2.193h-54.5v-15h54.5c4.136 0 7.5 3.364 7.5 7.5 0 2-.779 3.877-2.214 5.307z"/><path d="m489.183 132h-56.25c-6.033 0-11.932 2.454-16.184 6.733l-23.94 24.091c-1.457 1.466-3.479 2.307-5.545 2.307h-262.528c-2.067 0-4.088-.841-5.545-2.307l-23.94-24.09c-4.252-4.28-10.151-6.734-16.185-6.734h-56.25c-12.581 0-22.816 10.235-22.816 22.816v4.953c0 4.143 3.358 7.5 7.5 7.5s7.5-3.357 7.5-7.5v-4.953c0-4.31 3.507-7.816 7.817-7.816h56.25c2.067 0 4.087.841 5.544 2.308l23.941 24.091c4.252 4.278 10.151 6.732 16.184 6.732h19.262v22.388c0 9.696 7.888 17.584 17.584 17.584h188.836c9.696 0 17.584-7.888 17.584-17.584v-22.388h19.262c6.033 0 11.932-2.454 16.185-6.732l23.941-24.092c1.457-1.466 3.477-2.307 5.544-2.307h56.25c4.31 0 7.817 3.507 7.817 7.816v111.22c0 6.084-4.557 11.218-10.601 11.943-3.662.439-7.866.929-12.568 1.456-4.117.461-7.08 4.172-6.618 8.288.429 3.833 3.676 6.666 7.444 6.666.279 0 .561-.016.844-.048 4.746-.531 8.989-1.026 12.685-1.47 13.575-1.627 23.813-13.164 23.813-26.835v-111.22c0-12.581-10.235-22.816-22.817-22.816zm-136.181 70.519c0 1.425-1.159 2.584-2.584 2.584h-188.836c-1.425 0-2.584-1.159-2.584-2.584v-22.388h194.005v22.388z"/><path d="m93.939 245.915c12.407 0 22.5-10.094 22.5-22.5s-10.093-22.5-22.5-22.5h-34c-12.407 0-22.5 10.094-22.5 22.5s10.093 22.5 22.5 22.5zm-41.5-22.5c0-4.136 3.364-7.5 7.5-7.5h34c4.136 0 7.5 3.364 7.5 7.5s-3.364 7.5-7.5 7.5h-34c-4.135 0-7.5-3.364-7.5-7.5z"/><path d="m450.007 245.915c12.407 0 22.5-10.094 22.5-22.5s-10.093-22.5-22.5-22.5h-34c-12.407 0-22.5 10.094-22.5 22.5s10.093 22.5 22.5 22.5zm-41.5-22.5c0-4.136 3.364-7.5 7.5-7.5h34c4.136 0 7.5 3.364 7.5 7.5s-3.364 7.5-7.5 7.5h-34c-4.136 0-7.5-3.364-7.5-7.5z"/></g></g></svg>