<svg id="Layer_1" enable-background="new 0 0 512 512" height="512" viewBox="0 0 512 512" width="512" xmlns="http://www.w3.org/2000/svg"><g><g><path d="m222.765 343.5c48.248 0 87.5-39.252 87.5-87.5s-39.252-87.5-87.5-87.5-87.5 39.252-87.5 87.5 39.252 87.5 87.5 87.5zm0-160c39.976 0 72.5 32.523 72.5 72.5s-32.523 72.5-72.5 72.5-72.5-32.523-72.5-72.5 32.523-72.5 72.5-72.5z"/><path d="m171.785 298.887c3.689 5.696 9.893 8.946 16.326 8.946 2.056 0 4.136-.332 6.164-1.022 2.649-.901 5.101-1.985 7.389-3.19.154 9.147 6.429 16.833 15.382 18.753 1.388.298 2.778.442 4.15.442 7.283-.001 14.065-4.06 17.351-10.742 1.236-2.51 2.205-5.011 2.971-7.481 3.564 3.45 8.38 5.528 13.591 5.528 3.72 0 7.367-1.087 10.543-3.143 7.516-4.862 10.776-14.11 7.928-22.492-.9-2.645-1.982-5.095-3.185-7.38 9.141-.161 16.819-6.434 18.737-15.382 1.878-8.756-2.354-17.601-10.289-21.511-2.51-1.236-5.011-2.205-7.482-2.971 3.444-3.564 5.518-8.379 5.518-13.591 0-3.723-1.083-7.364-3.135-10.537-4.869-7.518-14.119-10.775-22.49-7.924-2.648.901-5.101 1.984-7.389 3.19-.153-9.147-6.429-16.833-15.382-18.753-8.756-1.88-17.597 2.358-21.501 10.297-1.238 2.511-2.207 5.012-2.973 7.483-3.564-3.45-8.38-5.527-13.59-5.527-3.72 0-7.367 1.087-10.543 3.143-7.516 4.861-10.776 14.109-7.927 22.494.9 2.645 1.983 5.094 3.186 7.378-9.141.16-16.82 6.433-18.739 15.383-1.876 8.755 2.354 17.6 10.29 21.51 2.507 1.235 5.006 2.214 7.473 2.98-3.439 3.563-5.509 8.375-5.509 13.582 0 3.724 1.083 7.367 3.135 10.537zm17.657-6.277c-1.829.623-3.959-.167-5.066-1.876-.482-.745-.727-1.547-.727-2.385 0-1.718 1.108-3.851 3.544-4.475 5.127-1.315 10.016-3.25 14.611-5.75 1.257 1.191 2.612 2.281 4.057 3.247-3.854 4.425-9.201 8.784-16.419 11.239zm33.323-52.11c8.546 0 15.5 6.953 15.5 15.5s-6.953 15.5-15.5 15.5-15.5-6.953-15.5-15.5 6.953-15.5 15.5-15.5zm2.325 64.95c-.852 1.732-2.913 2.681-4.897 2.257-2.434-.522-3.542-2.661-3.542-4.427 0-.845.226-1.654.672-2.407 2.692-4.543 4.783-9.367 6.268-14.394 1.763-.047 3.49-.238 5.166-.574.4 5.851-.3 12.71-3.667 19.545zm32.415-11.066c-.755.488-1.561.736-2.395.736-1.712 0-3.84-1.109-4.465-3.542-1.314-5.127-3.249-10.02-5.752-14.621 1.192-1.258 2.282-2.614 3.248-4.06 4.424 3.854 8.784 9.201 11.238 16.416.623 1.833-.164 3.964-1.874 5.071zm16.962-35.806c-.522 2.434-2.66 3.542-4.427 3.542-.845 0-1.654-.226-2.406-.672-4.552-2.697-9.374-4.79-14.39-6.275-.047-1.764-.238-3.493-.574-5.17 5.853-.4 12.713.3 19.547 3.666 1.73.852 2.677 2.917 2.25 4.909zm-18.38-39.188c1.831-.621 3.96.169 5.065 1.874.482.746.728 1.549.728 2.387 0 1.718-1.107 3.851-3.544 4.475-5.127 1.315-10.016 3.25-14.611 5.75-1.263-1.197-2.625-2.292-4.078-3.261 4.589-5.298 10.091-9.066 16.44-11.225zm-35.647-12.84c.853-1.733 2.913-2.685 4.898-2.257 2.434.522 3.542 2.66 3.542 4.427 0 .845-.226 1.654-.672 2.407-2.693 4.544-4.783 9.368-6.269 14.394-1.763.047-3.49.238-5.166.573-.401-5.851.298-12.71 3.667-19.544zm-32.415 11.066c.755-.488 1.561-.736 2.395-.736 1.713 0 3.84 1.109 4.465 3.543 1.315 5.125 3.249 10.019 5.75 14.623-1.19 1.256-2.278 2.61-3.243 4.054-4.423-3.851-8.783-9.194-11.24-16.413-.624-1.833.163-3.964 1.873-5.071zm-16.962 35.806c.521-2.434 2.66-3.542 4.427-3.542.845 0 1.654.226 2.406.672 4.543 2.693 9.366 4.783 14.39 6.269.047 1.766.238 3.496.574 5.175-5.852.401-12.712-.298-19.546-3.664-1.731-.853-2.677-2.919-2.251-4.91z"/><path d="m504.5 34.5h-152.525c-4.143 0-7.5 3.357-7.5 7.5s3.357 7.5 7.5 7.5h15.68v89.43h-36.76c-.304 0-.603.023-.897.059h-108.576c-64.499 0-116.972 52.491-116.972 117.012 0 12.255 1.896 24.338 5.635 35.912 1.026 3.176 3.969 5.196 7.135 5.196.764 0 1.541-.118 2.307-.365 3.941-1.273 6.104-5.501 4.831-9.442-3.257-10.082-4.909-20.613-4.909-31.301 0-56.249 45.745-102.012 101.972-102.012h101.972v102.011c0 56.249-45.744 102.012-101.972 102.012-33.414 0-64.771-16.474-83.882-44.068-2.357-3.404-7.029-4.252-10.436-1.896-3.405 2.358-4.254 7.031-1.896 10.437 21.911 31.639 57.878 50.527 96.213 50.527 64.499 0 116.972-52.491 116.972-117.012v-102.012h89.451v102.012c0 45.596-14.622 88.85-42.285 125.086-2.513 3.292-1.882 7.999 1.411 10.513 1.358 1.037 2.958 1.538 4.545 1.538 2.259 0 4.491-1.016 5.968-2.949 29.676-38.873 45.361-85.274 45.361-134.188v-102.012h61.657c4.143 0 7.5-3.357 7.5-7.5v-104.488c0-4.143-3.357-7.5-7.5-7.5zm-71.657 104.43h-17.595v-89.43h17.595zm15-89.43h17.595v89.488h-17.595zm-65.189 0h17.594v89.43h-17.594zm114.346 89.488h-16.563v-89.488h16.563z"/><path d="m365.062 404.168c-38.763 37.616-89.775 58.332-143.639 58.332-113.822 0-206.423-92.636-206.423-206.5s92.601-206.5 206.422-206.5h98.552c4.143 0 7.5-3.357 7.5-7.5s-3.357-7.5-7.5-7.5h-98.552c-122.092 0-221.422 99.364-221.422 221.5s99.33 221.5 221.422 221.5c57.786 0 112.508-22.221 154.084-62.568 2.973-2.884 3.044-7.633.159-10.604-2.883-2.973-7.632-3.046-10.603-.16z"/></g></g></svg>