<svg id="Layer_1" enable-background="new 0 0 512 512" height="512" viewBox="0 0 512 512" width="512" xmlns="http://www.w3.org/2000/svg"><g><g><path d="m127.5 383.77c0 4.143 3.357 7.5 7.5 7.5s7.5-3.357 7.5-7.5v-37.021c0-8.259-1.871-16.567-5.41-24.027l-16.627-35.05c-2.593-5.465-3.963-11.55-3.963-17.598v-159.003c0-5.581 4.54-10.121 10.121-10.121h194.174c4.143 0 7.5-3.357 7.5-7.5s-3.357-7.5-7.5-7.5h-19.295v-23.369c0-4.143-3.357-7.5-7.5-7.5h-15.5v-47.581c0-4.143-3.357-7.5-7.5-7.5h-30c-4.143 0-7.5 3.357-7.5 7.5v47.581h-15.5c-4.143 0-7.5 3.357-7.5 7.5v23.369h-83.879c-13.852 0-25.121 11.27-25.121 25.121v159.002c0 8.258 1.871 16.566 5.41 24.027l16.627 35.05c2.593 5.464 3.963 11.549 3.963 17.598zm121-368.77h15v40.081h-15zm-23 55.081h61v15.869h-61z"/><path d="m385.379 85.95h-32.379c-4.143 0-7.5 3.357-7.5 7.5s3.357 7.5 7.5 7.5h32.379c5.581 0 10.121 4.54 10.121 10.121v159.002c0 6.048-1.37 12.133-3.963 17.598l-16.627 35.05c-3.539 7.46-5.41 15.769-5.41 24.027v140.131c0 5.581-4.54 10.121-10.121 10.121h-206.758c-5.581 0-10.121-4.54-10.121-10.121v-70.699c0-4.143-3.357-7.5-7.5-7.5s-7.5 3.357-7.5 7.5v70.699c0 13.852 11.27 25.121 25.121 25.121h206.758c13.852 0 25.121-11.27 25.121-25.121v-140.131c0-6.049 1.37-12.134 3.963-17.598l16.627-35.05c3.539-7.461 5.41-15.77 5.41-24.027v-159.002c0-13.851-11.27-25.121-25.121-25.121z"/><path d="m380.5 261.95v-132.571c0-7.404-6.024-13.429-13.429-13.429h-222.142c-7.404 0-13.429 6.024-13.429 13.429v132.571c0 7.404 6.024 13.429 13.429 13.429h143.456c4.143 0 7.5-3.357 7.5-7.5s-3.357-7.5-7.5-7.5h-141.885v-129.429h219v129.429h-44.705c-4.143 0-7.5 3.357-7.5 7.5s3.357 7.5 7.5 7.5h46.276c7.405 0 13.429-6.025 13.429-13.429z"/><path d="m220 340.5h-18c-15.715 0-28.5 12.785-28.5 28.5s12.785 28.5 28.5 28.5h18c15.715 0 28.5-12.785 28.5-28.5s-12.785-28.5-28.5-28.5zm0 42h-18c-7.444 0-13.5-6.056-13.5-13.5s6.056-13.5 13.5-13.5h18c7.444 0 13.5 6.056 13.5 13.5s-6.056 13.5-13.5 13.5z"/><path d="m310 340.5h-18c-15.715 0-28.5 12.785-28.5 28.5s12.785 28.5 28.5 28.5h18c15.715 0 28.5-12.785 28.5-28.5s-12.785-28.5-28.5-28.5zm0 42h-18c-7.444 0-13.5-6.056-13.5-13.5s6.056-13.5 13.5-13.5h18c7.444 0 13.5 6.056 13.5 13.5s-6.056 13.5-13.5 13.5z"/><path d="m220 411.132h-18c-15.715 0-28.5 12.785-28.5 28.5s12.785 28.5 28.5 28.5h18c15.715 0 28.5-12.785 28.5-28.5s-12.785-28.5-28.5-28.5zm0 42h-18c-7.444 0-13.5-6.056-13.5-13.5s6.056-13.5 13.5-13.5h18c7.444 0 13.5 6.056 13.5 13.5s-6.056 13.5-13.5 13.5z"/><path d="m310 411.132h-18c-15.715 0-28.5 12.785-28.5 28.5s12.785 28.5 28.5 28.5h18c15.715 0 28.5-12.785 28.5-28.5s-12.785-28.5-28.5-28.5zm0 42h-18c-7.444 0-13.5-6.056-13.5-13.5s6.056-13.5 13.5-13.5h18c7.444 0 13.5 6.056 13.5 13.5s-6.056 13.5-13.5 13.5z"/><path d="m348.5 302c0-4.143-3.357-7.5-7.5-7.5h-170c-4.143 0-7.5 3.357-7.5 7.5s3.357 7.5 7.5 7.5h170c4.143 0 7.5-3.357 7.5-7.5z"/></g></g></svg>