<svg id="Layer_1" enable-background="new 0 0 512 512" height="512" viewBox="0 0 512 512" width="512" xmlns="http://www.w3.org/2000/svg"><g><g><path d="m30 281.53v7.989c0 42.999 34.981 77.98 77.98 77.98h236.99c75.559 0 137.03-61.472 137.03-137.03v-23.271c0-34.572-28.126-62.698-62.698-62.698h-252.272c-75.558 0-137.03 61.472-137.03 137.03zm437-74.332v23.271c0 67.288-54.742 122.03-122.03 122.03h-236.99c-34.727.001-62.98-28.252-62.98-62.979v-7.989c0-67.288 54.742-122.03 122.03-122.03h252.271c26.302-.001 47.699 21.396 47.699 47.697z"/><path d="m15 289.52v-7.989c0-83.831 68.2-152.031 152.03-152.031h184.944c4.143 0 7.5-3.357 7.5-7.5s-3.357-7.5-7.5-7.5h-184.944c-92.1 0-167.03 74.93-167.03 167.03v7.989c0 21.531 6.321 42.325 18.28 60.133 1.448 2.155 3.818 3.319 6.233 3.319 1.438 0 2.892-.413 4.175-1.274 3.438-2.31 4.354-6.97 2.045-10.408-10.293-15.325-15.733-33.227-15.733-51.769z"/><path d="m419.302 114.5h-35.122c-4.143 0-7.5 3.357-7.5 7.5s3.357 7.5 7.5 7.5h35.122c42.843 0 77.698 34.855 77.698 77.698v23.271c0 83.83-68.2 152.03-152.03 152.03h-236.99c-20.966 0-40.754-6.809-57.226-19.691-3.261-2.551-7.976-1.977-10.528 1.288-2.552 3.263-1.975 7.977 1.288 10.528 19.135 14.966 42.119 22.876 66.466 22.876h236.99c92.1 0 167.03-74.93 167.03-167.03v-23.271c0-51.115-41.584-92.699-92.698-92.699z"/><path d="m64.516 267.003c0 38.874 31.626 70.5 70.5 70.5s70.5-31.626 70.5-70.5-31.626-70.5-70.5-70.5-70.5 31.626-70.5 70.5zm126 0c0 30.603-24.897 55.5-55.5 55.5s-55.5-24.897-55.5-55.5 24.897-55.5 55.5-55.5 55.5 24.897 55.5 55.5z"/><path d="m108.516 267.003c0 14.612 11.888 26.5 26.5 26.5s26.5-11.888 26.5-26.5-11.888-26.5-26.5-26.5-26.5 11.888-26.5 26.5zm38 0c0 6.341-5.159 11.5-11.5 11.5s-11.5-5.159-11.5-11.5 5.159-11.5 11.5-11.5 11.5 5.159 11.5 11.5z"/><path d="m323.071 349.936c27.646 0 53.821-12.056 71.816-33.075 2.694-3.147 2.327-7.882-.819-10.575-3.146-2.694-7.881-2.326-10.575.819-15.142 17.688-37.164 27.831-60.422 27.831-43.837 0-79.5-35.663-79.5-79.5s35.663-79.5 79.5-79.5 79.5 35.663 79.5 79.5c0 9.087-1.519 17.995-4.514 26.478-1.379 3.906.669 8.19 4.575 9.569 3.91 1.377 8.19-.67 9.569-4.575 3.563-10.091 5.369-20.679 5.369-31.472 0-52.107-42.393-94.5-94.5-94.5s-94.5 42.393-94.5 94.5 42.394 94.5 94.501 94.5z"/><path d="m283.216 255.436c0 21.976 17.879 39.854 39.855 39.854s39.855-17.879 39.855-39.854c0-21.977-17.879-39.855-39.855-39.855s-39.855 17.878-39.855 39.855zm64.711 0c0 13.705-11.15 24.854-24.855 24.854s-24.855-11.149-24.855-24.854 11.15-24.855 24.855-24.855 24.855 11.149 24.855 24.855z"/></g></g></svg>