<svg id="Layer_1" enable-background="new 0 0 512 512" height="512" viewBox="0 0 512 512" width="512" xmlns="http://www.w3.org/2000/svg"><g><g><path d="m494.4 245h-26.05c-4.097 0-8.053.929-11.633 2.613l-11.248-95.769c1.089-.648 2.114-1.42 3.034-2.34 2.9-2.9 4.497-6.754 4.497-10.854 0-15.246-12.404-27.65-27.65-27.65h-9.295c-4.142 0-7.5 3.357-7.5 7.5s3.358 7.5 7.5 7.5h9.295c6.975 0 12.65 5.675 12.65 12.65 0 .043 0 .144-.102.246-.104.104-.205.104-.248.104h-262.429c-.138-1.555-.221-3.119-.221-4.695v-8.305h209.055c4.142 0 7.5-3.357 7.5-7.5s-3.358-7.5-7.5-7.5h-209.055v-68.115c0-23.647-19.238-42.885-42.885-42.885h-89.23c-23.647 0-42.885 19.238-42.885 42.885v89.23c0 23.647 19.238 42.885 42.885 42.885h47.924l-2.497 21.265c-.483 4.114 2.46 7.841 6.574 8.324.297.034.592.052.884.052 3.751 0 6.991-2.81 7.439-6.626l2.703-23.015h22.96c8.764 0 17.464 2.216 25.16 6.408l17.847 9.723c1.828.996 3.793 1.483 5.737 1.483 2.895 0 5.744-1.081 8.023-3.18 3.81-3.509 4.919-8.837 2.824-13.575l-8.971-20.282c-.231-.522-.436-1.05-.65-1.577h251.775l13.297 113.22c-1.571-.136-3.157-.22-4.763-.22h-33.099c-7.361-21.178-27.722-36-50.555-36s-43.194 14.822-50.555 36h-205.096c-1.606 0-3.192.084-4.763.22l4.334-36.909c.483-4.114-2.46-7.841-6.574-8.324-4.114-.469-7.84 2.461-8.323 6.574l-2.237 19.052c-3.581-1.684-7.537-2.613-11.633-2.613h-26.05c-9.705 0-17.6 7.896-17.6 17.6v17.8c0 9.704 7.896 17.6 17.6 17.6h5.862c-3.497 7.214-5.462 15.305-5.462 23.846v72.885c0 6.924 2.598 13.25 6.865 18.063-4.212 3.928-6.865 9.506-6.865 15.706v12c0 11.855 9.645 21.5 21.5 21.5h4.5v30.5c0 10.752 8.748 19.5 19.5 19.5h38c10.752 0 19.5-8.748 19.5-19.5v-30.5h191.683c4.142 0 7.5-3.357 7.5-7.5s-3.358-7.5-7.5-7.5h-273.183c-3.584 0-6.5-2.916-6.5-6.5v-12c0-3.584 2.916-6.5 6.5-6.5h406c3.584 0 6.5 2.916 6.5 6.5v12c0 3.584-2.916 6.5-6.5 6.5h-100.119c-4.142 0-7.5 3.357-7.5 7.5s3.358 7.5 7.5 7.5h12.619v30.5c0 10.752 8.748 19.5 19.5 19.5h38c10.752 0 19.5-8.748 19.5-19.5v-30.5h10.5c11.855 0 21.5-9.645 21.5-21.5v-12c0-6.2-2.653-11.778-6.865-15.706 4.267-4.814 6.865-11.14 6.865-18.063v-72.885c0-8.541-1.965-16.631-5.462-23.846h5.862c9.705 0 17.6-7.896 17.6-17.6v-17.8c0-9.704-7.896-17.6-17.6-17.6zm-333.191-76.764c-9.892-5.389-21.073-8.236-32.336-8.236h-85.988c-15.376 0-27.885-12.509-27.885-27.885v-89.23c0-15.376 12.509-27.885 27.885-27.885h89.23c15.376 0 27.885 12.509 27.885 27.885v91.42c0 9.476 1.943 18.674 5.776 27.339l5.291 11.963zm-28.209 324.264c0 2.481-2.019 4.5-4.5 4.5h-38c-2.481 0-4.5-2.019-4.5-4.5v-30.5h47zm314 0c0 2.481-2.019 4.5-4.5 4.5h-38c-2.481 0-4.5-2.019-4.5-4.5v-30.5h47zm-26.536-210.496-8.518 11.312c-1.738 2.31-4.502 3.688-7.394 3.688h-270.104c-2.892 0-5.656-1.379-7.395-3.689l-8.517-11.311zm-64.964-36.004c14.61 0 27.816 8.426 34.288 21h-68.576c6.472-12.574 19.678-21 34.288-21zm-313.5 34.4v-17.8c0-1.434 1.167-2.6 2.6-2.6h26.05c3.787 0 7.314 1.737 9.634 4.635l-.737 6.276c-6.93 2.772-13.173 6.907-18.378 12.089h-16.569c-1.433 0-2.6-1.166-2.6-2.6zm30.269 126.6c-6.765 0-12.269-5.504-12.269-12.27v-72.885c0-21.941 17.827-39.795 39.758-39.843l15.312 20.334c4.557 6.053 11.801 9.667 19.378 9.667h270.104c7.577 0 14.821-3.614 19.377-9.666l15.313-20.335c21.931.048 39.758 17.903 39.758 39.844v72.885c0 6.766-5.504 12.27-12.269 12.27h-394.462zm424.731-126.6c0 1.434-1.167 2.6-2.6 2.6h-16.568c-5.205-5.183-11.448-9.317-18.379-12.089l-.737-6.275c2.319-2.898 5.847-4.635 9.634-4.635h26.05c1.434 0 2.6 1.166 2.6 2.6z"/><path d="m120.68 319h-15.911c-16.415 0-29.769 13.354-29.769 29.77v13.346c0 14.272 11.612 25.884 25.885 25.884h37.436c14.159 0 25.679-11.52 25.679-25.68 0-23.886-19.434-43.32-43.32-43.32zm17.641 54h-37.436c-6.002 0-10.885-4.883-10.885-10.885v-13.345c0-8.144 6.625-14.77 14.769-14.77h15.911c15.616 0 28.32 12.704 28.32 28.32 0 5.889-4.791 10.68-10.679 10.68z"/><path d="m434.231 319h-15.911c-23.887 0-43.32 19.434-43.32 43.32 0 14.16 11.52 25.68 25.679 25.68h37.436c14.273 0 25.885-11.612 25.885-25.885v-13.345c0-16.416-13.354-29.77-29.769-29.77zm14.769 43.115c0 6.002-4.883 10.885-10.885 10.885h-37.436c-5.889 0-10.679-4.791-10.679-10.68 0-15.616 12.705-28.32 28.32-28.32h15.911c8.144 0 14.769 6.626 14.769 14.77z"/><path d="m310 320h-81c-21.78 0-39.5 17.72-39.5 39.5s17.72 39.5 39.5 39.5h81c21.78 0 39.5-17.72 39.5-39.5s-17.72-39.5-39.5-39.5zm0 64h-81c-13.509 0-24.5-10.99-24.5-24.5s10.991-24.5 24.5-24.5h81c13.509 0 24.5 10.99 24.5 24.5s-10.991 24.5-24.5 24.5z"/><path d="m143.756 44.248c-9.383-8.116-23.619-7.086-31.737 2.297l-37.604 43.474-16.177-10.963c-10.271-6.958-24.288-4.267-31.248 6.003-3.372 4.975-4.604 10.966-3.471 16.868 1.134 5.901 4.499 11.009 9.474 14.381l32.733 22.183c3.741 2.535 8.104 3.875 12.614 3.875 6.542 0 12.747-2.836 17.025-7.781l50.688-58.6c8.116-9.383 7.086-23.621-2.297-31.737zm-9.048 21.924-50.688 58.599c-1.426 1.649-3.497 2.595-5.68 2.595-1.5 0-2.952-.447-4.2-1.293l-32.732-22.183c-1.659-1.123-2.78-2.826-3.158-4.793-.378-1.968.033-3.964 1.157-5.622 1.448-2.138 3.814-3.29 6.22-3.29 1.448 0 2.91.417 4.196 1.289l21.695 14.702c3.147 2.132 7.393 1.572 9.88-1.303l41.965-48.515c2.705-3.129 7.451-3.473 10.58-.766 3.127 2.706 3.471 7.452.765 10.58z"/></g></g></svg>