<svg id="Layer_1" enable-background="new 0 0 512 512" height="512" viewBox="0 0 512 512" width="512" xmlns="http://www.w3.org/2000/svg"><g><path d="m322 184.5h-10.5v-116.346c0-5.731-3.553-10.64-8.568-12.662v-38.386c0-9.432-7.674-17.106-17.107-17.106h-40.546c-4.142 0-7.5 3.357-7.5 7.5s3.358 7.5 7.5 7.5h40.546c1.161 0 2.106.945 2.106 2.106v37.394h-12.354v-8.967c0-11.788-9.591-21.379-21.379-21.379s-21.379 9.591-21.379 21.379v8.967h-18.665c-7.529 0-13.654 6.125-13.654 13.654v116.346h-10.5c-6.341 0-11.5 5.159-11.5 11.5v11.77c0 4.143 3.358 7.5 7.5 7.5s7.5-3.357 7.5-7.5v-8.27h24.609v46.003h-24.609v-5.016c0-4.143-3.358-7.5-7.5-7.5s-7.5 3.357-7.5 7.5v8.516c0 6.341 5.159 11.5 11.5 11.5h9.5v15.025c-6.109.265-11 5.303-11 11.475v32c0 6.341 5.159 11.5 11.5 11.5h11.35v104.795c0 12.033 3.475 23.722 10.048 33.8 4.98 7.637 7.612 16.491 7.612 25.606 0 9.537 7.759 17.296 17.295 17.296h19.389c9.537 0 17.296-7.759 17.296-17.296v-.675c0-8.735 2.434-17.277 7.037-24.702l.464-.749c6.077-9.8 9.289-21.075 9.289-32.606v-16.817c0-4.143-3.357-7.5-7.5-7.5s-7.5 3.357-7.5 7.5v16.817c0 8.735-2.434 17.277-7.038 24.703l-.464.749c-6.076 9.8-9.288 21.075-9.288 32.605v.675c0 1.266-1.03 2.296-2.296 2.296h-19.389c-1.266 0-2.295-1.03-2.295-2.296 0-12.032-3.475-23.721-10.048-33.8-4.98-7.636-7.612-16.49-7.612-25.606v-104.359h58.43v55.805c0 4.143 3.357 7.5 7.5 7.5s7.5-3.357 7.5-7.5v-56.241h12.22c6.341 0 11.5-5.159 11.5-11.5v-32c0-6.172-4.892-11.21-11-11.475v-15.025h9.5c6.341 0 11.5-5.159 11.5-11.5v-53.003c0-6.341-5.159-11.5-11.5-11.5zm-25.5-55.661h-81v-8.098h81zm-81 15h81v8.099h-81zm32.319-98.306c0-3.518 2.862-6.379 6.379-6.379 3.518 0 6.379 2.861 6.379 6.379v8.967h-12.758zm48.681 23.967v13.143h-8.27c-4.143 0-7.5 3.357-7.5 7.5s3.357 7.5 7.5 7.5h8.27v8.099h-81v-8.099h40.5c4.143 0 7.5-3.357 7.5-7.5s-3.357-7.5-7.5-7.5h-40.5v-13.143zm-81 97.438h81v17.562h-81zm17.609 32.562h45.782v46.003h-45.782zm-29.609 91.003h18.461v25h-18.461zm71.538 25h-38.077v-25h38.077zm33.462 0h-18.462v-25h18.462zm-11-40h-83v-15h83zm21-30h-24.609v-46.003h24.609z"/></g></svg>