<svg id="Layer_1" enable-background="new 0 0 512 512" height="512" viewBox="0 0 512 512" width="512" xmlns="http://www.w3.org/2000/svg"><g><g><path d="m282.004 284.5h38c14.061 0 25.5-11.439 25.5-25.5s-11.439-25.5-25.5-25.5h-38c-14.061 0-25.5 11.439-25.5 25.5s11.439 25.5 25.5 25.5zm0-36h38c5.79 0 10.5 4.71 10.5 10.5s-4.71 10.5-10.5 10.5h-38c-5.79 0-10.5-4.71-10.5-10.5s4.71-10.5 10.5-10.5z"/><path d="m106.004 233.5h-38c-14.061 0-25.5 11.439-25.5 25.5s11.439 25.5 25.5 25.5h38c14.061 0 25.5-11.439 25.5-25.5s-11.44-25.5-25.5-25.5zm0 36h-38c-5.79 0-10.5-4.71-10.5-10.5s4.71-10.5 10.5-10.5h38c5.79 0 10.5 4.71 10.5 10.5s-4.71 10.5-10.5 10.5z"/><path d="m490.053 389.514c1.489-3.081 2.323-6.533 2.323-10.177v-83.891c0-12.941-10.528-23.47-23.47-23.47h-28.061c-12.941 0-23.47 10.528-23.47 23.47v67.941h-73.875v-4.887h10.504c11.855 0 21.5-9.645 21.5-21.5v-12c0-6.2-2.653-11.778-6.865-15.706 4.267-4.814 6.865-11.14 6.865-18.063v-54.885c0-11.002-3.268-21.25-8.868-29.846h3.774c9.704 0 17.6-7.896 17.6-17.6v-17.8c0-9.704-7.896-17.6-17.6-17.6h-26.05c-3.451 0-6.816.652-9.948 1.875l-7.031-37.287c4.274-2.727 7.122-7.499 7.122-12.934 0-15.249-12.405-27.654-27.654-27.654h-18.362c-4.143 0-7.5 3.357-7.5 7.5s3.357 7.5 7.5 7.5h18.362c6.978 0 12.654 5.677 12.654 12.654 0 .19-.155.346-.347.346h-250.306c-.19 0-.346-.155-.346-.346 0-6.978 5.676-12.654 12.653-12.654h175.535c4.143 0 7.5-3.357 7.5-7.5s-3.357-7.5-7.5-7.5h-175.535c-15.248 0-27.653 12.405-27.653 27.654 0 5.432 2.845 10.203 7.115 12.93l-7.031 37.287c-3.128-1.22-6.49-1.871-9.938-1.871h-26.05c-9.704 0-17.6 7.896-17.6 17.6v17.8c0 9.704 7.896 17.6 17.6 17.6h3.772c-5.599 8.596-8.868 18.844-8.868 29.846v54.885c0 6.924 2.598 13.249 6.865 18.063-4.212 3.928-6.865 9.506-6.865 15.706v12c0 11.855 9.645 21.5 21.5 21.5h4.496v26.5c0 1.551.201 3.053.545 4.5h-16.545c-12.406 0-22.5 10.094-22.5 22.5s10.094 22.5 22.5 22.5h361.782c4.143 0 7.5-3.357 7.5-7.5s-3.357-7.5-7.5-7.5h-361.782c-4.136 0-7.5-3.364-7.5-7.5s3.364-7.5 7.5-7.5h467c4.136 0 7.5 3.364 7.5 7.5s-3.364 7.5-7.5 7.5h-73.218c-4.143 0-7.5 3.357-7.5 7.5s3.357 7.5 7.5 7.5h73.218c12.406 0 22.5-10.094 22.5-22.5 0-12.221-9.796-22.19-21.947-22.486zm-57.676-11.126h11.813c10.028 0 18.188-8.159 18.188-18.188v-6.43h15v25.567c0 4.67-3.8 8.47-8.47 8.47h-28.061c-4.67 0-8.47-3.8-8.47-8.47zm0-54.618h45v15h-45zm8.47-36.793h28.061c4.67 0 8.47 3.8 8.47 8.47v13.323h-45v-13.323c-.001-4.671 3.799-8.47 8.469-8.47zm-8.47 66.793h15v6.43c0 1.758-1.43 3.188-3.188 3.188h-11.813v-9.618zm-15 24.618v.949c0 3.639.832 7.086 2.316 10.163h-76.739c.344-1.447.545-2.949.545-4.5v-6.612zm-191.873-74.888h-63v-47.02c0-1.092.889-1.98 1.98-1.98h59.039c1.092 0 1.98.889 1.98 1.98v47.02zm-1.981-64h-59.039c-9.363 0-16.98 7.617-16.98 16.98v47.02h-107.731c-6.766 0-12.27-5.504-12.27-12.27v-54.885c0-21.941 17.828-39.795 39.758-39.843l15.313 20.334c4.557 6.054 11.801 9.667 19.378 9.667h184.104c7.577 0 14.821-3.613 19.378-9.666l15.313-20.335c21.931.048 39.758 17.902 39.758 39.843v54.885c0 6.766-5.504 12.27-12.27 12.27h-107.73v-47.02c-.001-9.363-7.618-16.98-16.982-16.98zm78.445-42.996-8.517 11.312c-1.739 2.31-4.504 3.688-7.396 3.688h-184.103c-2.892 0-5.656-1.379-7.396-3.689l-8.517-11.311zm-73.755-15.004c3.142-9.334 11.97-16.077 22.349-16.077 10.38 0 19.208 6.743 22.35 16.077zm116.147-13h26.05c1.434 0 2.6 1.166 2.6 2.6v17.8c0 1.434-1.166 2.6-2.6 2.6h-18.237c-3.742-2.637-7.822-4.821-12.168-6.466l-2.697-14.302c2.052-1.431 4.498-2.232 7.052-2.232zm-31.788-48 9.21 48.844c.01.058.021.114.032.171l2.282 12.103c-1.139-.071-2.283-.119-3.439-.119h-32.253c-3.503-17.693-19.137-31.077-37.843-31.077s-34.339 13.384-37.842 31.077h-145.369c-1.158 0-2.305.048-3.446.119l2.28-12.093c.012-.059.023-.117.033-.176l9.211-48.85h237.144zm-297.572 68.4v-17.8c0-1.434 1.166-2.6 2.6-2.6h26.05c2.554 0 4.996.799 7.042 2.228l-2.698 14.31c-4.344 1.644-8.421 3.827-12.161 6.462h-18.233c-1.434 0-2.6-1.166-2.6-2.6zm12.504 148.1v-12c0-3.584 2.916-6.5 6.5-6.5h320c3.584 0 6.5 2.916 6.5 6.5v12c0 3.584-2.916 6.5-6.5 6.5h-193.312c-4.143 0-7.5 3.357-7.5 7.5s3.357 7.5 7.5 7.5h105.808v26.5c0 1.551.201 3.053.545 4.5h-152.09c.344-1.447.545-2.949.545-4.5v-26.5h12.68c4.143 0 7.5-3.357 7.5-7.5s-3.357-7.5-7.5-7.5h-94.176c-3.584 0-6.5-2.916-6.5-6.5zm30.496 52.5c-2.481 0-4.5-2.019-4.5-4.5v-26.5h47v26.5c0 2.481-2.019 4.5-4.5 4.5zm228 0c-2.481 0-4.5-2.019-4.5-4.5v-26.5h47v26.5c0 2.481-2.019 4.5-4.5 4.5z"/></g></g></svg>