<svg id="Layer_1" enable-background="new 0 0 512 512" height="512" viewBox="0 0 512 512" width="512" xmlns="http://www.w3.org/2000/svg"><g><g><path d="m344 371h38c14.061 0 25.5-11.439 25.5-25.5s-11.439-25.5-25.5-25.5h-38c-14.061 0-25.5 11.439-25.5 25.5s11.439 25.5 25.5 25.5zm0-36h38c5.79 0 10.5 4.71 10.5 10.5s-4.71 10.5-10.5 10.5h-38c-5.79 0-10.5-4.71-10.5-10.5s4.71-10.5 10.5-10.5z"/><path d="m130 371h38c14.061 0 25.5-11.439 25.5-25.5s-11.439-25.5-25.5-25.5h-38c-14.061 0-25.5 11.439-25.5 25.5s11.439 25.5 25.5 25.5zm0-36h38c5.79 0 10.5 4.71 10.5 10.5s-4.71 10.5-10.5 10.5h-38c-5.79 0-10.5-4.71-10.5-10.5s4.71-10.5 10.5-10.5z"/><path d="m490.942 452.192c11.611 0 21.058-9.446 21.058-21.058v-410.076c0-11.612-9.446-21.058-21.058-21.058h-47.385c-11.611 0-21.057 9.446-21.057 21.058v218.942h-16.14c-3.452 0-6.818.651-9.949 1.872l-7.03-37.285c4.272-2.728 7.119-7.499 7.119-12.933 0-15.249-12.405-27.654-27.654-27.654h-15.846c-4.143 0-7.5 3.357-7.5 7.5s3.357 7.5 7.5 7.5h15.846c6.978 0 12.654 5.677 12.654 12.654 0 .19-.155.346-.346.346h-250.308c-.19 0-.346-.155-.346-.346 0-6.978 5.677-12.654 12.654-12.654h176.616c4.143 0 7.5-3.357 7.5-7.5s-3.357-7.5-7.5-7.5h-176.616c-15.249 0-27.654 12.405-27.654 27.654 0 5.434 2.847 10.205 7.119 12.933l-7.03 37.285c-3.131-1.221-6.496-1.872-9.949-1.872h-16.14v-143.308c0-4.143-3.357-7.5-7.5-7.5s-7.5 3.357-7.5 7.5v334.442c0 3.34-2.718 6.058-6.058 6.058h-47.384c-3.34 0-6.058-2.718-6.058-6.058v-410.076c0-3.34 2.718-6.058 6.058-6.058h47.385c3.34 0 6.058 2.718 6.058 6.058v42.712c0 4.143 3.357 7.5 7.5 7.5s7.5-3.357 7.5-7.5v-42.712c-.001-11.612-9.447-21.058-21.059-21.058h-47.384c-11.612 0-21.058 9.446-21.058 21.058v410.077c0 11.611 9.446 21.058 21.058 21.058h1.192v14.814c-12.291.135-22.25 10.171-22.25 22.493 0 12.406 10.094 22.5 22.5 22.5h467c12.406 0 22.5-10.094 22.5-22.5 0-12.322-9.959-22.358-22.25-22.494v-14.814zm-53.442-431.134c0-3.34 2.718-6.058 6.058-6.058h47.385c3.34 0 6.058 2.718 6.058 6.058v410.077c0 3.34-2.718 6.058-6.058 6.058h-47.385c-3.34 0-6.058-2.718-6.058-6.058zm-32.545 445.942c.344-1.447.545-2.949.545-4.5v-17.5h10.5c3.57 0 6.932-.888 9.898-2.434 3.757 5.784 10.263 9.626 17.659 9.626h1.192v14.808zm-289.455-4.5v-17.5h47v17.5c0 2.481-2.019 4.5-4.5 4.5h-38c-2.481 0-4.5-2.019-4.5-4.5zm62 0v-17.5h14.73c4.143 0 7.5-3.357 7.5-7.5s-3.357-7.5-7.5-7.5h-96.23c-3.584 0-6.5-2.916-6.5-6.5v-12c0-3.584 2.916-6.5 6.5-6.5h320c3.584 0 6.5 2.916 6.5 6.5v12c0 3.584-2.916 6.5-6.5 6.5h-191.77c-4.143 0-7.5 3.357-7.5 7.5s3.357 7.5 7.5 7.5h104.27v17.5c0 1.551.201 3.053.545 4.5h-152.09c.344-1.447.545-2.949.545-4.5zm-88-139.653c0-21.942 17.828-39.796 39.758-39.844l15.313 20.334c4.557 6.054 11.801 9.667 19.378 9.667h184.104c7.577 0 14.821-3.613 19.378-9.666l15.313-20.335c21.93.048 39.758 17.902 39.758 39.844v54.884c0 6.766-5.504 12.27-12.27 12.27h-107.732v-47.02c0-9.363-7.617-16.98-16.98-16.98h-59.04c-9.363 0-16.98 7.617-16.98 16.98v47.019h-107.73c-6.766 0-12.27-5.504-12.27-12.27zm274.464-39.843-8.517 11.312c-1.739 2.31-4.504 3.688-7.396 3.688h-184.103c-2.892 0-5.656-1.379-7.396-3.689l-8.517-11.311zm-78.691-15.004c3.215-10.479 12.979-18.12 24.497-18.12s21.283 7.642 24.498 18.12zm2.227 122h-63v-47.02c0-1.092.889-1.98 1.98-1.98h59.039c1.092 0 1.98.889 1.98 1.98v47.02zm56 72.5v-17.5h47v17.5c0 2.481-2.019 4.5-4.5 4.5h-38c-2.481 0-4.5-2.019-4.5-4.5zm62.86-207.5h16.14v23h-8.331c-3.74-2.636-7.82-4.82-12.165-6.464l-2.698-14.308c2.049-1.428 4.495-2.228 7.054-2.228zm-31.788-48 9.212 48.858c.009.053.02.106.03.159l2.282 12.102c-1.139-.071-2.285-.119-3.442-.119h-32.97c-3.53-18.826-20.079-33.12-39.915-33.12-19.834 0-36.384 14.294-39.914 33.12h-140.51c-1.157 0-2.303.048-3.442.119l2.282-12.102c.01-.053.021-.106.03-.159l9.213-48.858zm-268.932 48c2.56 0 5.005.8 7.053 2.229l-2.698 14.308c-4.345 1.644-8.424 3.828-12.165 6.464h-8.33v-23h16.14zm-19.538 187.566c2.966 1.546 6.328 2.434 9.898 2.434h4.5v17.5c0 1.551.201 3.053.545 4.5h-33.795v-14.808h1.192c7.397 0 13.902-3.841 17.66-9.626zm-33.852 9.626v14.808h-15v-14.808zm444.75 37.308c0 4.136-3.364 7.5-7.5 7.5h-467c-4.136 0-7.5-3.364-7.5-7.5s3.364-7.5 7.5-7.5h467c4.136 0 7.5 3.364 7.5 7.5zm-22.25-22.5h-15v-14.808h15z"/><path d="m209.433 83.126h93.135c6.363 0 11.54-5.177 11.54-11.54v-9.529c0-17.676-14.38-32.057-32.056-32.057h-3.552v-22.5c0-4.143-3.357-7.5-7.5-7.5h-30c-4.143 0-7.5 3.357-7.5 7.5v22.5h-3.552c-17.676 0-32.056 14.381-32.056 32.057v9.529c.001 6.363 5.177 11.54 11.541 11.54zm39.067-68.126h15v15h-15zm-35.607 47.057c0-9.405 7.651-17.057 17.056-17.057h52.104c9.404 0 17.056 7.651 17.056 17.057v6.069h-86.215v-6.069z"/><path d="m193.783 118.562c1.381 1.098 3.028 1.631 4.665 1.631 2.207 0 4.394-.97 5.874-2.83l6.854-8.615c2.579-3.242 2.042-7.96-1.199-10.539-3.243-2.578-7.96-2.041-10.539 1.199l-6.854 8.615c-2.579 3.242-2.042 7.959 1.199 10.539z"/><path d="m222.247 111.021-3.427 10.667c-1.267 3.943.903 8.168 4.847 9.435.763.245 1.535.361 2.296.361 3.171 0 6.117-2.027 7.139-5.208l3.427-10.667c1.267-3.943-.903-8.168-4.847-9.435-3.944-1.269-8.168.903-9.435 4.847z"/><path d="m302.022 98.208c-3.241 2.579-3.778 7.297-1.199 10.539l6.854 8.615c1.481 1.861 3.667 2.83 5.874 2.83 1.637 0 3.284-.533 4.665-1.631 3.241-2.579 3.778-7.297 1.199-10.539l-6.854-8.615c-2.58-3.241-7.296-3.777-10.539-1.199z"/><path d="m280.318 106.175c-3.943 1.267-6.113 5.491-4.847 9.435l3.427 10.667c1.022 3.182 3.968 5.208 7.139 5.208.76 0 1.533-.116 2.296-.361 3.943-1.267 6.113-5.491 4.847-9.435l-3.427-10.667c-1.268-3.944-5.488-6.116-9.435-4.847z"/><path d="m248.5 118.649v12.094c0 4.143 3.357 7.5 7.5 7.5s7.5-3.357 7.5-7.5v-12.094c0-4.143-3.357-7.5-7.5-7.5s-7.5 3.358-7.5 7.5z"/></g></g></svg>